<?xml version="1.0" encoding="UTF-8" standalone="no"?><!DOCTYPE svg PUBLIC "-//W3C//DTD SVG 1.1//EN" "http://www.w3.org/Graphics/SVG/1.1/DTD/svg11.dtd"><svg width="100%" height="100%" viewBox="0 0 267 267" version="1.1" xmlns="http://www.w3.org/2000/svg" xmlns:xlink="http://www.w3.org/1999/xlink" xml:space="preserve" xmlns:serif="http://www.serif.com/" style="fill-rule:evenodd;clip-rule:evenodd;stroke-linejoin:round;stroke-miterlimit:2;"><path d="M66.667,20.833c-13.737,0 -26.172,5.567 -35.222,14.551c-0.049,0.033 -0.081,0.049 -0.13,0.098c-0.049,0.032 -0.065,0.081 -0.098,0.13c-8.984,9.049 -14.55,21.484 -14.55,35.221c-0,27.572 22.428,50 50,50c13.737,0 26.172,-5.566 35.221,-14.55c0.049,-0.033 0.081,-0.049 0.13,-0.098c0.049,-0.033 0.049,-0.081 0.082,-0.13c9,-9.05 14.567,-21.485 14.567,-35.222c-0,-27.571 -22.429,-50 -50,-50Zm104.166,4.167c-6.884,0 -12.5,5.615 -12.5,12.5l0,66.667c0,6.884 5.616,12.5 12.5,12.5l66.667,-0c6.885,-0 12.5,-5.616 12.5,-12.5l0,-66.667c0,-6.885 -5.615,-12.5 -12.5,-12.5l-66.667,0Zm-104.166,4.167c22.981,-0 41.666,18.685 41.666,41.666c0,0.131 -0.016,0.261 -0.016,0.391l-42.041,-42.025c0.13,0 0.26,-0.032 0.391,-0.032Zm-10.743,1.465l50.961,50.944c-1.563,5.794 -4.281,11.1 -7.975,15.608l-58.594,-58.594c4.508,-3.694 9.814,-6.412 15.608,-7.958Zm114.909,2.701l66.667,0c2.295,0 4.167,1.872 4.167,4.167l-0,66.667c-0,2.295 -1.872,4.166 -4.167,4.166l-66.667,0c-2.295,0 -4.166,-1.871 -4.166,-4.166l-0,-66.667c-0,-2.295 1.871,-4.167 4.166,-4.167Zm-136.409,11.149l58.594,58.594c-4.509,3.695 -9.815,6.413 -15.609,7.975l-50.944,-50.96c1.546,-5.794 4.264,-11.1 7.959,-15.609Zm-9.391,25.961l42.024,42.041c-0.13,-0 -0.26,0.016 -0.39,0.016c-22.982,0 -41.667,-18.685 -41.667,-41.667c-0,-0.13 0.033,-0.26 0.033,-0.39Zm179.134,85.986c-3.239,0 -6.478,1.188 -8.838,3.548l-35.368,35.352c-2.36,2.36 -3.646,5.501 -3.646,8.838c0,3.353 1.286,6.478 3.646,8.838l35.368,35.367c2.36,2.36 5.501,3.646 8.838,3.646c3.336,0 6.478,-1.286 8.838,-3.646l35.351,-35.367c2.36,-2.36 3.662,-5.485 3.662,-8.838c0,-3.337 -1.302,-6.478 -3.662,-8.838l-35.351,-35.352c-2.36,-2.36 -5.599,-3.548 -8.838,-3.548Zm-141.667,1.904c-3.011,0 -5.713,1.547 -7.21,4.151l-38.623,66.797c-1.498,2.604 -1.498,5.712 -0,8.333c1.513,2.604 4.215,4.167 7.226,4.167l77.214,-0c3.027,-0 5.713,-1.563 7.226,-4.167c1.498,-2.621 1.498,-5.729 0,-8.333l-38.623,-66.797c-1.513,-2.604 -4.199,-4.151 -7.21,-4.151Zm141.667,6.315c1.123,0 2.164,0.44 2.946,1.221l35.351,35.368c0.781,0.781 1.221,1.823 1.221,2.93c-0,1.123 -0.44,2.164 -1.221,2.946l-35.368,35.351c-1.562,1.579 -4.297,1.579 -5.875,0l-35.352,-35.351c-0.797,-0.782 -1.221,-1.823 -1.221,-2.946c0,-1.123 0.424,-2.165 1.221,-2.946l35.352,-35.352c0.781,-0.781 1.823,-1.221 2.946,-1.221Zm-141.667,2.019l38.607,66.78l-77.214,0l38.607,-66.78Zm120.833,29.166c-2.295,0 -4.166,1.872 -4.166,4.167l-0,8.333c-0,2.295 1.871,4.167 4.166,4.167c2.295,0 4.167,-1.872 4.167,-4.167l-0,-8.333c-0,-2.295 -1.872,-4.167 -4.167,-4.167Zm20.834,0c-2.295,0 -4.167,1.872 -4.167,4.167l-0,8.333c-0,2.295 1.872,4.167 4.167,4.167c2.295,0 4.166,-1.872 4.166,-4.167l0,-8.333c0,-2.295 -1.871,-4.167 -4.166,-4.167Zm20.833,0c-2.295,0 -4.167,1.872 -4.167,4.167l0,8.333c0,2.295 1.872,4.167 4.167,4.167c2.295,0 4.167,-1.872 4.167,-4.167l-0,-8.333c-0,-2.295 -1.872,-4.167 -4.167,-4.167Z" style="fill:#f0f0f0;fill-rule:nonzero;"/><path d="M170.833,25c-6.884,0 -12.5,5.615 -12.5,12.5l0,66.667c0,6.884 5.616,12.5 12.5,12.5l66.667,-0c6.885,-0 12.5,-5.616 12.5,-12.5l0,-66.667c0,-6.885 -5.615,-12.5 -12.5,-12.5l-66.667,0Zm0,8.333l66.667,0c2.295,0 4.167,1.872 4.167,4.167l-0,66.667c-0,2.295 -1.872,4.166 -4.167,4.166l-66.667,0c-2.295,0 -4.166,-1.871 -4.166,-4.166l-0,-66.667c-0,-2.295 1.871,-4.167 4.166,-4.167Zm-108.333,125c-3.011,0 -5.713,1.547 -7.21,4.151l-38.623,66.797c-1.498,2.604 -1.498,5.712 -0,8.333c1.513,2.604 4.215,4.167 7.226,4.167l77.214,-0c3.027,-0 5.713,-1.563 7.226,-4.167c1.498,-2.621 1.498,-5.729 0,-8.333l-38.623,-66.797c-1.513,-2.604 -4.199,-4.151 -7.21,-4.151Zm0,8.334l38.607,66.78l-77.214,0l38.607,-66.78Zm120.833,29.166c-2.295,0 -4.166,1.872 -4.166,4.167l-0,8.333c-0,2.295 1.871,4.167 4.166,4.167c2.295,0 4.167,-1.872 4.167,-4.167l0,-8.333c0,-2.295 -1.872,-4.167 -4.167,-4.167Zm20.834,0c-2.295,0 -4.167,1.872 -4.167,4.167l0,8.333c0,2.295 1.872,4.167 4.167,4.167c2.295,0 4.166,-1.872 4.166,-4.167l0,-8.333c0,-2.295 -1.871,-4.167 -4.166,-4.167Zm20.833,0c-2.295,0 -4.167,1.872 -4.167,4.167l0,8.333c0,2.295 1.872,4.167 4.167,4.167c2.295,0 4.167,-1.872 4.167,-4.167l-0,-8.333c-0,-2.295 -1.872,-4.167 -4.167,-4.167Z" style="fill:#fc9c19;fill-rule:nonzero;"/></svg>