<?xml version="1.0" encoding="UTF-8" standalone="no"?><!DOCTYPE svg PUBLIC "-//W3C//DTD SVG 1.1//EN" "http://www.w3.org/Graphics/SVG/1.1/DTD/svg11.dtd"><svg width="100%" height="100%" viewBox="0 0 3082 3773" version="1.1" xmlns="http://www.w3.org/2000/svg" xmlns:xlink="http://www.w3.org/1999/xlink" xml:space="preserve" xmlns:serif="http://www.serif.com/" style="fill-rule:evenodd;clip-rule:evenodd;stroke-linecap:round;stroke-linejoin:round;stroke-miterlimit:1.5;"><g><path d="M1100.34,949.371c-35.159,0 -68.261,13.673 -93.036,38.551l-227.81,227.809c-24.878,24.878 -38.55,57.878 -38.55,93.036l-0,930.154c-0,43.485 35.466,78.952 78.952,78.952l131.586,-0l0,78.952c0,43.485 35.467,78.952 78.952,78.952l1000.06,-0c43.486,-0 78.952,-35.467 78.952,-78.952l0,-1210.6c0,-43.485 -35.466,-78.952 -78.952,-78.952l-131.586,0l-0,-78.952c-0,-43.485 -35.467,-78.952 -78.953,-78.952l-719.614,0Zm9.046,52.635l710.568,-0c14.496,-0 26.318,11.822 26.318,26.317l-0,1026.38c0.789,0 0.55,105.27 -0,105.27l-0,78.952c-0,14.495 -11.822,26.317 -26.318,26.317l-1000.06,0c-14.496,0 -26.318,-11.822 -26.318,-26.317l0,-78.952c14.598,-0 26.318,-11.72 26.318,-26.318l-0,-52.634c-0,-14.598 -11.72,-26.318 -26.318,-26.318l0,-736.885l236.856,-0c43.486,-0 78.952,-35.467 78.952,-78.952l0,-236.856Zm-52.634,13.158l-0,223.698c-0,14.495 -11.823,26.317 -26.318,26.317l-223.697,0c2.981,-4.42 6.271,-8.532 9.972,-12.233l227.809,-227.81c3.804,-3.803 7.916,-7.093 12.234,-9.972Zm842.155,144.746l131.586,-0c14.495,-0 26.318,11.822 26.318,26.317l-0,1210.6c-0,14.495 -11.823,26.317 -26.318,26.317l-1000.06,0c-14.495,0 -26.317,-11.822 -26.317,-26.317l-0,-78.952l815.837,-0c43.486,-0 78.953,-35.467 78.953,-78.952l-0,-1079.01Zm-868.473,263.173c-14.598,0 -26.317,11.72 -26.317,26.318c-0,14.597 11.719,26.317 26.317,26.317l368.443,-0c14.598,-0 26.317,-11.72 26.317,-26.317c0,-14.598 -11.719,-26.318 -26.317,-26.318l-368.443,0Zm473.712,0c-14.597,0 -26.317,11.72 -26.317,26.318c0,14.597 11.72,26.317 26.317,26.317l105.27,-0c14.598,-0 26.317,-11.72 26.317,-26.317c0,-14.598 -11.719,-26.318 -26.317,-26.318l-105.27,0Zm-473.712,105.27c-14.598,-0 -26.317,11.719 -26.317,26.317c-0,14.598 11.719,26.317 26.317,26.317l473.712,0c14.598,0 26.318,-11.719 26.318,-26.317c-0,-14.598 -11.72,-26.317 -26.318,-26.317l-473.712,-0Zm0,157.904c-14.598,-0 -26.317,11.719 -26.317,26.317c-0,14.598 11.719,26.317 26.317,26.317l283.908,0c14.597,0 26.317,-11.719 26.317,-26.317c-0,-14.598 -11.72,-26.317 -26.317,-26.317l-283.908,-0Zm0,105.269c-14.598,-0 -26.317,11.719 -26.317,26.317c-0,14.598 11.719,26.318 26.317,26.318l229.438,-0c14.598,-0 14.598,-52.635 -0,-52.635l-229.438,-0Zm-105.269,263.173c-14.598,0 -26.317,11.72 -26.317,26.318l-0,52.634c-0,14.598 11.719,26.318 26.317,26.318c14.598,-0 26.317,-11.72 26.317,-26.318l0,-52.634c0,-14.598 -11.719,-26.318 -26.317,-26.318Zm131.587,0c-14.598,0 -26.318,11.72 -26.318,26.318l0,52.634c0,14.598 11.72,26.318 26.318,26.318c14.598,-0 26.317,-11.72 26.317,-26.318l-0,-52.634c-0,-14.598 -11.719,-26.318 -26.317,-26.318Z" style="fill:#f0f0f0;fill-rule:nonzero;"/><path d="M1688.73,1547.8c-286.124,0 -518.899,232.775 -518.899,518.899c0,286.124 232.775,518.898 518.899,518.898c114.482,0 220.288,-37.296 306.15,-100.293c-0,-0 57.646,56.43 60.403,57.403c-0,0.486 -0.081,0.892 -0.081,1.378c-0,27.729 10.783,53.836 30.404,73.376l214.694,214.694c20.27,20.27 46.782,30.323 73.376,30.323c26.593,0 53.187,-10.053 73.375,-30.323l7.135,-7.216c19.621,-19.54 30.404,-45.566 30.404,-73.294c0,-27.729 -10.783,-53.836 -30.404,-73.376l-214.694,-214.694c-20.594,-20.594 -47.674,-30.566 -74.673,-30.161c-1.054,-2.838 -57.484,-60.565 -57.484,-60.565c62.998,-85.862 100.293,-191.668 100.293,-306.15c0,-286.124 -232.774,-518.899 -518.898,-518.899Zm-0,41.512c263.26,-0 477.386,214.127 477.386,477.387c0,263.26 -214.126,477.386 -477.386,477.386c-263.26,0 -477.387,-214.126 -477.387,-477.386c0,-263.26 214.127,-477.387 477.387,-477.387Zm-0,83.024c-105.32,-0 -204.398,41.025 -278.908,115.455c-153.724,153.804 -153.724,404.011 -0,557.735c74.51,74.51 173.588,115.536 278.908,115.536c105.32,-0 204.397,-41.026 278.908,-115.455c153.723,-153.805 153.723,-404.012 -0,-557.816c-74.511,-74.43 -173.588,-115.455 -278.908,-115.455Zm-0,41.512c94.212,-0 182.83,36.728 249.477,103.374c137.589,137.508 137.589,361.445 -0,498.953c-66.647,66.646 -155.265,103.375 -249.477,103.375c-94.213,-0 -182.831,-36.729 -249.477,-103.375c-137.589,-137.508 -137.589,-361.364 0,-498.953c66.646,-66.646 155.264,-103.374 249.477,-103.374Zm-3.973,62.267c-75.483,0.892 -147.481,31.053 -201.56,85.051c-8.107,8.189 -8.107,21.243 0,29.431c4.054,3.973 9.405,6.081 14.757,6.081c5.27,0 10.621,-2.108 14.675,-6.081c52.862,-52.943 125.914,-79.132 200.586,-71.753c11.432,0.972 21.567,-7.216 22.702,-18.648c1.135,-11.432 -7.216,-21.567 -18.648,-22.702c-10.864,-1.054 -21.729,-1.541 -32.512,-1.379Zm146.346,38.918c-7.946,-1.135 -16.297,2.513 -20.756,9.891c-5.919,9.811 -2.757,22.54 7.135,28.459c17.026,10.378 32.998,22.864 47.349,37.214c4.054,4.054 9.324,6.081 14.675,6.081c5.351,0 10.621,-2.027 14.756,-6.081c8.027,-8.107 8.027,-21.242 0,-29.35c-16.783,-16.702 -35.431,-31.296 -55.376,-43.376c-2.432,-1.46 -5.108,-2.433 -7.783,-2.838Zm-432.956,230.91c-11.432,-0 -20.756,9.243 -20.756,20.756c-0,11.513 9.324,20.756 20.756,20.756l41.512,-0c11.432,-0 20.755,-9.243 20.755,-20.756c0,-11.513 -9.323,-20.756 -20.755,-20.756l-41.512,-0Zm539.654,-0c-11.432,-0 -20.756,9.243 -20.756,20.756c0,11.513 9.324,20.756 20.756,20.756l41.512,-0c11.432,-0 20.756,-9.243 20.756,-20.756c-0,-11.513 -9.324,-20.756 -20.756,-20.756l-41.512,-0Zm-479.657,93.32c-2.675,-0.081 -5.513,0.406 -8.107,1.46l-38.512,15.567c-10.622,4.297 -15.73,16.377 -11.432,26.999c3.243,8.107 11.026,13.053 19.215,13.053c2.594,0 5.27,-0.486 7.783,-1.54l38.512,-15.567c10.622,-4.297 15.73,-16.378 11.432,-26.999c-3.243,-7.946 -10.783,-12.892 -18.891,-12.973Zm459.874,3.973c-8.108,0 -15.81,4.784 -19.134,12.648c-4.46,10.622 0.405,22.783 11.026,27.242l38.188,16.216c2.595,1.135 5.351,1.622 8.108,1.622c8.108,-0 15.729,-4.703 19.134,-12.649c4.459,-10.54 -0.486,-22.701 -11.026,-27.161l-38.188,-16.215c-2.676,-1.135 -5.432,-1.703 -8.108,-1.703Zm-405.389,78.808c-5.351,-0 -10.622,2.027 -14.675,6.081l-29.351,29.35c-8.107,8.108 -8.107,21.242 0,29.35c4.054,4.054 9.324,6.081 14.675,6.081c5.352,-0 10.622,-2.027 14.676,-6.081l29.35,-29.35c8.108,-8.108 8.108,-21.242 -0,-29.35c-4.054,-4.054 -9.405,-6.081 -14.675,-6.081Zm352.202,-0c-5.27,-0 -10.621,2.027 -14.675,6.081c-8.108,8.108 -8.108,21.242 -0,29.35l29.35,29.35c4.054,4.054 9.324,6.081 14.675,6.081c5.351,-0 10.621,-2.027 14.675,-6.081c8.108,-8.108 8.108,-21.242 0,-29.35l-29.35,-29.35c-4.054,-4.054 -9.405,-6.081 -14.675,-6.081Zm-273.395,53.187c-8.107,-0 -15.81,4.702 -19.134,12.648l-16.216,38.188c-4.459,10.54 0.487,22.783 11.027,27.242c2.676,1.135 5.351,1.622 8.108,1.622c8.027,-0 15.729,-4.784 19.134,-12.649l16.216,-38.187c4.459,-10.54 -0.487,-22.783 -11.027,-27.242c-2.675,-1.136 -5.432,-1.622 -8.108,-1.622Zm190.939,1.622c-2.676,-0 -5.513,0.486 -8.108,1.54c-10.702,4.297 -15.81,16.378 -11.513,26.999l15.567,38.512c3.243,8.108 11.027,12.972 19.296,12.972c2.595,0 5.189,-0.486 7.784,-1.54c10.621,-4.297 15.729,-16.378 11.432,-26.999l-15.567,-38.512c-3.243,-7.946 -10.783,-12.81 -18.891,-12.972Zm-93.645,18.161c-11.432,-0 -20.756,9.243 -20.756,20.756l-0,41.512c-0,11.513 9.324,20.756 20.756,20.756c11.432,-0 20.756,-9.243 20.756,-20.756l-0,-41.512c-0,-11.513 -9.324,-20.756 -20.756,-20.756Zm392.498,110.509l38.917,38.999c-9.81,4.864 -19.215,10.945 -27.404,19.134l-7.135,7.054c-8.108,8.108 -14.189,17.432 -19.134,27.323l-38.918,-38.836c19.216,-16.54 37.134,-34.458 53.674,-53.674Zm84.888,69.16c15.973,-0 31.945,6.08 44.107,18.242l214.694,214.694c11.756,11.757 18.162,27.405 18.162,44.026c-0,16.621 -6.487,32.269 -18.243,44.025l-7.135,7.135c-24.323,24.242 -63.727,24.242 -88.05,-0l-214.695,-214.694c-11.756,-11.757 -18.242,-27.405 -18.242,-44.026c-0,-16.621 6.486,-32.269 18.242,-44.025l7.135,-7.135c12.162,-12.162 28.134,-18.242 44.025,-18.242Z" style="fill:#fc9c19;fill-rule:nonzero;"/></g><circle cx="1540.62" cy="1886.46" r="1486.42" style="fill:none;stroke:#f0f0f0;stroke-width:70.5px;"/></svg>