<?xml version="1.0" encoding="UTF-8" standalone="no"?><!DOCTYPE svg PUBLIC "-//W3C//DTD SVG 1.1//EN" "http://www.w3.org/Graphics/SVG/1.1/DTD/svg11.dtd"><svg width="100%" height="100%" viewBox="0 0 6163 7546" version="1.1" xmlns="http://www.w3.org/2000/svg" xmlns:xlink="http://www.w3.org/1999/xlink" xml:space="preserve" xmlns:serif="http://www.serif.com/" style="fill-rule:evenodd;clip-rule:evenodd;stroke-linecap:round;stroke-linejoin:round;stroke-miterlimit:1.5;"><g><circle cx="1311.2" cy="3100.29" r="1280.82" style="fill:none;stroke:#fc9c19;stroke-width:60.75px;"/><path d="M1528.49,2579.46c-9.63,-0 -17.359,7.8 -17.359,17.362c0,9.563 7.729,17.363 17.358,17.363l105.255,-0l-161.405,161.47c-6.783,-3.458 -14.241,-5.22 -22.245,-5.22c-10.58,-0 -20.684,3.32 -29.025,8.679l-60.221,-45.3c1.558,-4.884 2.441,-10.104 2.441,-15.463c0,-28.621 -23.466,-52.083 -52.083,-52.083c-28.621,-0 -52.083,23.462 -52.083,52.083c-0,6.238 1.221,12.342 3.254,17.904l-132.921,110.946c-7.866,-4.746 -17.021,-7.325 -26.583,-7.325c-10.921,0 -21.363,3.463 -29.842,9.363l-81.65,-58.188c-7.8,-5.496 -18.583,-3.8 -24.141,4.067c-5.496,7.8 -3.8,18.583 4.066,24.146l81.584,58.321c-1.421,4.475 -2.1,9.358 -2.1,14.375c-0,28.62 23.462,52.083 52.083,52.083c28.617,-0 52.083,-23.463 52.083,-52.083c0,-6.238 -1.221,-12.475 -3.254,-18.038l132.921,-110.812c7.867,4.745 17.021,7.325 26.583,7.325c10.579,-0 20.684,-3.325 29.025,-8.684l60.221,45.304c-1.558,4.884 -2.442,10.105 -2.442,15.463c0,28.617 23.467,52.083 52.084,52.083c28.62,0 52.083,-23.466 52.083,-52.083c-0,-8.004 -1.763,-15.463 -5.221,-22.246l161.471,-161.404l-0,105.254c-0,9.563 7.733,17.358 17.362,17.358c9.63,0 17.359,-7.795 17.359,-17.358l-0,-147.029c0.071,-4.613 -1.559,-9.154 -5.017,-12.613c-3.458,-3.458 -8.004,-5.087 -12.612,-5.02l-147.03,-0Zm-217.283,121.529c2.575,-0 5.017,0.541 7.325,1.558c0.675,0.342 1.354,0.679 2.033,1.221c0.338,0.204 0.68,0.475 1.017,0.679c0.204,0.204 0.542,0.342 0.746,0.542l0.337,0.341c0.546,0.338 1.021,1.017 1.563,1.559l1.558,2.104c0.542,0.675 0.884,1.558 1.221,2.237c0.542,1.221 0.883,2.442 1.221,3.663c0.204,1.017 0.337,2.1 0.337,3.321l0,0.137c0,4 -1.42,7.596 -3.658,10.579c-0.679,0.88 -1.358,1.763 -2.242,2.442c-0.541,0.542 -1.22,0.879 -1.691,1.354c-2.784,1.967 -6.104,2.984 -9.767,2.984c-3.662,-0 -6.987,-1.017 -9.767,-2.984c-0.812,-0.675 -1.491,-1.15 -2.375,-2.033c-0.337,-0.338 -0.879,-0.883 -1.22,-1.425c-0.675,-0.813 -1.355,-1.696 -1.763,-2.575c-0.475,-0.679 -0.812,-1.425 -1.017,-2.308c-0.337,-0.675 -0.679,-1.355 -0.679,-2.238c-0.404,-1.15 -0.541,-2.442 -0.541,-3.796c-0,-2.983 0.679,-5.9 2.237,-8.341c0.408,-0.884 0.883,-1.559 1.425,-2.238c0.338,-0.542 0.813,-1.017 1.358,-1.562l1.217,-1.221c2.104,-1.763 4.546,-2.984 7.325,-3.459c1.154,-0.404 2.442,-0.541 3.8,-0.541Zm138.888,104.166c3.662,0 6.987,1.017 9.766,2.984c0.338,0.137 0.475,0.475 0.813,0.679c1.016,0.883 2.104,1.696 2.779,2.779c0.679,0.817 1.358,1.696 1.767,2.579c0.812,1.354 1.354,2.917 1.695,4.542c0.405,1.154 0.542,2.442 0.542,3.8c0,1.221 -0.137,2.442 -0.342,3.458c-0.541,2.575 -1.762,5.017 -3.32,7.121c-0.884,1.017 -1.696,2.1 -2.78,2.779c-0.816,0.679 -1.695,1.359 -2.579,1.763c-1.354,0.816 -2.916,1.358 -4.541,1.696c-1.155,0.408 -2.442,0.541 -3.8,0.541c-1.221,0 -2.442,-0.133 -3.459,-0.337c-3.458,-0.679 -6.441,-2.442 -8.883,-4.679c-3.121,-3.321 -5.021,-7.459 -5.021,-12.342c0,-9.563 7.8,-17.363 17.363,-17.363Zm-347.221,69.446c3.321,0 6.579,1.017 9.221,2.646c0.341,0.133 0.475,0.271 0.816,0.608c1.084,0.746 2.1,1.763 2.984,2.646l0.337,0.338c0.679,1.016 1.425,2.104 1.9,3.121c0.204,0.204 0.204,0.204 0.204,0.408c0.675,1.15 1.017,2.371 1.354,3.592c0.409,1.22 0.542,2.645 0.542,4c0,1.9 -0.337,3.662 -1.083,5.429c-0,0.675 -0.271,1.491 -0.813,2.166c-0.341,0.884 -0.883,1.767 -1.358,2.442c-0.542,0.746 -1.083,1.425 -1.763,2.308c-0.337,0.205 -0.541,0.475 -0.883,0.675c-0.337,0.205 -0.542,0.475 -0.879,0.68c-0.679,0.541 -1.358,1.016 -2.104,1.425c-0.338,0.137 -0.475,0.337 -0.879,0.337c-1.155,0.679 -2.375,1.221 -3.596,1.358c-1.221,0.409 -2.646,0.542 -4,0.542c-2.442,0 -4.679,-0.542 -6.784,-1.354c-0.337,-0.204 -0.475,-0.204 -0.812,-0.342c-0.883,-0.541 -1.763,-0.879 -2.442,-1.558c-0.408,-0.204 -0.541,-0.408 -0.883,-0.542c-0.542,-0.546 -0.879,-0.883 -1.421,-1.221c-0.883,-0.883 -1.562,-1.966 -2.242,-2.983c-0.541,-0.679 -0.879,-1.562 -1.22,-2.242c-0.542,-1.22 -0.88,-2.437 -1.221,-3.658c-0.2,-1.021 -0.338,-2.104 -0.338,-3.258l0,-0.204c0,-4 1.425,-7.592 3.663,-10.58c0.679,-0.879 1.358,-1.762 2.237,-2.441c0.542,-0.542 1.221,-0.879 1.696,-1.354c2.779,-1.967 6.104,-2.984 9.767,-2.984Zm-295.142,121.525c-28.683,0 -52.083,23.4 -52.083,52.084l-0,520.833c-0,28.687 23.4,52.083 52.083,52.083l1006.95,0c28.687,0 52.083,-23.396 52.083,-52.083l0,-520.833c0,-28.684 -23.396,-52.084 -52.083,-52.084l-1006.95,0Zm0,34.725l1006.95,0c9.562,0 17.362,7.8 17.362,17.359l0,520.833c0,9.562 -7.8,17.362 -17.362,17.362l-1006.95,0c-9.558,0 -17.358,-7.8 -17.358,-17.362l-0,-520.833c-0,-9.559 7.8,-17.359 17.358,-17.359Zm243.058,52.084c-9.629,-0 -17.362,7.8 -17.362,17.358l-0,34.725c-0,9.562 7.733,17.358 17.362,17.358c9.63,0 17.359,-7.796 17.359,-17.358l-0,-34.725c-0,-9.558 -7.729,-17.358 -17.359,-17.358Zm86.805,-0c-9.63,-0 -17.363,7.8 -17.363,17.358l0,34.725c0,9.562 7.733,17.358 17.363,17.358c9.629,0 17.362,-7.796 17.362,-17.358l0,-34.725c0,-9.558 -7.733,-17.358 -17.362,-17.358Zm86.804,-0c-9.629,-0 -17.359,7.8 -17.359,17.358l0,34.725c0,6.646 3.863,12.204 9.292,15.121c-45.371,34.316 -75.279,92.571 -75.279,158.487c-0,65.921 29.908,124.175 75.279,158.492c-5.429,2.912 -9.292,8.475 -9.292,15.121l0,34.721c0,9.562 7.73,17.362 17.359,17.362c9.633,0 17.362,-7.8 17.362,-17.362l0,-34.18c16.209,8.209 33.704,13.767 52.084,15.805l-0,18.375c-0,9.562 7.733,17.362 17.362,17.362c9.629,0 17.358,-7.8 17.358,-17.362l0,-18.375c18.38,-2.038 35.875,-7.596 52.084,-15.805l-0,34.18c-0,9.562 7.733,17.362 17.362,17.362c9.629,0 17.363,-7.8 17.363,-17.362l-0,-34.721c-0,-6.646 -3.867,-12.209 -9.292,-15.121c45.371,-34.317 75.275,-92.571 75.275,-158.492c0,-65.916 -29.904,-124.171 -75.275,-158.487c5.425,-2.917 9.292,-8.475 9.292,-15.121l-0,-34.725c-0,-9.558 -7.734,-17.358 -17.363,-17.358c-9.629,-0 -17.362,7.8 -17.362,17.358l-0,34.183c-16.209,-8.208 -33.704,-13.766 -52.084,-15.804l0,-18.379c0,-9.558 -7.729,-17.358 -17.358,-17.358c-9.629,-0 -17.362,7.8 -17.362,17.358l-0,18.379c-18.38,2.038 -35.875,7.596 -52.084,15.804l0,-34.183c0,-9.558 -7.729,-17.358 -17.362,-17.358Zm260.416,-0c-9.629,-0 -17.358,7.8 -17.358,17.358l0,34.725c0,9.562 7.729,17.358 17.358,17.358c9.634,0 17.363,-7.796 17.363,-17.358l-0,-34.725c-0,-9.558 -7.729,-17.358 -17.363,-17.358Zm86.809,-0c-9.629,-0 -17.363,7.8 -17.363,17.358l0,34.725c0,9.562 7.734,17.358 17.363,17.358c9.629,0 17.358,-7.796 17.358,-17.358l0,-34.725c0,-9.558 -7.729,-17.358 -17.358,-17.358Zm-694.446,17.358c-9.629,-0 -17.363,7.8 -17.363,17.362c0,9.563 7.734,17.363 17.363,17.363l86.804,-0c9.633,-0 17.363,-7.8 17.363,-17.363c-0,-9.562 -7.73,-17.362 -17.363,-17.362l-86.804,-0Zm781.25,-0c-9.629,-0 -17.363,7.8 -17.363,17.362c0,9.563 7.734,17.363 17.363,17.363l86.804,-0c9.633,-0 17.363,-7.8 17.363,-17.363c-0,-9.562 -7.73,-17.362 -17.363,-17.362l-86.804,-0Zm-347.221,52.083c74.667,0 135.429,70.125 135.429,156.25c0,86.129 -60.762,156.25 -135.429,156.25c-74.667,0 -135.429,-70.121 -135.429,-156.25c-0,-86.125 60.762,-156.25 135.429,-156.25Zm-399.308,86.809c-38.317,-0 -69.442,31.129 -69.442,69.441c0,38.317 31.125,69.446 69.442,69.446c38.316,0 69.446,-31.129 69.446,-69.446c-0,-38.312 -31.13,-69.441 -69.446,-69.441Zm798.612,-0c-38.316,-0 -69.446,31.129 -69.446,69.441c0,38.317 31.13,69.446 69.446,69.446c38.317,0 69.446,-31.129 69.446,-69.446c0,-38.312 -31.129,-69.441 -69.446,-69.441Zm0,28.212c22.721,0 41.234,18.513 41.234,41.229c-0,22.721 -18.513,41.234 -41.234,41.234c-22.716,-0 -41.233,-18.513 -41.233,-41.234c-0,-22.716 18.517,-41.229 41.233,-41.229Zm-798.612,1.083c22.108,0 40.15,18.038 40.15,40.146c-0,22.109 -18.042,40.15 -40.15,40.15c-22.109,0 -40.146,-18.041 -40.146,-40.15c-0,-22.108 18.037,-40.146 40.146,-40.146Zm138.891,196.396c-9.629,0 -17.362,7.8 -17.362,17.363l-0,34.721c-0,9.562 7.733,17.362 17.362,17.362c9.63,0 17.359,-7.8 17.359,-17.362l-0,-34.721c-0,-9.563 -7.729,-17.363 -17.359,-17.363Zm86.805,0c-9.63,0 -17.363,7.8 -17.363,17.363l0,34.721c0,9.562 7.733,17.362 17.363,17.362c9.629,0 17.362,-7.8 17.362,-17.362l0,-34.721c0,-9.563 -7.733,-17.363 -17.362,-17.363Zm347.22,0c-9.629,0 -17.358,7.8 -17.358,17.363l0,34.721c0,9.562 7.729,17.362 17.358,17.362c9.634,0 17.363,-7.8 17.363,-17.362l-0,-34.721c-0,-9.563 -7.729,-17.363 -17.363,-17.363Zm86.809,0c-9.629,0 -17.363,7.8 -17.363,17.363l0,34.721c0,9.562 7.734,17.362 17.363,17.362c9.629,0 17.358,-7.8 17.358,-17.362l0,-34.721c0,-9.563 -7.729,-17.363 -17.358,-17.363Zm-694.446,17.363c-9.629,-0 -17.363,7.8 -17.363,17.362c0,9.563 7.734,17.359 17.363,17.359l86.804,-0c9.633,-0 17.363,-7.796 17.363,-17.359c-0,-9.562 -7.73,-17.362 -17.363,-17.362l-86.804,-0Zm781.25,-0c-9.629,-0 -17.363,7.8 -17.363,17.362c0,9.563 7.734,17.359 17.363,17.359l86.804,-0c9.633,-0 17.363,-7.796 17.363,-17.359c-0,-9.562 -7.73,-17.362 -17.363,-17.362l-86.804,-0Z" style="fill:#fc9c19;fill-rule:nonzero;"/></g><g><circle cx="3079.1" cy="2078.74" r="1280.82" style="fill:none;stroke:#f0f0f0;stroke-width:60.75px;"/><path d="M3064.72,1558.04c-49.642,-0 -99.283,18.854 -137.125,56.696c-75.617,75.616 -75.617,198.637 0,274.32l262.179,262.113c7.596,7.592 17.634,11.729 28.279,11.729c10.717,0 20.821,-4.137 28.417,-11.729l261.908,-262.113c75.617,-75.683 75.617,-198.704 0,-274.32c-75.616,-75.684 -198.637,-75.684 -274.32,-0l-16.071,16.075l-16.075,-16.075c-37.842,-37.842 -87.484,-56.696 -137.192,-56.696Zm306.533,34.654c40.759,-0 81.584,15.533 112.575,46.592c62.121,62.054 62.121,163.1 0,225.15l-261.975,262.25c-2.512,2.508 -4.954,2.508 -7.529,-0l-262.179,-262.25c-62.121,-62.05 -62.121,-163.096 0,-225.15c31.058,-31.059 71.817,-46.521 112.575,-46.521c40.825,-0 81.583,15.462 112.575,46.521l16.208,16.141l-3.795,3.729c-6.85,6.78 -6.85,17.767 -0,24.55c3.32,3.392 7.795,5.088 12.275,5.088c4.408,-0 8.883,-1.696 12.204,-5.088l3.8,-3.8l40.687,-40.62c30.996,-31.059 71.821,-46.592 112.579,-46.592Zm-210.029,102.067c-4.408,-0 -8.883,1.695 -12.275,5.087l-28.754,28.754c-6.783,6.779 -6.783,17.767 0,24.546c3.392,3.392 7.796,5.088 12.275,5.088c4.475,-0 8.883,-1.696 12.275,-5.088l28.754,-28.754c6.779,-6.779 6.779,-17.767 0,-24.546c-3.391,-3.392 -7.867,-5.087 -12.275,-5.087Zm-285.308,441.691c-10.509,-0.271 -21.021,0.204 -31.534,1.421l-205.416,24.146c-26.179,3.117 -45.979,25.362 -45.979,51.812l-0,219.725c-0,16.209 7.325,31.13 20.071,41.096c12.683,9.904 28.958,13.363 44.625,9.429l113.933,-28.416c29.025,-7.188 59.612,-3.596 86.125,10.375l218.508,115.087c22.788,12.004 47.742,17.971 72.767,17.971c24.687,0 49.371,-5.767 71.954,-17.496l369.804,-191.787c27.059,-14.038 43.879,-41.642 43.879,-72.292c0,-25.296 -11.529,-48.692 -31.537,-64.225c-20.004,-15.529 -45.638,-20.75 -70.121,-14.375l-232.817,60.354c-4.541,-13.562 -12.475,-25.971 -23.058,-35.804c-17.629,-16.412 -41.367,-24.821 -65.375,-23.058l-38.042,2.712c-14.92,1.084 -29.775,-1.696 -43.27,-8.071l-163.371,-77.108c-28.684,-13.496 -59.746,-20.821 -91.146,-21.496Zm-0.813,34.721c26.584,0.542 52.896,6.713 77.109,18.175l163.437,77.108c18.854,8.884 39.742,12.817 60.563,11.325l38.046,-2.712c14.579,-1.017 28.55,3.867 39.262,13.833c10.65,9.904 16.55,23.467 16.55,38.046l0,7.054c0,6.85 -4.004,13.088 -10.242,15.867l-51.27,22.992c-38.45,17.291 -82.938,18.241 -122.067,2.575l-87.554,-35.059c-8.95,-3.596 -19.054,0.813 -22.584,9.696c-3.591,8.883 0.746,18.988 9.7,22.517l87.55,35.129c47.879,19.125 102.267,17.971 149.267,-3.188l51.2,-22.991c18.65,-8.409 30.721,-27.059 30.721,-47.538l236.883,-61.512c14.109,-3.592 28.688,-0.609 40.15,8.275c11.529,8.883 18.104,22.312 18.104,36.962c0,17.425 -9.629,33.229 -25.091,41.229l-369.871,191.788c-35.267,18.312 -77.379,18.175 -112.575,-0.338l-218.509,-115.087c-22.65,-11.933 -47.608,-18.038 -72.766,-18.038c-12.684,0 -25.363,1.559 -37.842,4.68l-114,28.483c-5.221,1.354 -10.646,0.204 -14.854,-3.121c-4.271,-3.321 -6.713,-8.342 -6.713,-13.767l0,-219.725c0,-8.816 6.58,-16.279 15.325,-17.295l205.421,-24.142c8.884,-1.017 17.767,-1.425 26.65,-1.221Zm-195.312,46.454c-9.563,0 -17.363,7.8 -17.363,17.363c0,9.562 7.8,17.358 17.363,17.358l34.721,0c9.562,0 17.362,-7.796 17.362,-17.358c0,-9.563 -7.8,-17.363 -17.362,-17.363l-34.721,0Zm-0,86.804c-9.563,0 -17.363,7.8 -17.363,17.363c0,9.562 7.8,17.362 17.363,17.362l34.721,0c9.562,0 17.362,-7.8 17.362,-17.362c0,-9.563 -7.8,-17.363 -17.362,-17.363l-34.721,0Zm-0,86.809c-9.563,-0 -17.363,7.8 -17.363,17.358c0,9.563 7.8,17.363 17.363,17.363l34.721,-0c9.562,-0 17.362,-7.8 17.362,-17.363c0,-9.558 -7.8,-17.358 -17.362,-17.358l-34.721,-0Z" style="fill:#f0f0f0;fill-rule:nonzero;"/></g><g><circle cx="4850" cy="3100.29" r="1280.82" style="fill:none;stroke:#f0f0f0;stroke-width:60.75px;"/><path d="M5165.29,2614.59c-1.938,0.191 -3.842,0.591 -5.696,1.187c-7.425,2.388 -13.854,7.896 -16.65,15.567l-0,0.033c-4.442,12.288 -11.871,23.675 -19.059,38.588c-7.183,14.908 -13.495,33.496 -13.495,57.441c-0,25.992 9.012,45.442 21.229,57.542c-108.979,33.379 -200.7,74.133 -277.338,119.629c5.042,-17.108 9.146,-39.037 11.292,-65.037c26.242,-1.067 51.433,-7.934 71.104,-23.871c21.429,-17.358 34.692,-45.288 34.692,-80.263c-0,-14.325 -2.821,-26.212 -5.054,-33.604c-3.375,-11.179 -14.6,-19.071 -26.28,-18.408l-0.033,-0c-10.242,0.587 -29.229,1.912 -48.287,8.95c-6.75,-12.954 -16.092,-23.629 -26.042,-31.771c-19.217,-15.733 -40.525,-23.779 -53.642,-27.842c-15.479,-4.787 -32.2,6.292 -33.775,22.417c-1.083,11.138 -4.121,18.817 -7.762,30.313c-3.642,11.495 -7.325,26.22 -7.325,46.829c-0,1.525 0.237,2.916 0.304,4.404c-33.058,4.421 -54.646,25.358 -63.342,35.404c-6.583,7.604 -8.196,18.896 -4,28.042c3.625,7.925 10.967,21.554 24.346,33.908c13.4,12.367 33.588,23.192 59.408,23.192c20.605,-0 36.555,-5.125 49.405,-11.734c-3.213,28.284 -8.342,51.575 -14.005,65.988c-7.537,19.2 -13.358,25.737 -13.358,25.737c-0.387,0.467 -0.75,0.955 -1.087,1.459c-20.225,13.866 -39.259,28.096 -57.1,42.587c-4.221,-31.004 -14.163,-50.55 -21.667,-60.966c-3.971,-5.521 -10.167,-9.125 -16.821,-10.309c-6.65,-1.183 -13.754,0.063 -19.529,4.271c-12.629,9.217 -37.308,30.692 -51.204,65.071c-2.075,-1.125 -4.146,-2.271 -6.238,-3.221c-23.904,-10.858 -49.166,-13.667 -63,-14.65l-0.037,0c-14.804,-1.021 -27.771,11.371 -27.771,26.008l0,30.08c0,37.716 10.188,65.141 30.483,81.141c13.175,10.384 28.85,14.971 45.642,17.125c-30.054,40.942 -80.467,119.921 -106.471,221.013c-17.146,66.612 -21.737,128.971 -21.737,232.204l-0,0.246c-0,9.525 7.837,17.362 17.362,17.362c9.525,0 17.363,-7.837 17.363,-17.362l-0,-0.246c-0,-28.338 0.483,-52.792 1.32,-75.408c0.205,-0.3 0.396,-0.609 0.575,-0.917c0,-0 13.809,-22.879 49.984,-47.508c27.662,-18.834 67.929,-37.88 124.037,-45.842c0.929,6.5 2.704,14.662 6.409,24.517c9.054,24.083 29.662,52.67 67.987,61.17c17.279,3.825 34.313,9.342 44.963,13.088l-0,-0.033c17.25,6.087 35.366,-9.071 34.55,-26.384l-0,-0.033c-1.313,-27.688 -7.267,-50.358 -18.342,-67.679c26.592,4.379 55.767,8.779 96.5,8.779c43.229,-0 73.404,-8.975 96.537,-17.971c0.95,9 3.25,22.142 12.071,38.25c13.346,24.35 42.959,49.167 92.234,49.167l59.408,-0c16.333,-0 29.571,-16.142 25.396,-32.384c-4.263,-16.591 -13.688,-47.304 -35.263,-72.191c15.834,-19.054 23.188,-39.513 31.229,-50.692l-0.033,0c9.588,-13.308 3.188,-33.404 -11.871,-39.162l-0.033,-0c-14.65,-5.567 -40.508,-13.905 -69.275,-13.905c-3.833,0 -7.313,0.455 -10.917,0.746c-14.766,-32.704 -41.733,-54.612 -56.866,-65.408c-6.78,-4.829 -15.196,-5.571 -22.617,-3.188c-7.421,2.384 -13.854,7.892 -16.65,15.563c-0.008,0.012 -0.021,0.025 -0.033,0.033c-4.45,12.292 -11.834,23.679 -19.021,38.592c-7.188,14.908 -13.529,33.496 -13.529,57.437c-0,20.555 5.72,36.88 14.104,48.863c-19.113,6.125 -43.934,11.529 -74.871,11.529c-40.925,0 -69.75,-4.996 -98.029,-9.662c1.516,-1.217 3.016,-2.459 4.341,-3.8c17.713,-17.909 26.359,-39.621 31.771,-57.034c5.154,-16.533 -8.291,-33.671 -25.125,-33.671l-52.454,0c-24.987,0 -49.537,6.325 -67.512,23.942c-15.463,15.15 -23.692,38.138 -25.838,66.729c-63.479,8.434 -110.487,29.925 -142.792,51.917c-10.787,7.342 -19.862,14.746 -27.633,21.767c3.167,-33.342 8.167,-62.555 15.938,-92.738c30.245,-117.596 93.833,-201.646 114.1,-226.508c13.637,7.391 35,16.004 64.154,16.004c53.496,-0 82.3,-34.188 92.708,-52.017c7.425,-12.704 2.438,-29.887 -11.158,-36.316l-0.067,-0c-12.346,-5.8 -27.042,-19.584 -48.183,-27.43c23.046,-19.625 48.175,-38.854 75.75,-57.441c16.65,0.729 68.158,4.004 118.241,18.887c-14.312,12.2 -26.891,32.846 -26.891,61.609c-0,44.02 19.537,72.05 32.046,84.875c10.787,11.041 30.141,9.195 39.229,-2.375c8.3,-10.575 20.65,-21.546 31.3,-35.296c8.054,5.412 17.258,9.775 27.971,12.375c18.779,4.55 32.908,9.854 41.641,13.629c0.013,0.012 0.021,0.025 0.034,0.037c16.958,7.3 36.495,-6.995 36.112,-24.82l0,-0.038c-0.975,-41.208 -5.792,-72.729 -23.058,-95.958c26.812,-25.504 36.654,-50.304 39.808,-64.529l0,-0.034c2.933,-13.312 -5.617,-27.696 -19.258,-30.991c-11.142,-2.696 -31.321,-7.225 -50.354,-7.225c-39.417,-0 -64.675,21.683 -76.7,42.216c-7.038,12.021 -7.68,18.225 -8.613,24.584c-37.246,-16.088 -79.046,-24.134 -111.967,-28.109c74.309,-43.666 163.596,-82.958 270.588,-115.154c1.867,8.158 4.637,17.483 9.971,27.263c13.271,24.345 42.775,49.2 91.858,49.2c34.617,-0 59.6,-9.788 71.579,-15.734l0.034,-0.033c10.912,-5.408 16.812,-18.704 13.429,-30.417c-3.717,-12.887 -12.846,-39.183 -33.671,-61c1.608,-1.958 3.279,-3.883 4.746,-5.933c17.721,-24.775 26.558,-55.083 29.771,-83.042l-0.034,0.034c2.075,-17.705 -15.441,-33.93 -33.329,-28.45c-21.4,6.591 -43.962,8.041 -65.817,11.937c-15.22,-29.933 -40.158,-50.129 -54.491,-60.358l-0.034,-0c-5.087,-3.621 -11.104,-4.942 -16.92,-4.375Zm4.85,39.846c10.3,8.354 21.016,20.516 30.245,35.466c-4.125,1.888 -8.183,3.988 -12.141,6.513c-0.059,0.033 -0.146,0.062 -0.204,0.1c-1.059,0.679 -1.913,1.408 -2.913,2.1c-1.625,1.133 -3.287,2.237 -4.783,3.425c-11.042,8.608 -17.859,17.937 -22.65,27.096c-1.367,2.462 -2.579,4.816 -3.663,7.22c-0.221,0.546 -0.471,1.088 -0.679,1.63c-1.725,4.029 -3.146,7.812 -4.204,11.425c-2.317,-5.296 -4.033,-11.917 -4.033,-22.005c-0,-18.191 4.141,-30.054 10.07,-42.354c4.338,-9 9.838,-19.708 14.955,-30.616Zm-360.175,15.662c10.366,3.821 22.633,8.267 33.704,17.329c10.104,8.271 18.083,18.029 21.633,31.263c0.079,0.512 0.179,1.021 0.304,1.525c1.1,4.425 1.729,9.091 1.729,14.279c0,21.65 -5.383,37.304 -11.425,48.454c-3.612,6.054 -7.345,10.804 -10.308,13.663c-3.354,-1.405 -7.042,-3.063 -11.496,-5.663c-8.108,-5.267 -16.9,-12.308 -23.871,-21.733c-0.408,-0.554 -0.862,-1.059 -1.254,-1.629c-3.841,-5.521 -7,-11.705 -8.887,-18.617c-0.063,-0.213 -0.129,-0.429 -0.2,-0.642c-1.246,-4.912 -2.004,-10.212 -2.004,-16.037c-0,-16.775 2.491,-26.229 5.7,-36.35c2.212,-6.996 4.329,-16.567 6.375,-25.842Zm488.82,33.4c-3.675,19.871 -10.1,40.054 -20.887,55.138c-3.304,4.62 -6.817,8.77 -10.646,12.408c-0.712,0.45 -1.396,0.946 -2.033,1.492c-8.125,7.012 -17.204,11.87 -28.417,14.004c-0.496,0.091 -0.987,0.191 -1.492,0.271c-3.658,0.608 -7.508,0.983 -11.666,0.983c-6.038,-0 -11.029,-0.475 -15.425,-1.183c-2.446,-0.409 -4.342,-1.03 -6.342,-1.596c-1.45,-0.4 -3.062,-0.754 -4.308,-1.221c-2.3,-0.879 -4.242,-1.804 -5.934,-2.813c-0.395,-0.237 -0.854,-0.475 -1.22,-0.712c-1.825,-1.196 -3.371,-2.429 -4.613,-3.596c-0.421,-0.396 -0.862,-0.767 -1.321,-1.117c-3.65,-3.85 -4.095,-5.608 -4.204,-6.208l0,-0.033c0.017,-0.863 0.088,-2.988 0.575,-5.934l0,-0.033c0.742,-4.45 2.45,-10.787 6.342,-17.529l-0,-0.038c2.6,-4.491 6.196,-9.158 11.121,-13.595c2.471,-2.225 5.283,-4.396 8.479,-6.442c2.592,-1.663 5.729,-3.05 9.054,-4.375c1.758,-0.679 3.617,-1.333 5.558,-1.933c0.892,-0.284 1.855,-0.542 2.784,-0.813c19.046,-5.354 45.583,-7.954 74.596,-15.125Zm-364.48,16.479c1.034,4.804 2.338,9.125 2.338,15.429c-0,26.817 -8.488,42.484 -21.804,53.271c-7.971,6.459 -18.834,10.413 -30.788,13.088c4.646,-7.971 8.946,-17.388 12.242,-28.484c0.171,-0.554 0.275,-1.2 0.442,-1.762c1.475,-5.217 2.887,-10.529 3.762,-16.413c0.017,-0.104 0.017,-0.229 0.033,-0.337c0.938,-6.396 1.525,-13.108 1.525,-20.275c0,-2.158 -0.262,-4.188 -0.404,-6.275c11.179,-4.275 22.946,-7.196 32.654,-8.242Zm-162.695,51.609c7.991,17.808 20.483,31.529 32.52,41.033c1.954,1.542 3.825,2.6 5.763,3.967c-7.654,3.316 -17.109,5.933 -30.008,5.933c-16.576,-0 -27.376,-6.125 -35.876,-13.971c-6.645,-6.133 -9.845,-12.479 -12.749,-17.871c7.541,-7.575 21.079,-17.458 40.35,-19.091Zm502.22,37.133c12.542,12.975 20.729,27.904 24.717,39.196c-10.163,4.216 -25.633,9.325 -48.521,9.325c-38.471,-0 -52.758,-15.292 -61.375,-31.092c-2.871,-5.271 -1.642,-5.896 -2.95,-10.617c1.333,0.509 2.979,0.817 4.375,1.292c3.033,1.108 6.325,1.996 9.767,2.813c1.8,0.42 3.512,0.92 5.425,1.254c1.508,0.262 3.054,0.479 4.646,0.679c4.316,0.554 8.804,0.95 13.729,0.95c19.1,-0 35.896,-5.288 50.187,-13.8Zm-198.941,117.967c9.875,-0 21.829,2.62 32.112,4.745c-3.496,10.025 -11.204,23.95 -30.012,40.896c-14.584,-7.037 -32.188,-10.441 -52.184,-10.783c1.217,-4.017 0.509,-4.938 3.359,-9.8c7.67,-13.1 18.883,-25.058 46.725,-25.058Zm-376.555,23.295c5.609,10.375 12.155,27.309 12.58,59.442c-2.28,2.063 -4.575,4.129 -6.813,6.204c-11.283,2.609 -21.058,7.55 -29.367,13.734c-2.008,-9.321 -5.95,-17.513 -11.054,-24.688c7.321,-26.792 22.75,-44.496 34.654,-54.692Zm310.909,46.146l12.241,0c6.617,0.004 12.134,0.446 17.359,1.021c3.021,0.358 5.716,0.842 8.341,1.388c1.805,0.362 3.563,0.766 5.188,1.22c6.717,1.9 12.187,4.43 16.412,7.596c0.221,0.163 0.45,0.321 0.68,0.475c2.708,2.2 5.133,4.659 7.254,7.496c8.416,11.25 13.191,33.333 15.058,63.883c-9.642,-3.662 -18.758,-7.45 -33.637,-11.054c-10.821,-2.625 -19.134,-7.9 -25.805,-14.65c-0.408,-0.566 -0.85,-1.112 -1.325,-1.629c-13.72,-15.012 -18.758,-34.608 -21.291,-50.079c-0.121,-1.808 -0.271,-3.521 -0.475,-5.667Zm-437.046,2.104c12.254,1.396 27.658,3.113 41.708,9.496c6.809,3.092 12.2,6.584 16.679,10.613c0.355,0.437 0.73,0.854 1.121,1.254c4.684,4.704 7.804,9.554 9.154,16.142c0.042,0.208 0.1,0.395 0.138,0.608c0.412,2.237 0.642,4.65 0.642,7.358c-0,6.129 -0.325,11.254 -0.846,15.734c-0.067,0.604 -0.196,1.05 -0.271,1.629c-0.525,3.941 -1.146,7.504 -1.9,10.441c-1.158,4.434 -2.454,7.863 -3.558,9.971c-19.93,-0.796 -36.796,-3.091 -45.609,-10.037c-10.083,-7.946 -17.258,-21.929 -17.258,-53.879l-0,-19.33Zm402.083,5.8c0.017,0.109 0.054,0.23 0.071,0.338c0.754,6.879 2.304,15.396 6.171,27.058c3.471,10.471 8.583,21.729 15.733,32.213c-6.333,9.029 -15.5,19.366 -25.637,30.958c-7.692,-9.996 -16.479,-25.162 -16.479,-52.287c-0,-20.575 7.266,-29.717 15.633,-36.28c1.7,-1.333 2.717,-0.975 4.508,-2Zm-253.025,44.18c-0.05,-0 1.017,0.166 3.934,0.375c0.533,0.037 1.062,0.045 1.595,0.033l0.138,-0c17.587,2.037 30.687,13.133 48.896,23.633c-8.621,12.209 -23.646,28.042 -56.8,28.042c-24.213,-0 -37.813,-5.775 -46.621,-10.85c1.329,-3.488 2.433,-6.458 4.271,-10.071c1.371,-2.383 2.571,-4.737 4.237,-7.121c1.784,-2.554 3.729,-4.971 5.767,-7.287c1.012,-1.138 2.104,-2.167 3.187,-3.221c1.484,-1.467 3.042,-2.825 4.68,-4.104c1.133,-0.896 2.233,-1.863 3.425,-2.646c1.925,-1.267 3.979,-2.313 6.104,-3.254c0.554,-0.242 1.121,-0.463 1.691,-0.679c1.588,-0.617 3.263,-1.105 4.988,-1.525c0.146,-0.038 0.292,-0.067 0.437,-0.105c0.013,0 0.025,0.005 0.038,0c1.987,0.059 3.971,-0.229 5.867,-0.845c1.391,-0.125 2.679,-0.375 4.166,-0.375Zm-249.733,80.737l-0.142,0c-9.525,0 -17.362,7.838 -17.362,17.363c-0,6.458 3.604,12.404 9.333,15.391l30.583,16.484c2.68,1.583 5.738,2.42 8.85,2.42c9.525,0 17.363,-7.837 17.363,-17.362c-0,-6.633 -3.8,-12.708 -9.767,-15.613l-30.55,-16.479c-2.541,-1.421 -5.4,-2.175 -8.308,-2.204Zm-37.471,79.413c-9.487,0.05 -17.267,7.875 -17.267,17.362c0,7.171 4.438,13.638 11.13,16.208l32.216,12.921c2.2,0.967 4.579,1.467 6.988,1.467c9.525,-0 17.362,-7.838 17.362,-17.363c0,-7.287 -4.587,-13.829 -11.433,-16.32l-32.213,-12.917c-2.145,-0.904 -4.454,-1.363 -6.783,-1.358Zm614.525,36.42c10.954,8.9 22.442,22.15 31.738,38.417c-4.421,1.867 -8.467,3.888 -12.105,6.071c-0.091,0.05 -0.22,0.083 -0.308,0.133l0,0.034c-2.762,1.67 -5.333,3.433 -7.762,5.258c-11.067,8.142 -18.03,17.1 -23.025,25.937c-1.438,2.425 -2.788,4.75 -3.934,7.121c-0.241,0.546 -0.483,1.088 -0.712,1.629c-1.796,3.913 -3.284,7.592 -4.409,11.121c-2.541,-5.391 -4.475,-12.158 -4.475,-22.821c0,-18.191 4.142,-30.054 10.071,-42.35c4.329,-8.983 9.813,-19.675 14.921,-30.55Zm-642.667,47.096c-9.3,0.317 -16.779,8.05 -16.779,17.354c0,7.967 5.484,14.959 13.217,16.863l33.604,8.746c1.425,0.371 2.888,0.554 4.358,0.554c9.53,-0 17.375,-7.842 17.375,-17.371c0,-7.892 -5.379,-14.842 -13.016,-16.821l-33.604,-8.712c-1.68,-0.463 -3.417,-0.667 -5.155,-0.613Zm382.692,16.75l38.246,0c-4.45,11.192 -8.571,22.888 -17.158,31.571c-11.675,11.804 -27.755,20.513 -56.525,20.513l-22.346,-0c2.466,-17.667 7.233,-30.875 14.55,-38.042c9.708,-9.517 23.912,-14.042 43.233,-14.042Zm339.896,0c17.637,0 33.183,5.204 46.083,9.429c-7.929,13.567 -14.65,27.75 -22.991,37.705c-2.35,2.808 -4.913,5.354 -7.663,7.766c-0.287,0.196 -0.571,0.4 -0.85,0.609c-7.375,5.95 -16.683,10.704 -31.092,12.783c-0.433,0.062 -0.879,0.117 -1.32,0.171c-4.73,0.616 -9.921,0.983 -15.838,0.983c-4.487,0 -8.262,-0.442 -11.629,-1.117c-1.521,-0.312 -2.708,-0.804 -4.038,-1.22c-1.591,-0.5 -3.27,-0.971 -4.608,-1.596c-1.221,-0.563 -2.208,-1.229 -3.258,-1.863c-1.213,-0.754 -2.484,-1.487 -3.492,-2.308c-0.454,-0.358 -0.871,-0.688 -1.287,-1.05c-1.43,-1.288 -2.755,-2.608 -3.867,-3.9c-0.013,-0.013 -0.021,-0.021 -0.033,-0.033c-2.542,-2.959 -2.996,-4.221 -3.63,-5.53c0.092,-3.02 0.68,-12.025 7.259,-22.07l0.033,-0.038c3.963,-6.037 10.083,-12.442 19.563,-18.175c5.108,-3.075 13.52,-6.508 23.841,-8.542c0.179,-0.045 0.359,-0.087 0.542,-0.137c5.575,-1.075 11.542,-1.867 18.275,-1.867Zm-739.746,69.513c-9.167,0.483 -16.45,8.158 -16.45,17.341c0,8.775 6.65,16.238 15.367,17.246l34.416,4.579c0.859,0.13 1.725,0.196 2.596,0.196c9.525,0 17.363,-7.837 17.363,-17.362c-0,-8.784 -6.659,-16.25 -15.384,-17.25l-34.45,-4.579c-1.145,-0.171 -2.304,-0.23 -3.458,-0.171Zm343.325,18.821c26.333,1.587 47.15,5.258 58.592,13.225c12.458,8.67 19.325,24.691 22.412,51.2c-10.612,-3.455 -21.221,-7.155 -35.162,-10.238c-25.496,-5.654 -36.425,-22.083 -42.963,-39.471c-2.875,-7.654 -1.987,-8.837 -2.879,-14.716Zm417.75,3.491c12.771,14.613 21.408,32.246 26.213,47.067l-47.1,-0c-38.713,-0 -53.125,-15.333 -61.784,-31.129c-2.525,-4.609 -1.979,-5.896 -2.712,-9.325c8.691,3.383 18.704,5.729 30.383,5.729c22.417,-0 40.488,-4.85 55,-12.342Zm-768.096,64.734c-9.158,0.491 -16.433,8.162 -16.433,17.337c-0,9.275 7.437,17 16.708,17.35l34.688,1.458c0.354,0.021 0.712,0.034 1.071,0.034c9.525,-0 17.362,-7.838 17.362,-17.363c0,-9.379 -7.6,-17.15 -16.975,-17.358l-34.687,-1.458c-0.58,-0.03 -1.155,-0.03 -1.734,-0Zm-0.508,86.5c-0.079,-0 -0.163,-0.005 -0.246,-0.005c-9.525,0 -17.362,7.838 -17.362,17.363c-0,9.525 7.837,17.367 17.362,17.367c0.083,-0 0.167,-0.005 0.246,-0.005l34.725,0c0.079,0 0.162,0.005 0.246,0.005c9.525,-0 17.362,-7.842 17.362,-17.367c0,-9.525 -7.837,-17.363 -17.362,-17.363c-0.084,0 -0.167,0.005 -0.246,0.005l-34.725,-0Z" style="fill:#f0f0f0;fill-rule:nonzero;"/></g><g><circle cx="4850" cy="5143.41" r="1280.82" style="fill:none;stroke:#f0f0f0;stroke-width:60.75px;"/><path d="M4537.5,4587.85c-19.121,0 -34.721,15.596 -34.721,34.721l0,208.334c0,19.125 15.6,34.72 34.721,34.72l55.542,0c0.137,6.309 -0.88,15.871 -5.425,29.096c-2.1,6.1 -0.609,12.817 3.8,17.563c3.321,3.525 7.933,5.425 12.612,5.425c1.563,-0 3.121,-0.204 4.613,-0.609c49.708,-13.7 74.87,-38.112 85.45,-51.475l86.466,0l0,34.725c0,19.121 15.596,34.721 34.721,34.721l189.821,0c10.238,14.988 34.925,41.709 84.5,51.746c1.15,0.271 2.304,0.338 3.458,0.338c5.084,-0 10.038,-2.238 13.359,-6.242c4.07,-4.95 5.154,-11.663 2.712,-17.629c-5.696,-14.109 -5.9,-23.196 -5.221,-28.213l58.592,0c19.125,0 34.725,-15.529 34.725,-34.721l-0,-208.333c-0,-19.125 -15.6,-34.725 -34.725,-34.725l-208.333,0l-0,-34.721c-0,-19.125 -15.596,-34.721 -34.721,-34.721l-381.946,0Zm-0,34.721l381.946,0l-0,208.334l-234.375,-0c-6.309,-0 -12.209,3.662 -15.259,9.154c-0.541,0.883 -10.783,18.65 -42.25,33.366c1.425,-20.345 -4.07,-31.333 -5.695,-33.975c-3.121,-5.291 -8.75,-8.545 -14.921,-8.545l-69.446,-0l-0,-208.334Zm416.667,69.446l208.333,0l-0,208.333l-69.442,0c-4.475,0 -8.75,1.692 -11.937,4.813c-1.829,1.696 -13.496,13.833 -12.004,38.858c-28.617,-13.087 -37.842,-32.346 -38.246,-33.162c-2.713,-6.375 -9.021,-10.509 -15.938,-10.509l-199.654,0l0,-34.725l104.167,0c19.125,0 34.721,-15.595 34.721,-34.72l-0,-138.888Zm-304.021,311.954c-25.159,0 -61.917,7.325 -86.604,23.329c-44.759,2.513 -76.496,35.334 -81.446,85.113c-3.054,30.312 -0.138,52.829 1.558,66.254c0.542,4.138 1.154,9.225 1.154,10.379c-0.204,0.813 -0.337,1.559 -0.475,2.371c-0.475,0.138 -0.95,0.204 -1.425,0.342c-22.716,6.104 -32.279,36.416 -22.716,72.087c6.441,23.942 19.395,41.842 34.383,48.763c8.342,24.55 20.479,48.283 35.467,69.512l-195.992,126.679c-24.821,16.075 -39.604,43.338 -39.604,72.905l-0,68.562c-0,26.854 21.837,48.692 48.691,48.692l1012.23,-0c26.925,-0 48.762,-21.838 48.762,-48.759l0,-68.495c0,-29.567 -14.854,-56.83 -39.675,-72.905l-183.308,-118.541c17.296,-22.517 31.742,-49.371 41.3,-77.721c14.987,-6.917 27.942,-24.75 34.383,-48.692c9.563,-35.737 0,-66.054 -22.716,-72.158c-0.409,-0.067 -0.95,-0.2 -1.425,-0.271c-1.492,-9.017 -3.796,-17.833 -7.255,-28.212c1.692,0.475 3.388,1.087 4.88,1.695c5.97,2.513 12.887,1.492 17.837,-2.641c4.95,-4.138 7.188,-10.717 5.833,-17.025c-19.329,-88.5 -84.975,-141.263 -175.579,-141.263l-11.596,0c-25.158,0 -61.916,7.325 -86.604,23.329c-44.758,2.442 -76.496,35.334 -81.446,85.113c-3.054,30.312 -0.137,52.829 1.559,66.254c0.541,4.138 1.154,9.225 1.154,10.308c-0.204,0.817 -0.338,1.63 -0.475,2.442c-0.475,0.071 -0.95,0.204 -1.425,0.342c-22.717,6.104 -32.279,36.416 -22.717,72.087c6.442,23.942 19.396,41.842 34.384,48.763c8.341,24.55 20.479,48.216 35.466,69.441l-97.454,63.071l-84.771,-54.862c17.296,-22.517 31.742,-49.371 41.3,-77.65c14.988,-6.921 27.942,-24.821 34.384,-48.763c9.562,-35.737 -0,-66.054 -22.717,-72.158c-0.408,-0.067 -0.95,-0.2 -1.425,-0.271c-1.492,-9.017 -3.796,-17.833 -7.254,-28.212c1.691,0.545 3.387,1.087 4.879,1.695c5.971,2.513 12.887,1.492 17.837,-2.641c4.95,-4.138 7.188,-10.717 5.834,-17.025c-19.329,-88.434 -84.975,-141.263 -175.579,-141.263l-11.596,0Zm-0,34.725l11.596,0c64.766,0 112.304,31.6 133.87,87.821c-6.508,0.475 -12.75,2.579 -17.766,7.325c-4.613,4.475 -11.396,14.65 -4.679,32.825c6.916,18.85 9.358,29.904 10.104,45.571c0.271,6.171 4.408,11.462 9.966,14.242c4.342,2.304 9.834,2.375 14.446,0.541c1.425,4.75 2.442,14.513 -1.083,27.804c-4.679,17.43 -13.092,25.434 -14.583,26.113c-7.663,-0 -14.442,5.083 -16.613,12.475c-12.683,42.796 -37.979,82.333 -67.546,105.662c-7.529,5.967 -8.75,16.817 -2.85,24.346c3.392,4.338 8.479,6.646 13.634,6.646c3.795,0 7.595,-1.221 10.712,-3.729c3.933,-3.121 7.8,-6.513 11.6,-10.038l76.358,49.438l-30.516,19.733c-8,5.225 -10.309,15.938 -5.154,24.009c3.325,5.154 8.954,7.933 14.65,7.933c3.187,-0 6.508,-0.879 9.425,-2.779l163.575,-105.929l7.187,7.325c6.783,6.845 17.771,6.845 24.617,0.133c6.783,-6.779 6.85,-17.767 0.071,-24.55l-16.346,-16.479c-18.988,-22.717 -34.313,-51.742 -43.267,-81.721c-2.171,-7.392 -8.071,-12.342 -15.733,-12.342c-2.375,-0.812 -10.784,-8.883 -15.396,-26.246c-3.592,-13.22 -2.575,-22.854 -1.221,-27.6c4.75,2.105 10.308,2.034 15.125,-0.337c5.492,-2.85 9.088,-8.479 9.425,-14.65c0.204,-5.833 0.883,-11.596 1.9,-17.225c1.017,-5.833 0.204,-12.071 -0.95,-20.683c-1.625,-12.817 -4.067,-32.08 -1.425,-58.525c3.392,-34.25 22.517,-53.917 52.558,-53.917c3.734,-0 7.392,-1.221 10.38,-3.458c14.783,-11.055 45.775,-19.734 70.595,-19.734l11.596,0c64.696,0 112.304,31.6 133.804,87.821c-6.512,0.475 -12.75,2.579 -17.7,7.325c-4.679,4.475 -11.462,14.65 -4.75,32.825c6.921,18.85 9.43,29.904 10.109,45.571c0.271,6.171 4.404,11.462 9.966,14.308c4.409,2.238 9.834,2.375 14.513,0.546c1.425,4.746 2.442,14.442 -1.083,27.733c-4.68,17.43 -13.092,25.434 -14.584,26.113c-7.662,-0 -14.441,5.083 -16.612,12.475c-12.75,42.796 -37.979,82.333 -67.546,105.662c-7.529,5.967 -8.817,16.884 -2.917,24.413c3.459,4.342 8.546,6.579 13.7,6.579c3.729,0 7.525,-1.221 10.713,-3.729c3.933,-3.121 7.8,-6.446 11.6,-9.971l187.916,121.596c14.921,9.629 23.805,25.975 23.805,43.742l-0,68.495l0.07,0c0,7.73 -6.308,14.038 -14.041,14.038l-1012.23,-0c-7.662,-0 -13.97,-6.308 -13.97,-14.038l-0,-68.495c-0,-17.767 8.887,-34.113 23.804,-43.742l199.721,-129.258l7.191,7.325c6.779,6.845 17.767,6.845 24.546,0.133c6.85,-6.779 6.921,-17.767 0.138,-24.55l-16.413,-16.479c-18.921,-22.717 -34.312,-51.813 -43.2,-81.788c-2.237,-7.391 -8.071,-12.275 -15.733,-12.275c-2.442,-0.812 -10.784,-8.883 -15.463,-26.246c-3.525,-13.22 -2.575,-22.854 -1.221,-27.6c4.817,2.105 10.38,2.034 15.125,-0.408c5.563,-2.846 9.155,-8.408 9.425,-14.579c0.271,-5.833 0.884,-11.596 1.9,-17.225c1.017,-5.833 0.205,-12.071 -0.883,-20.683c-1.625,-12.817 -4.067,-32.08 -1.492,-58.525c3.459,-34.25 22.517,-53.917 52.559,-53.917c3.733,-0 7.462,-1.221 10.446,-3.458c14.783,-11.121 45.775,-19.734 70.529,-19.734Zm-234.171,521.375c-9.563,0 -17.363,7.8 -17.363,17.363l0,34.721c0,9.562 7.8,17.362 17.363,17.362c9.562,0 17.358,-7.8 17.358,-17.362l0,-34.721c0,-9.563 -7.796,-17.363 -17.358,-17.363Zm86.804,0c-9.562,0 -17.362,7.8 -17.362,17.363l-0,34.721c-0,9.562 7.8,17.362 17.362,17.362c9.563,0 17.363,-7.8 17.363,-17.362l-0,-34.721c-0,-9.563 -7.8,-17.363 -17.363,-17.363Zm86.804,0c-9.562,0 -17.358,7.8 -17.358,17.363l-0,34.721c-0,9.562 7.796,17.362 17.358,17.362c9.563,0 17.363,-7.8 17.363,-17.362l-0,-34.721c-0,-9.563 -7.8,-17.363 -17.363,-17.363Zm86.809,0c-9.563,0 -17.363,7.8 -17.363,17.363l0,34.721c0,9.562 7.8,17.362 17.363,17.362c9.562,0 17.358,-7.8 17.358,-17.362l-0,-34.721c-0,-9.563 -7.796,-17.363 -17.358,-17.363Zm86.804,0c-9.563,0 -17.363,7.8 -17.363,17.363l0,34.721c0,9.562 7.8,17.362 17.363,17.362c9.562,0 17.362,-7.8 17.362,-17.362l0,-34.721c0,-9.563 -7.8,-17.363 -17.362,-17.363Zm86.804,0c-9.563,0 -17.358,7.8 -17.358,17.363l-0,34.721c-0,9.562 7.795,17.362 17.358,17.362c9.562,0 17.362,-7.8 17.362,-17.362l0,-34.721c0,-9.563 -7.8,-17.363 -17.362,-17.363Zm86.808,0c-9.562,0 -17.362,7.8 -17.362,17.363l-0,34.721c-0,9.562 7.8,17.362 17.362,17.362c9.563,0 17.359,-7.8 17.359,-17.362l-0,-34.721c-0,-9.563 -7.796,-17.363 -17.359,-17.363Zm86.804,0c-9.562,0 -17.362,7.8 -17.362,17.363l-0,34.721c-0,9.562 7.8,17.362 17.362,17.362c9.563,0 17.363,-7.8 17.363,-17.362l-0,-34.721c-0,-9.563 -7.8,-17.363 -17.363,-17.363Zm86.805,0c-9.563,0 -17.359,7.8 -17.359,17.363l0,34.721c0,9.562 7.796,17.362 17.359,17.362c9.562,0 17.362,-7.8 17.362,-17.362l0,-34.721c0,-9.563 -7.8,-17.363 -17.362,-17.363Zm86.808,0c-9.563,0 -17.363,7.8 -17.363,17.363l0,34.721c0,9.562 7.8,17.362 17.363,17.362c9.562,0 17.358,-7.8 17.358,-17.362l0,-34.721c0,-9.563 -7.796,-17.363 -17.358,-17.363Zm86.804,0c-9.562,0 -17.362,7.8 -17.362,17.363l-0,34.721c-0,9.562 7.8,17.362 17.362,17.362c9.563,0 17.363,-7.8 17.363,-17.362l-0,-34.721c-0,-9.563 -7.8,-17.363 -17.363,-17.363Z" style="fill:#f0f0f0;fill-rule:nonzero;"/></g><g><circle cx="3080.59" cy="6164.95" r="1280.82" style="fill:none;stroke:#f0f0f0;stroke-width:60.75px;"/><path d="M2933.02,5713.57c-62.113,0 -112.846,50.738 -112.846,112.85c0,62.113 50.733,112.846 112.846,112.846c59.566,0 107.467,-47.05 111.392,-105.658c0.991,-2.267 1.487,-4.717 1.458,-7.188c0.021,-2.45 -0.475,-4.879 -1.458,-7.121c-3.892,-58.641 -51.8,-105.729 -111.392,-105.729Zm295.142,0c-62.113,0 -112.85,50.738 -112.85,112.85c-0,62.113 50.737,112.846 112.85,112.846c59.566,0 107.462,-47.05 111.387,-105.658c0.992,-2.267 1.492,-4.717 1.458,-7.188c0.021,-2.45 -0.475,-4.879 -1.458,-7.121c-3.892,-58.641 -51.8,-105.729 -111.387,-105.729Zm-295.142,34.725c43.341,0 78.125,34.784 78.125,78.125c-0,43.338 -34.784,78.125 -78.125,78.125c-43.338,0 -78.125,-34.787 -78.125,-78.125c-0,-43.341 34.787,-78.125 78.125,-78.125Zm295.142,0c43.337,0 78.125,34.784 78.125,78.125c-0,43.338 -34.788,78.125 -78.125,78.125c-43.342,0 -78.125,-34.787 -78.125,-78.125c-0,-43.341 34.783,-78.125 78.125,-78.125Zm-494.792,190.971c-66.904,0 -121.529,54.625 -121.529,121.529c-0,66.904 54.625,121.525 121.529,121.525c64.358,0 116.125,-50.937 120.067,-114.337c0.995,-2.267 1.491,-4.717 1.458,-7.188c0.029,-2.462 -0.467,-4.9 -1.458,-7.158c-3.921,-63.413 -55.7,-114.371 -120.067,-114.371Zm694.441,0c-66.904,0 -121.524,54.625 -121.524,121.529c-0.001,66.904 54.62,121.525 121.524,121.525c64.359,0 116.13,-50.937 120.071,-114.337c0.992,-2.267 1.492,-4.717 1.459,-7.188c0.025,-2.462 -0.471,-4.9 -1.459,-7.158c-3.925,-63.413 -55.7,-114.371 -120.07,-114.371Zm-694.442,34.721c48.129,-0 86.804,38.675 86.804,86.808c0,48.129 -38.675,86.804 -86.804,86.804c-48.133,0 -86.808,-38.675 -86.808,-86.804c-0,-48.133 38.675,-86.808 86.808,-86.808Zm694.442,-0c48.133,-0 86.808,38.675 86.808,86.808c-0,48.129 -38.675,86.804 -86.808,86.804c-48.13,0 -86.805,-38.675 -86.805,-86.804c0,-48.133 38.675,-86.808 86.805,-86.808Zm-347.221,86.808c-76.488,0 -138.888,62.4 -138.888,138.888c0,76.487 62.4,138.887 138.888,138.887c73.941,0 133.466,-58.716 137.429,-131.7c0.996,-2.262 1.492,-4.716 1.458,-7.187c0.025,-2.45 -0.475,-4.875 -1.458,-7.121c-3.929,-73.017 -63.463,-131.767 -137.429,-131.767Zm-0,34.721c57.712,0 104.166,46.454 104.166,104.167c0,57.712 -46.454,104.166 -104.166,104.166c-57.713,0 -104.167,-46.454 -104.167,-104.166c0,-57.713 46.454,-104.167 104.167,-104.167Zm-347.221,104.167c-140.129,-0 -189.788,122.679 -189.788,122.679c-0.783,2.012 -1.187,4.15 -1.187,6.308l-0,44.625c0.004,9.521 7.837,17.359 17.362,17.359l347.221,-0c9.525,-0 17.363,-7.838 17.363,-17.359l-0,-44.625c-0,-2.158 -0.404,-4.296 -1.188,-6.308c0,-0 -49.654,-122.679 -189.783,-122.679Zm694.442,-0c-140.13,-0 -189.784,122.679 -189.784,122.679c-0.783,2.012 -1.187,4.15 -1.187,6.308l-0,44.625c-0,9.521 7.837,17.359 17.362,17.359l347.221,-0c9.525,-0 17.363,-7.838 17.363,-17.359l-0,-44.625c-0,-2.158 -0.405,-4.296 -1.188,-6.308c0,-0 -49.654,-122.679 -189.787,-122.679Zm-694.442,34.721c115.671,-0 153.442,90.995 156.25,98.133l-0,23.396l-312.5,-0l-0,-23.396c2.804,-7.138 40.579,-98.133 156.25,-98.133Zm694.442,-0c115.67,-0 153.445,90.995 156.25,98.133l-0,23.396l-312.5,-0l-0,-23.396c2.808,-7.138 40.579,-98.133 156.25,-98.133Zm-347.221,138.891c-186.592,0 -259.059,168.592 -259.059,168.592c-0.9,2.137 -1.362,4.429 -1.358,6.746l0,67.716c0,9.525 7.838,17.359 17.363,17.363l486.108,-0c9.525,-0.004 17.362,-7.838 17.362,-17.363l0,-67.716c0.005,-2.317 -0.458,-4.609 -1.354,-6.746c0,-0 -72.471,-168.592 -259.062,-168.592Zm-0,34.721c161.2,0 222.333,137.033 225.696,144.821l-0,46.15l-451.392,-0l-0,-46.15c3.362,-7.788 64.496,-144.821 225.696,-144.821Zm-138.888,86.804c-9.583,0 -17.362,7.779 -17.362,17.363l-0,34.721c-0,9.583 7.779,17.362 17.362,17.362c9.584,0 17.359,-7.779 17.359,-17.362l-0,-34.721c-0,-9.584 -7.775,-17.363 -17.359,-17.363Zm86.804,0c-9.583,0 -17.362,7.779 -17.362,17.363l-0,34.721c-0,9.583 7.779,17.362 17.362,17.362c9.584,0 17.363,-7.779 17.363,-17.362l-0,-34.721c-0,-9.584 -7.779,-17.363 -17.363,-17.363Zm104.167,0c-9.583,0 -17.362,7.779 -17.362,17.363l-0,34.721c-0,9.583 7.779,17.362 17.362,17.362c9.583,0 17.363,-7.779 17.363,-17.362l-0,-34.721c-0,-9.584 -7.78,-17.363 -17.363,-17.363Zm86.804,0c-9.583,0 -17.358,7.779 -17.358,17.363l-0,34.721c-0,9.583 7.775,17.362 17.358,17.362c9.584,0 17.363,-7.779 17.363,-17.362l-0,-34.721c-0,-9.584 -7.779,-17.363 -17.363,-17.363Z" style="fill:#f0f0f0;fill-rule:nonzero;"/></g><g><circle cx="1311.2" cy="5143.41" r="1280.82" style="fill:none;stroke:#f0f0f0;stroke-width:60.75px;"/><path d="M1268.89,4622.57c-24.009,0 -44.763,16.209 -50.525,39.471l-30.042,119.625c-15.263,5.225 -30.654,11.667 -45.846,19.329l-105.996,-63.679c-20.55,-12.275 -46.658,-9.021 -63.612,7.867l-59.884,59.883c-16.954,16.883 -20.141,43.063 -7.866,63.613l63.541,105.995c-7.458,15.055 -13.9,30.517 -19.054,45.913l-119.766,29.975c-23.259,5.762 -39.467,26.583 -39.467,50.525l-0,84.633c-0,24.009 16.208,44.759 39.467,50.525l119.629,30.042c5.225,15.325 11.733,30.787 19.329,45.846l-63.679,105.996c-12.275,20.55 -9.088,46.658 7.866,63.612l59.884,59.883c16.954,16.955 43.062,20.142 63.612,7.867l105.996,-63.546c15.192,7.529 30.654,13.971 45.913,19.059l29.975,119.833c5.762,23.192 26.583,39.4 50.525,39.4l84.633,-0c24.008,-0 44.758,-16.208 50.525,-39.4l30.042,-119.7c15.258,-5.221 30.654,-11.663 45.845,-19.325l105.996,63.679c20.55,12.275 46.659,9.021 63.613,-7.867l59.883,-59.883c16.954,-16.887 20.142,-43.062 7.867,-63.612l-63.546,-105.996c7.458,-15.059 13.904,-30.521 19.058,-45.913l119.763,-29.975c23.262,-5.766 39.471,-26.583 39.471,-50.525l-0,-84.633c-0,-23.942 -16.209,-44.763 -39.405,-50.525l-119.695,-30.042c-5.221,-15.329 -11.734,-30.791 -19.33,-45.846l63.684,-105.995c12.275,-20.55 9.087,-46.659 -7.867,-63.613l-59.883,-59.883c-16.954,-16.954 -43.063,-20.142 -63.613,-7.867l-105.996,63.546c-15.191,-7.529 -30.654,-13.971 -45.912,-19.058l-29.975,-119.763c-5.767,-23.262 -26.588,-39.471 -50.525,-39.471l-84.633,0Zm-0.001,34.721l84.634,0c8.004,0 14.921,5.425 16.817,13.158l29.975,119.763c2.85,11.325 11.258,20.483 22.583,24.346c13.766,4.679 27.737,10.579 41.575,17.429c10.712,5.358 23.125,4.817 33.296,-1.288l106.066,-63.545c6.85,-4.134 15.53,-3.05 21.159,2.579l59.883,59.812c5.629,5.7 6.712,14.446 2.575,21.229l-63.542,105.996c-6.104,10.175 -6.579,22.65 -1.291,33.367c6.85,13.7 12.683,27.671 17.429,41.571c3.866,11.258 13.021,19.737 24.346,22.516l119.7,29.975c7.795,1.967 13.22,8.884 13.22,16.888l0,84.633c0,8.004 -5.425,14.921 -13.154,16.821l-119.766,29.975c-11.325,2.846 -20.48,11.254 -24.346,22.583c-4.679,13.9 -10.579,27.871 -17.429,41.571c-5.288,10.713 -4.813,23.125 1.291,33.296l63.613,106.067c4.066,6.783 2.983,15.529 -2.579,21.158l-59.884,59.883c-5.696,5.63 -14.446,6.713 -21.225,2.575l-106,-63.541c-10.171,-6.104 -22.65,-6.579 -33.362,-1.292c-13.767,6.85 -27.738,12.683 -41.575,17.429c-11.254,3.867 -19.734,13.021 -22.513,24.35l-29.975,119.696c-1.966,7.796 -8.883,13.225 -16.887,13.225l-84.634,0c-8.004,0 -14.92,-5.429 -16.82,-13.158l-29.975,-119.763c-2.85,-11.329 -11.259,-20.483 -22.584,-24.35c-13.766,-4.679 -27.737,-10.579 -41.571,-17.429c-4.95,-2.437 -10.308,-3.658 -15.6,-3.658c-6.17,-0 -12.275,1.625 -17.7,4.95l-106.062,63.541c-6.783,4.138 -15.533,3.055 -21.158,-2.575l-59.884,-59.816c-5.629,-5.696 -6.716,-14.442 -2.579,-21.225l63.546,-105.996c6.104,-10.175 6.579,-22.654 1.287,-33.367c-6.85,-13.7 -12.679,-27.671 -17.429,-41.571c-3.862,-11.258 -13.021,-19.737 -24.346,-22.516l-119.762,-29.975c-7.733,-1.967 -13.158,-8.884 -13.158,-16.888l-0,-84.633c-0,-8.004 5.425,-14.921 13.158,-16.888l119.762,-29.975c11.325,-2.779 20.484,-11.258 24.346,-22.516c4.679,-13.9 10.579,-27.871 17.429,-41.571c5.292,-10.717 4.817,-23.192 -1.287,-33.367l-63.613,-105.996c-4.07,-6.783 -2.983,-15.529 2.575,-21.229l59.884,-59.812c5.629,-5.629 14.379,-6.713 21.229,-2.579l105.996,63.545c10.175,6.105 22.65,6.58 33.366,1.288c13.767,-6.85 27.738,-12.75 41.571,-17.429c11.259,-3.934 19.734,-13.021 22.517,-24.346l29.975,-119.763c1.967,-7.733 8.883,-13.158 16.887,-13.158Zm74.867,245.225c-9.292,-1.221 -18.175,5.425 -19.462,14.921c-1.288,9.496 5.358,18.242 14.85,19.533c12.479,1.625 24.825,4.475 36.825,8.342c1.766,0.542 3.529,0.879 5.291,0.879c7.325,0 14.175,-4.746 16.546,-12.004c2.983,-9.154 -2.033,-18.921 -11.121,-21.904c-13.971,-4.542 -28.346,-7.867 -42.929,-9.767Zm-83.887,4.546c-2.238,-0.338 -4.546,-0.271 -6.917,0.337c-108.779,26.721 -184.804,123.767 -184.804,236.005c-0,90.195 49.508,172.591 129.329,214.841c2.575,1.425 5.425,2.038 8.137,2.038c6.238,-0 12.209,-3.325 15.325,-9.225c4.48,-8.475 1.292,-18.988 -7.187,-23.463c-68.358,-36.283 -110.879,-106.879 -110.879,-184.191c-0,-96.167 65.104,-179.375 158.421,-202.3c9.287,-2.305 14.987,-11.73 12.679,-21.021c-1.696,-6.988 -7.392,-11.938 -14.104,-13.021Zm210.908,59.408c-4.408,0 -8.883,1.696 -12.275,5.084l-24.55,24.55c-6.779,6.783 -6.779,17.77 -0,24.55c3.392,3.391 7.8,5.087 12.275,5.087c4.479,0 8.887,-1.696 12.275,-5.087l24.55,-24.55c6.783,-6.78 6.783,-17.767 -0,-24.55c-3.392,-3.388 -7.867,-5.084 -12.275,-5.084Zm-159.571,38.046c-76.567,0 -138.892,62.321 -138.892,138.888c0,76.566 62.325,138.887 138.892,138.887c76.563,0 138.888,-62.321 138.888,-138.887c-0,-76.567 -62.325,-138.888 -138.888,-138.888Zm207.721,33.363c-2.238,-0 -4.542,0.408 -6.713,1.358l-32.008,13.562c-8.817,3.73 -12.954,13.971 -9.225,22.788c2.85,6.646 9.292,10.579 16.004,10.579c2.309,0 4.546,-0.475 6.784,-1.358l32.008,-13.563c8.817,-3.796 12.887,-13.971 9.154,-22.787c-2.779,-6.646 -9.221,-10.646 -16.004,-10.579Zm-207.721,1.358c57.442,-0 104.167,46.725 104.167,104.167c-0,57.441 -46.725,104.166 -104.167,104.166c-57.442,0 -104.167,-46.725 -104.167,-104.166c0,-57.442 46.725,-104.167 104.167,-104.167Zm0,69.446c-19.192,-0 -34.725,15.529 -34.725,34.721c0,19.191 15.533,34.72 34.725,34.72c19.192,0 34.721,-15.529 34.721,-34.72c-0,-19.192 -15.529,-34.721 -34.721,-34.721Zm190.971,17.358c-9.563,0 -17.363,7.733 -17.363,17.363c0,9.629 7.8,17.362 17.363,17.362l34.721,0c9.562,0 17.362,-7.733 17.362,-17.362c0,-9.63 -7.8,-17.363 -17.362,-17.363l-34.721,0Zm-14.175,71.546c-6.779,0.137 -13.154,4.208 -15.867,10.854c-3.529,8.883 0.746,19.054 9.629,22.583l32.213,13.021c2.104,0.879 4.342,1.288 6.442,1.288c6.92,-0 13.429,-4.138 16.141,-10.85c3.596,-8.954 -0.679,-19.059 -9.629,-22.654l-32.146,-13.021c-2.237,-0.879 -4.541,-1.288 -6.783,-1.221Zm-41.775,63.479c-4.408,0 -8.883,1.696 -12.275,5.088c-6.779,6.779 -6.779,17.766 -0,24.545l24.55,24.55c3.392,3.392 7.8,5.088 12.275,5.088c4.479,-0 8.883,-1.696 12.275,-5.088c6.783,-6.779 6.783,-17.766 -0,-24.55l-24.55,-24.545c-3.388,-3.392 -7.867,-5.088 -12.275,-5.088Zm-60.425,40.758c-2.238,0 -4.542,0.475 -6.779,1.355c-8.817,3.8 -12.954,13.97 -9.225,22.787l13.562,32.008c2.85,6.58 9.292,10.58 16.009,10.58c2.304,-0 4.608,-0.475 6.779,-1.355c8.883,-3.8 12.954,-13.97 9.225,-22.787l-13.563,-32.008c-2.783,-6.646 -9.225,-10.58 -16.008,-10.58Zm-74.596,15.192c-9.562,0 -17.362,7.729 -17.362,17.358l-0,34.725c-0,9.63 7.8,17.359 17.362,17.359c9.563,-0 17.358,-7.729 17.358,-17.359l0,-34.725c0,-9.629 -7.795,-17.358 -17.358,-17.358Z" style="fill:#f0f0f0;fill-rule:nonzero;"/></g></svg>