<?xml version="1.0" encoding="UTF-8" standalone="no"?><!DOCTYPE svg PUBLIC "-//W3C//DTD SVG 1.1//EN" "http://www.w3.org/Graphics/SVG/1.1/DTD/svg11.dtd"><svg width="100%" height="100%" viewBox="0 0 267 267" version="1.1" xmlns="http://www.w3.org/2000/svg" xmlns:xlink="http://www.w3.org/1999/xlink" xml:space="preserve" xmlns:serif="http://www.serif.com/" style="fill-rule:evenodd;clip-rule:evenodd;stroke-linejoin:round;stroke-miterlimit:2;"><path d="M86.131,2.282c-13.786,-0 -25,11.214 -25,25c0,13.786 11.214,25 25,25c13.786,-0 25,-11.214 25,-25c0,-13.786 -11.214,-25 -25,-25Zm91.667,-0c-13.786,-0 -25,11.214 -25,25c-0,13.786 11.214,25 25,25c13.786,-0 25,-11.214 25,-25c-0,-13.786 -11.214,-25 -25,-25Zm-91.667,8.333c9.196,0 16.667,7.471 16.667,16.667c-0,9.196 -7.471,16.666 -16.667,16.666c-9.196,0 -16.666,-7.47 -16.666,-16.666c-0,-9.196 7.47,-16.667 16.666,-16.667Zm91.667,0c9.196,0 16.667,7.471 16.667,16.667c-0,9.196 -7.471,16.666 -16.667,16.666c-9.196,0 -16.667,-7.47 -16.667,-16.666c0,-9.196 7.471,-16.667 16.667,-16.667Zm-105.208,45.833c-11.166,0 -21.55,5.551 -27.751,14.844c-5.713,8.529 -8.708,18.49 -8.708,28.744l0,42.708c0,8.04 6.543,14.583 14.584,14.583c2.05,0 3.987,-0.472 5.745,-1.22l-3.076,70.442c-0.212,4.59 1.432,8.936 4.606,12.256c3.174,3.321 7.438,5.143 12.061,5.143c7.666,0 14.143,-5.159 16.08,-12.255c1.937,7.096 8.415,12.255 16.097,12.255c4.834,0 9.18,-2.05 12.305,-5.322c2.686,3.223 6.673,5.322 11.182,5.322c4.085,0 7.747,-1.676 10.416,-4.378c2.67,2.702 6.332,4.378 10.417,4.378c3.548,0 6.836,-1.302 9.326,-3.385c2.214,2.132 5.257,3.385 8.512,3.385c3.614,0 6.918,-1.416 9.294,-3.71c2.36,2.294 5.664,3.71 9.196,3.71c6.348,0 11.67,-4.752 12.419,-11.084l6.136,-55.582l10.791,-0c2.409,-0 4.704,-1.042 6.282,-2.832c1.579,-1.839 2.295,-4.248 2.002,-6.625l-1.611,-11.832c8.789,-3.223 14.209,-12.158 12.858,-21.501l-6.543,-45.833c-2.62,-18.376 -18.571,-32.211 -37.126,-32.211l-17.171,0c-14.697,0 -27.816,8.708 -33.821,21.501c-0.993,-0.163 -2.002,-0.26 -3.044,-0.26c-1.546,-0 -3.076,0.179 -4.541,0.472l-2.295,-4.216c-5.794,-10.791 -17.041,-17.497 -29.329,-17.497l-25.293,0Zm-0,8.334l25.293,-0c9.212,-0 17.659,5.045 21.989,13.135l1.888,3.45c-6.169,4.004 -10.222,10.954 -10.222,18.831c0,12.419 10.091,22.51 22.51,22.51c12.419,0 22.51,-10.091 22.51,-22.51c-0,-8.414 -4.639,-15.755 -11.507,-19.628c4.882,-9.424 14.794,-15.788 25.862,-15.788l17.171,-0c14.421,-0 26.84,10.742 28.89,25.049l6.527,45.833c0.684,4.818 -1.693,9.408 -5.778,11.735l-7.959,-58.659c-0.293,-2.295 -2.376,-3.874 -4.671,-3.581c-2.295,0.326 -3.874,2.409 -3.597,4.704l10.726,79.085l-42.757,0l-0,-16.666c-0,-16.081 -13.086,-29.167 -29.167,-29.167l-8.333,0c-16.081,0 -29.167,13.086 -29.167,29.167l-0,29.166c-0,5.42 3.499,10.092 8.333,11.784l0,33.09c0,5.126 -3.987,9.293 -8.919,9.293c-4.46,0 -8.105,-3.483 -8.333,-7.943l-3.581,-70.556c-0.114,-2.214 -1.953,-3.939 -4.167,-3.939c-2.23,-0 -4.052,1.725 -4.166,3.939l-3.597,70.556c-0.212,4.46 -3.874,7.943 -8.334,7.943c-2.311,0 -4.443,-0.911 -6.038,-2.571c-1.579,-1.661 -2.393,-3.842 -2.295,-6.137l3.597,-82.063l-0,-52.458c-0,-2.295 -1.872,-4.167 -4.167,-4.167c-2.295,0 -4.166,1.872 -4.166,4.167l-0,50.358c-0,3.451 -2.8,6.25 -6.25,6.25c-3.451,0 -6.25,-2.799 -6.25,-6.25l-0,-42.708c-0,-8.578 2.539,-16.96 7.291,-24.121c4.671,-6.967 12.451,-11.133 20.834,-11.133Zm61.458,20.426c0.13,0 0.293,-0.016 0.407,0.033c2.93,0.049 5.68,0.96 7.975,2.539c3.988,2.702 6.608,7.259 6.608,12.418c0,8.252 -6.738,14.991 -14.99,14.991c-8.252,-0 -14.99,-6.739 -14.99,-14.991c-0,-4.785 2.278,-9.082 5.827,-11.832c2.164,-1.758 4.866,-2.832 7.747,-3.076c0.456,-0.049 0.96,-0.082 1.416,-0.082Zm-127.083,33.74c-2.295,0 -4.167,1.872 -4.167,4.167l-0,8.333c-0,2.295 1.872,4.167 4.167,4.167c2.295,0 4.166,-1.872 4.166,-4.167l0,-8.333c0,-2.295 -1.871,-4.167 -4.166,-4.167Zm20.833,0c-2.295,0 -4.167,1.872 -4.167,4.167l0,8.333c0,2.295 1.872,4.167 4.167,4.167c2.295,0 4.167,-1.872 4.167,-4.167l-0,-8.333c-0,-2.295 -1.872,-4.167 -4.167,-4.167Zm208.333,0c-2.295,0 -4.166,1.872 -4.166,4.167l-0,8.333c-0,2.295 1.871,4.167 4.166,4.167c2.295,0 4.167,-1.872 4.167,-4.167l-0,-8.333c-0,-2.295 -1.872,-4.167 -4.167,-4.167Zm20.834,0c-2.295,0 -4.167,1.872 -4.167,4.167l-0,8.333c-0,2.295 1.872,4.167 4.167,4.167c2.295,0 4.166,-1.872 4.166,-4.167l0,-8.333c0,-2.295 -1.871,-4.167 -4.166,-4.167Zm-125,12.5l8.333,0c11.507,0 20.833,9.327 20.833,20.834l0,29.166c0,2.295 -1.871,4.167 -4.166,4.167c-0.619,0 -1.254,0.163 -1.791,0.407c-1.416,0.667 -2.376,2.1 -2.376,3.76l-0,39.583c-0,1.172 -0.293,2.214 -0.879,3.125c-1.042,1.872 -3.076,3.125 -5.371,3.125l-20.833,0c-3.451,0 -6.25,-2.799 -6.25,-6.25l-0,-39.583c-0,-2.295 -1.872,-4.167 -4.167,-4.167c-2.295,0 -4.167,-1.872 -4.167,-4.167l0,-29.166c0,-11.507 9.326,-20.834 20.834,-20.834Zm45.833,45.834l15.251,-0l-6.039,54.671c-0.211,2.083 -2.002,3.662 -4.134,3.662c-2.783,0 -5.078,-2.295 -5.078,-5.078l-0,-53.255Zm-8.333,4.166l-0,49.089c-0,2.783 -2.295,5.078 -5.079,5.078c-1.676,0 -3.141,-0.993 -3.792,-2.409c0.375,-1.22 0.537,-2.506 0.537,-3.841l0,-36.133c4.834,-1.692 8.334,-6.364 8.334,-11.784Z" style="fill:#f0f0f0;fill-rule:nonzero;"/><path d="M134.133,76.379c-0.746,-0 -1.569,0.048 -2.318,0.126c-4.577,0.41 -8.897,2.158 -12.384,4.959c-5.613,4.389 -9.199,11.22 -9.199,18.815c0,13.157 10.744,23.9 23.901,23.9c13.156,0 23.9,-10.743 23.9,-23.9c-0,-8.202 -4.145,-15.454 -10.473,-19.763c-3.616,-2.485 -7.928,-3.952 -12.529,-4.097c-0.26,-0.025 -0.586,-0.04 -0.898,-0.04Zm-0,9.583c0.124,-0 0.279,-0.016 0.388,0.031c2.798,0.047 5.425,0.917 7.617,2.425c3.809,2.581 6.312,6.933 6.312,11.861c-0,7.881 -6.436,14.317 -14.317,14.317c-7.882,0 -14.317,-6.436 -14.317,-14.317c-0,-4.57 2.176,-8.674 5.565,-11.301c2.067,-1.679 4.648,-2.705 7.399,-2.938c0.435,-0.047 0.917,-0.078 1.353,-0.078Z" style="fill:#fc9c19;"/><path d="M109.945,194.119l-0,34.614c-0,8.648 7.052,15.738 15.834,15.738c4,0 7.641,-1.471 10.418,-3.893c2.776,2.422 6.417,3.893 10.417,3.893c5.779,0 10.876,-3.12 13.58,-7.712c1.445,-2.277 2.254,-4.979 2.254,-8.026l0,-34.614c4.909,-2.105 8.334,-6.976 8.334,-12.577l0,-28.725c0,-16.586 -13.576,-30.101 -30.418,-30.101l-8.335,-0c-16.842,-0 -30.418,13.515 -30.418,30.101l-0,28.725c-0,5.601 3.425,10.472 8.334,12.577Zm22.085,-61.82l8.334,-0c11.508,-0 20.835,9.185 20.835,20.518l-0,28.725c-0,2.26 -1.872,4.103 -4.167,4.103c-0.619,0 -1.253,0.161 -1.791,0.401c-1.416,0.657 -2.376,2.068 -2.376,3.703l-0,38.984c-0,1.154 -0.293,2.18 -0.879,3.077c-1.042,1.844 -3.077,3.078 -5.372,3.078c-3.451,-0 -6.25,-2.757 -6.25,-6.155l-0,-34.881c-0,-2.26 -1.872,-4.103 -4.167,-4.103c-2.296,-0 -4.167,1.843 -4.167,4.103l-0,34.881c-0,3.398 -2.8,6.155 -6.251,6.155c-3.451,-0 -6.251,-2.757 -6.251,-6.155l0,-38.984c0,-2.26 -1.872,-4.104 -4.167,-4.104c-2.295,0 -4.167,-1.843 -4.167,-4.103l0,-28.725c0,-11.333 9.327,-20.518 20.836,-20.518Z" style="fill:#fc9c19;"/></svg>