<?xml version="1.0" encoding="UTF-8" standalone="no"?><!DOCTYPE svg PUBLIC "-//W3C//DTD SVG 1.1//EN" "http://www.w3.org/Graphics/SVG/1.1/DTD/svg11.dtd"><svg width="100%" height="100%" viewBox="0 0 267 267" version="1.1" xmlns="http://www.w3.org/2000/svg" xmlns:xlink="http://www.w3.org/1999/xlink" xml:space="preserve" xmlns:serif="http://www.serif.com/" style="fill-rule:evenodd;clip-rule:evenodd;stroke-linejoin:round;stroke-miterlimit:2;"><path d="M62.5,120.833c-2.304,0 -4.167,1.867 -4.167,4.167l0,8.333c0,2.3 1.863,4.167 4.167,4.167c2.304,0 4.167,-1.867 4.167,-4.167l-0,-8.333c-0,-2.3 -1.863,-4.167 -4.167,-4.167Zm41.667,0c-2.305,0 -4.167,1.867 -4.167,4.167l0,8.333c0,2.3 1.862,4.167 4.167,4.167c2.304,0 4.166,-1.867 4.166,-4.167l0,-8.333c0,-2.3 -1.862,-4.167 -4.166,-4.167Zm20.833,0c-2.304,0 -4.167,1.867 -4.167,4.167l0,8.333c0,2.3 1.863,4.167 4.167,4.167c2.304,0 4.167,-1.867 4.167,-4.167l-0,-8.333c-0,-2.3 -1.863,-4.167 -4.167,-4.167Zm20.833,0c-2.304,0 -4.166,1.867 -4.166,4.167l-0,8.333c-0,2.3 1.862,4.167 4.166,4.167c2.304,0 4.167,-1.867 4.167,-4.167l0,-8.333c0,-2.3 -1.863,-4.167 -4.167,-4.167Zm20.834,0c-2.304,0 -4.167,1.867 -4.167,4.167l0,8.333c0,2.3 1.863,4.167 4.167,4.167c2.304,0 4.166,-1.867 4.166,-4.167l0,-8.333c0,-2.3 -1.862,-4.167 -4.166,-4.167Zm41.666,0c-2.304,0 -4.166,1.867 -4.166,4.167l-0,8.333c-0,2.3 1.862,4.167 4.166,4.167c2.305,0 4.167,-1.867 4.167,-4.167l0,-8.333c0,-2.3 -1.862,-4.167 -4.167,-4.167Z" style="fill:#fc9c19;fill-rule:nonzero;"/><path d="M83.169,120.833c-2.304,0 -4.167,1.867 -4.167,4.167l0,8.333c0,2.3 1.863,4.167 4.167,4.167c2.304,0 4.167,-1.867 4.167,-4.167l-0,-8.333c-0,-2.3 -1.863,-4.167 -4.167,-4.167Zm104.167,0c-2.304,0 -4.167,1.867 -4.167,4.167l0,8.333c0,2.3 1.863,4.167 4.167,4.167c2.304,0 4.166,-1.867 4.166,-4.167l0,-8.333c0,-2.3 -1.862,-4.167 -4.166,-4.167Z" style="fill:#fc9c19;fill-rule:nonzero;"/><path d="M29.167,33.333c-6.892,0 -12.5,5.609 -12.5,12.5l-0,175c-0,6.892 5.608,12.5 12.5,12.5l208.333,0c6.892,0 12.5,-5.608 12.5,-12.5l0,-175c0,-6.891 -5.608,-12.5 -12.5,-12.5l-208.333,0Zm-0,8.334l208.333,-0c2.3,-0 4.167,1.87 4.167,4.166l-0,175c-0,2.296 -1.867,4.167 -4.167,4.167l-208.333,0c-2.3,0 -4.167,-1.871 -4.167,-4.167l0,-175c0,-2.295 1.867,-4.166 4.167,-4.166Zm12.5,12.5c-2.305,-0 -4.167,1.862 -4.167,4.166l0,154.167l187.5,0c2.304,0 4.167,-1.862 4.167,-4.167c-0,-2.304 -1.863,-4.166 -4.167,-4.166l-29.183,-0l0,-1.058c-0.617,-6.621 -3.571,-35.598 -10.408,-66.252c0.624,0.373 -0,0 -0,0c-9.163,-37.21 -26.245,-82.69 -49.992,-82.69c-19.894,-0 -37.805,33.072 -49.764,82.535c-0,0 -0.672,0.465 -0,0c-1.463,6.6 -2.871,13.515 -4.2,20.899c-0.404,2.262 1.103,4.426 3.37,4.834c2.262,0.4 4.425,-1.094 4.834,-3.361c11.037,-61.375 27.718,-96.574 45.76,-96.574c31.941,-0 48.441,102.062 52.083,140.999l-0,0.668l-104.183,-0l0,-0.285c0.008,-0.096 0.928,-9.884 2.987,-24.113c0.333,-2.279 -1.245,-4.391 -3.524,-4.72c-2.292,-0.375 -4.395,1.244 -4.72,3.524c-2.096,14.454 -3.031,24.443 -3.06,24.926l-0,0.668l-29.167,-0l0,-145.834c0,-2.304 -1.862,-4.166 -4.166,-4.166Z" style="fill:#f0f0f0;fill-rule:nonzero;"/></svg>