<?xml version="1.0" encoding="UTF-8" standalone="no"?><!DOCTYPE svg PUBLIC "-//W3C//DTD SVG 1.1//EN" "http://www.w3.org/Graphics/SVG/1.1/DTD/svg11.dtd"><svg width="100%" height="100%" viewBox="0 0 3082 3773" version="1.1" xmlns="http://www.w3.org/2000/svg" xmlns:xlink="http://www.w3.org/1999/xlink" xml:space="preserve" xmlns:serif="http://www.serif.com/" style="fill-rule:evenodd;clip-rule:evenodd;stroke-linecap:round;stroke-linejoin:round;stroke-miterlimit:1.5;"><circle cx="1540.62" cy="1886.46" r="1486.42" style="fill:none;stroke:#f0f0f0;stroke-width:70.5px;"/><g><path d="M1522.65,808.925c-233.597,-0 -426.914,173.564 -447.321,395.363c-44.618,-0.278 -80.159,-2.034 -113.813,16.5c-17.889,9.852 -32.717,27.404 -40.302,47.463c-7.585,20.06 -9.9,42.172 -9.9,68.878c-0.012,5.605 1.286,11.136 3.792,16.149c21.782,43.42 29.807,87.242 27.874,115.358c-0.851,12.372 -3.762,20.508 -5.898,24.645c-57.325,-21.966 -118.393,-12.715 -165.279,3.791c-25.651,9.031 -47.236,20.109 -63.893,32.859c-8.328,6.376 -15.608,12.721 -21.976,23.241c-3.184,5.26 -6.398,11.917 -7.162,21.274c-0.185,2.267 1.904,4.726 2.177,7.232c-0.123,0.23 -0.472,1.444 -2.107,4.634c-4.015,7.837 -12.118,20.927 -22.608,36.299c-20.98,30.746 -51.466,71.452 -81.727,112.971c-30.26,41.519 -60.304,83.819 -81.797,120.203c-10.746,18.192 -19.441,34.614 -25.065,50.974c-5.625,16.36 -12.964,37.103 4.353,60.102c3.861,5.127 9.026,9.127 14.955,11.584c86.541,35.932 132.835,74.556 159.1,111.357c26.265,36.801 34.046,73.271 37.774,111.988c3.729,38.717 1.503,78.785 13.902,119.43c12.135,39.78 44.951,77.064 99.35,94.997c9.341,3.955 17.748,13.54 24.715,32.578c6.967,19.039 10.845,45.321 12.006,71.266c2.322,51.889 -5.266,100.964 -5.266,100.964c-1.727,10.913 1.669,22.035 9.198,30.121c0,0 41.603,44.565 86.922,87.133c22.66,21.284 46.088,42.064 67.404,57.504c10.658,7.72 20.465,14.202 31.876,19.027c5.706,2.413 11.915,4.611 20.362,5.266c8.406,0.652 20.816,-0.959 31.174,-9.057c-9.733,7.644 -6.022,2.646 3.721,3.019c9.876,0.379 25.149,2.387 42.97,5.757c35.641,6.741 81.904,18.594 127.785,30.613c45.881,12.019 91.376,24.224 127.856,31.876c18.24,3.826 33.938,6.592 48.306,7.443c7.185,0.425 13.968,0.562 22.328,-1.054c8.359,-1.615 22.133,-5.249 31.174,-21.344c0.023,-0.023 0.047,-0.047 0.07,-0.07c9.65,-17.275 26.247,-53.02 49.78,-91.346c22.504,-36.65 51.474,-70.368 71.897,-83.131c2.559,0.468 4.622,0.73 8.917,1.966c13.061,3.759 32.274,11.113 54.555,20.853c44.563,19.48 102.038,48.459 159.592,78.637c57.553,30.178 115.324,61.535 161.838,86.15c23.257,12.308 43.681,22.954 60.172,31.034c16.491,8.08 25.629,13.407 40.793,16.851c32.532,7.367 55.895,-6.268 80.884,-20.502c24.989,-14.234 50.601,-33.239 74.916,-52.799c24.316,-19.56 47.179,-39.674 65.017,-55.749c17.837,-16.074 33.578,-30.278 32.929,-29.77c9.056,-7.126 13.845,-18.626 14.815,-26.329c0.972,-7.719 -0.155,-12.821 -1.194,-17.062c-2.076,-8.48 -4.877,-14.068 -8.004,-20.08c-6.253,-12.024 -14.297,-24.467 -22.749,-37.774c-15.975,-25.152 -31.651,-54.363 -34.754,-63.893c0.685,-1.558 1.271,-10.381 5.265,-20.923c5.813,-15.342 15.475,-36.239 27.594,-60.031c24.236,-47.584 58.17,-107.144 91.977,-165.771c33.808,-58.627 67.471,-116.309 91.767,-161.979c12.149,-22.835 21.96,-42.513 28.647,-59.118c3.343,-8.303 5.983,-15.661 7.653,-24.153c1.67,-8.493 6.957,-21.212 -8.425,-39.459c-3.398,-4.033 -7.641,-7.269 -12.428,-9.479c-66.418,-30.657 -105.023,-109.788 -124.556,-188.168c-9.766,-39.19 -14.783,-77.214 -17.132,-106.02c-1.167,-14.317 -1.722,-26.328 -1.895,-35.036c2.484,-1.379 3.673,-2.255 7.091,-3.932c14.071,-6.903 34.527,-15.487 55.257,-24.012c20.73,-8.526 41.79,-17.039 58.908,-24.785c8.559,-3.873 16.039,-7.461 22.959,-11.515c3.46,-2.027 6.774,-4.06 10.672,-7.302c3.889,-3.234 9.965,-6.438 14.113,-20.783l-0,-0.07c25.814,-88.751 39.895,-153.876 35.948,-207.897c-3.819,-52.278 -33.645,-94.736 -78.286,-115.359c-24.449,-17.863 -53.18,-21.813 -82.359,-20.993c-31.303,0.88 -64.822,6.977 -98.507,14.464c-59.697,13.267 -114.869,28.324 -150.183,34.052l-83.974,-125.749c-6.677,-9.964 -17.916,-15.953 -29.91,-15.938l-89.31,-0c-20.37,-221.83 -213.668,-395.434 -447.32,-395.434Zm-0,71.897c209.666,-0 377.459,162.531 377.459,362.223c0,117.148 -98.599,305.485 -200.595,457.642c-88.313,131.743 -154.593,208.423 -176.724,234.719c-22.076,-26.673 -88.511,-104.978 -176.934,-237.808c-102.059,-153.315 -200.666,-342.32 -200.666,-454.553c0,-199.688 167.832,-362.223 377.46,-362.223Zm-0,215.691c-88.917,0 -161.769,72.852 -161.769,161.768c0,88.917 72.852,161.769 161.769,161.769c88.916,-0 161.768,-72.852 161.768,-161.769c0,-88.916 -72.852,-161.768 -161.768,-161.768Zm-0,71.897c50.06,0 89.871,39.811 89.871,89.871c0,50.061 -39.811,89.872 -89.871,89.872c-50.061,-0 -89.872,-39.811 -89.872,-89.872c0,-50.06 39.811,-89.871 89.872,-89.871Zm447.601,107.846l69.861,-0l86.852,129.962c7.246,10.853 19.854,16.942 32.859,15.868c49.725,-4.138 115.977,-25.904 179.181,-39.951c31.602,-7.023 61.785,-12.059 84.886,-12.708c23.102,-0.649 36.886,4.414 39.46,6.6c2.838,2.422 6.035,4.389 9.478,5.827c28.054,11.709 35.284,21.218 37.915,57.223c2.473,33.848 -9.328,93.777 -31.245,171.739c-3.128,1.604 -5.598,2.988 -10.321,5.125c-14.824,6.708 -35.593,15.166 -56.591,23.802c-20.997,8.636 -42.223,17.448 -59.61,25.978c-8.693,4.266 -16.343,8.316 -23.661,13.341c-3.659,2.512 -7.291,5.15 -11.374,9.478c-4.083,4.329 -10.067,10.569 -11.726,24.153c-1.151,9.103 -0.69,12.508 -0.491,22.679c0.201,10.265 0.737,23.742 2.036,39.669c2.597,31.856 8.024,73.383 19.027,117.535c19.894,79.829 60.34,169.238 139.722,219.413c-4.953,11.966 -13.229,29.052 -24.293,49.85c-23.157,43.527 -56.667,101.074 -90.574,159.873c-33.906,58.799 -68.259,118.849 -93.803,169c-12.772,25.075 -23.32,47.575 -30.753,67.193c-7.433,19.618 -14.984,33.273 -9.689,58.416c0,0.024 0,0.047 0,0.07c7.416,34.915 28.785,63.719 45.708,90.363c6.114,9.626 10.144,16.556 14.183,23.451c-5.621,5.165 -9.186,8.173 -17.413,15.587c-17.347,15.632 -39.205,34.929 -61.856,53.151c-22.652,18.221 -46.289,35.392 -65.508,46.339c-19.219,10.948 -35.043,11.576 -29.419,12.849c3.886,0.883 -9.884,-3.865 -25.066,-11.304c-15.181,-7.438 -35.158,-17.821 -58.135,-29.98c-45.955,-24.319 -103.955,-55.792 -162.12,-86.291c-58.164,-30.499 -116.411,-60.013 -164.155,-80.884c-23.872,-10.436 -44.981,-18.69 -63.472,-24.013c-9.245,-2.661 -17.76,-4.642 -26.821,-5.476c-9.061,-0.834 -19.248,-1.794 -32.929,5.617c-45.012,24.396 -76.153,70.012 -102.229,112.479c-21.888,35.648 -34.98,63.074 -43.04,78.848c-7.9,-0.779 -18.318,-2.204 -32.578,-5.195c-33.131,-6.95 -78.318,-18.958 -124.416,-31.034c-46.097,-12.076 -93.151,-24.27 -132.63,-31.736c-19.74,-3.733 -37.458,-6.332 -53.572,-6.951c-11.552,-0.443 -22.595,-1.772 -35.176,3.16c-3.407,-1.9 -6.66,-3.565 -12.498,-7.794c-16.524,-11.969 -38.861,-31.462 -60.382,-51.676c-37.77,-35.476 -65.092,-64.869 -73.301,-73.582c2.011,-14.404 7.305,-45.191 5.055,-95.488c-1.36,-30.4 -5.373,-62.729 -16.359,-92.75c-10.986,-30.021 -30.612,-59.893 -64.104,-74.074c-1.124,-0.479 -2.273,-0.901 -3.44,-1.264c-40.151,-12.391 -48.023,-25.032 -55.187,-48.516c-7.164,-23.484 -6.814,-60.877 -11.093,-105.318c-4.28,-44.441 -15.133,-96.763 -50.904,-146.883c-32.162,-45.064 -87.228,-86.358 -166.332,-123.082c3.312,-8.258 8.222,-18.873 16.359,-32.649c18.864,-31.933 48.177,-73.352 78.076,-114.375c29.899,-41.023 60.45,-81.693 82.99,-114.726c11.271,-16.517 20.491,-30.918 27.243,-44.093c3.375,-6.588 6.235,-12.641 8.285,-20.713c0.504,-1.985 -2.21,-6.876 -1.756,-9.549c0.682,-0.712 0.093,-0.176 2.247,-1.825c8.029,-6.146 24.478,-15.306 44.023,-22.187c39.091,-13.763 89.668,-18.339 125.469,-0.492c4.998,2.471 10.503,3.745 16.078,3.722c24.201,-0 46.989,-14.74 58.978,-32.93c11.99,-18.19 16.917,-39.043 18.466,-61.576c2.869,-41.708 -8.123,-90.89 -30.963,-140.634c0.422,-18.478 2.309,-32.729 4.774,-39.249c2.73,-7.219 3.728,-7.7 7.723,-9.9c7.425,-4.088 36.043,-6.83 78.989,-7.232c14.079,143.757 113.84,315.147 210.846,460.872c104.646,157.2 209.162,280.988 209.162,280.988c6.827,8.084 16.886,12.755 27.467,12.755c10.453,0 20.402,-4.558 27.228,-12.474c-0,-0 104.594,-121.698 209.302,-277.899c97.287,-145.131 197.341,-317.51 211.057,-464.522Zm-1220.35,299.594c0.148,1.479 0.664,3.166 0.562,4.423c-0.259,3.18 -0.97,3.755 -1.615,5.407c0.355,-3.256 0.916,-6.485 1.053,-9.83Zm395.293,383.428c-59.566,-0 -107.845,48.278 -107.845,107.845c-0,59.567 48.279,107.846 107.845,107.846c59.567,-0 107.846,-48.279 107.846,-107.846c-0,-59.567 -48.279,-107.845 -107.846,-107.845Zm1111.38,99.841c-13.878,-1.924 -28.178,4.466 -35.808,17.272c-10.173,17.076 -4.578,39.116 12.498,49.289l61.716,36.791c17.076,10.173 39.116,4.578 49.289,-12.498c10.174,-17.075 4.648,-39.115 -12.427,-49.288l-61.787,-36.792c-4.269,-2.543 -8.854,-4.133 -13.481,-4.774Zm-92.047,154.396c-13.879,-1.924 -28.179,4.395 -35.809,17.202c-10.173,17.076 -4.648,39.115 12.428,49.289l61.786,36.791c17.076,10.173 39.116,4.648 49.289,-12.428c10.174,-17.075 4.578,-39.115 -12.497,-49.288l-61.717,-36.862c-4.269,-2.543 -8.854,-4.062 -13.48,-4.704Zm-92.048,154.326c-13.879,-1.924 -28.178,4.466 -35.808,17.272c-10.174,17.076 -4.578,39.116 12.497,49.289l61.717,36.791c17.075,10.173 39.079,4.578 49.288,-12.498c10.174,-17.075 4.648,-39.115 -12.427,-49.288l-61.787,-36.792c-4.269,-2.543 -8.854,-4.133 -13.48,-4.774Z" style="fill:#f0f0f0;fill-rule:nonzero;"/><path d="M1522.65,1096.51c-88.917,0 -161.769,72.852 -161.769,161.768c0,88.917 72.852,161.769 161.769,161.769c88.916,-0 161.768,-72.852 161.768,-161.769c0,-88.916 -72.852,-161.768 -161.768,-161.768Zm-0,71.897c50.06,0 89.871,39.811 89.871,89.871c0,50.061 -39.811,89.872 -89.871,89.872c-50.061,-0 -89.872,-39.811 -89.872,-89.872c0,-50.06 39.811,-89.871 89.872,-89.871Zm-377.46,790.868c-59.566,-0 -107.845,48.278 -107.845,107.845c-0,59.567 48.279,107.846 107.845,107.846c59.567,-0 107.846,-48.279 107.846,-107.846c-0,-59.567 -48.279,-107.845 -107.846,-107.845Z" style="fill:#fc9c19;fill-rule:nonzero;"/></g></svg>