<?xml version="1.0" encoding="UTF-8" standalone="no"?><!DOCTYPE svg PUBLIC "-//W3C//DTD SVG 1.1//EN" "http://www.w3.org/Graphics/SVG/1.1/DTD/svg11.dtd"><svg width="100%" height="100%" viewBox="0 0 3082 3773" version="1.1" xmlns="http://www.w3.org/2000/svg" xmlns:xlink="http://www.w3.org/1999/xlink" xml:space="preserve" xmlns:serif="http://www.serif.com/" style="fill-rule:evenodd;clip-rule:evenodd;stroke-linecap:round;stroke-linejoin:round;stroke-miterlimit:1.5;"><circle cx="1540.62" cy="1886.46" r="1486.42" style="fill:none;stroke:#f0f0f0;stroke-width:70.5px;"/><g><path d="M2379.44,1107.88c55.743,0 100.984,45.241 100.984,100.984l-0,1413.77c-0,55.743 -45.241,100.984 -100.984,100.984l-1683.06,-0c-55.743,-0 -100.984,-45.241 -100.984,-100.984l0,-1413.77c0,-55.777 45.241,-100.984 100.984,-100.984l1683.06,0Zm0,67.323l-1683.06,-0c-18.548,-0 -33.662,15.114 -33.662,33.661l0,1413.77c0,18.548 15.114,33.661 33.662,33.661l1683.06,0c18.548,0 33.662,-15.113 33.662,-33.661l-0,-1110.82l-1380.11,-0c-18.548,-0 -33.662,-15.114 -33.662,-33.661c0,-18.548 15.114,-33.662 33.662,-33.662l1380.11,0l-0,-235.628c-0,-18.547 -15.114,-33.661 -33.662,-33.661Zm-100.983,67.322c18.547,0 33.661,15.114 33.661,33.661l-0,67.323c-0,18.547 -15.114,33.661 -33.661,33.661c-18.548,0 -33.661,-15.114 -33.661,-33.661l-0,-67.323c-0,-18.547 15.113,-33.661 33.661,-33.661Zm-168.306,0c18.547,0 33.661,15.114 33.661,33.661l-0,67.323c-0,18.547 -15.114,33.661 -33.661,33.661c-18.548,0 -33.661,-15.114 -33.661,-33.661l-0,-67.323c-0,-18.547 15.113,-33.661 33.661,-33.661Zm-168.306,0c18.547,0 33.661,15.114 33.661,33.661l0,67.323c0,18.547 -15.114,33.661 -33.661,33.661c-18.548,0 -33.661,-15.114 -33.661,-33.661l-0,-67.323c-0,-18.547 15.113,-33.661 33.661,-33.661Zm-168.306,0c18.547,0 33.661,15.114 33.661,33.661l0,67.323c0,18.547 -15.114,33.661 -33.661,33.661c-18.547,0 -33.661,-15.114 -33.661,-33.661l-0,-67.323c-0,-18.547 15.114,-33.661 33.661,-33.661Zm-168.306,0c18.547,0 33.661,15.114 33.661,33.661l0,67.323c0,18.547 -15.114,33.661 -33.661,33.661c-18.547,0 -33.661,-15.114 -33.661,-33.661l-0,-67.323c-0,-18.547 15.114,-33.661 33.661,-33.661Zm-168.306,0c18.547,0 33.661,15.114 33.661,33.661l0,67.323c0,18.547 -15.114,33.661 -33.661,33.661c-18.547,0 -33.661,-15.114 -33.661,-33.661l-0,-67.323c-0,-18.547 15.114,-33.661 33.661,-33.661Zm-168.306,0c18.547,0 33.661,15.114 33.661,33.661l0,67.323c0,18.547 -15.114,33.661 -33.661,33.661c-18.547,0 -33.661,-15.114 -33.661,-33.661l-0,-67.323c-0,-18.547 15.114,-33.661 33.661,-33.661Zm-168.306,0c18.547,0 33.661,15.114 33.661,33.661l0,67.323c0,18.547 -15.114,33.661 -33.661,33.661c-18.547,0 -33.661,-15.114 -33.661,-33.661l-0,-67.323c-0,-18.547 15.114,-33.661 33.661,-33.661Zm-168.306,0c18.547,0 33.661,15.114 33.661,33.661l0,67.323c0,18.513 -15.114,33.661 -33.661,33.661c-18.547,0 -33.661,-15.114 -33.661,-33.661l-0,-67.323c-0,-18.547 15.114,-33.661 33.661,-33.661Zm-168.306,0c18.547,0 33.661,15.114 33.661,33.661l0,67.323c0,18.547 -15.114,33.661 -33.661,33.661c-18.547,0 -33.661,-15.114 -33.661,-33.661l-0,-67.323c-0,-18.547 15.114,-33.661 33.661,-33.661Zm134.645,201.967c18.547,0 33.661,15.114 33.661,33.662c-0,18.547 -15.114,33.661 -33.661,33.661l-134.645,-0c-18.547,-0 -33.661,-15.114 -33.661,-33.661c-0,-18.548 15.114,-33.662 33.661,-33.662l134.645,0Z" style="fill:#f0f0f0;fill-rule:nonzero;"/><path d="M2317.55,1793.66c-8.609,0 -17.219,3.281 -23.8,9.862l-235.825,235.891c-13.18,-6.318 -27.762,-10.124 -43.326,-10.124c-24.325,-0 -46.385,9.021 -63.838,23.405l-173.828,-104.271c1.322,-6.509 2.038,-13.225 2.038,-20.118c-0,-55.675 -45.308,-100.983 -100.984,-100.983c-55.675,-0 -100.983,45.308 -100.983,100.983c-0,13.678 2.806,26.684 7.758,38.592l-195.525,175.998c-14.313,-7.791 -30.453,-12.623 -47.862,-12.623c-31.267,0 -58.908,14.623 -77.447,37.014l-191.908,-69.82c0.003,-0.292 0.066,-0.563 0.066,-0.855c-0,-55.676 -45.308,-100.983 -100.984,-100.983c-55.675,-0 -100.983,45.307 -100.983,100.983c-0,15.575 3.864,30.138 10.19,43.326c-0.095,0.093 -0.234,0.102 -0.329,0.197l-134.644,134.645c-13.162,13.161 -13.162,34.437 -0,47.599c6.563,6.564 15.182,9.861 23.799,9.861c8.617,0 17.236,-3.297 23.8,-9.861l134.644,-134.645c0.095,-0.094 0.105,-0.234 0.198,-0.329c13.187,6.327 27.75,10.191 43.325,10.191c31.292,-0 58.975,-14.593 77.513,-37.014l191.843,69.754c-0.003,0.314 -0.066,0.606 -0.066,0.921c-0,55.676 45.308,100.983 100.983,100.983c55.676,0 100.984,-45.307 100.984,-100.983c-0,-13.7 -2.792,-26.734 -7.758,-38.658l195.524,-175.932c14.314,7.791 30.453,12.623 47.862,12.623c24.351,-0 46.443,-8.995 63.904,-23.405l173.763,104.205c-1.331,6.528 -2.038,13.268 -2.038,20.183c-0,55.676 45.308,100.984 100.983,100.984c55.676,-0 100.984,-45.308 100.984,-100.984c-0,-15.543 -3.823,-30.093 -10.125,-43.26l235.891,-235.891c13.162,-13.161 13.162,-34.437 0,-47.599c-6.58,-6.581 -15.19,-9.862 -23.799,-9.862Zm-639.563,100.984c18.548,-0 33.661,15.08 33.661,33.661c0,18.581 -15.113,33.661 -33.661,33.661c-18.547,0 -33.661,-15.08 -33.661,-33.661c0,-18.581 15.114,-33.661 33.661,-33.661Zm-706.885,168.306c18.548,-0 33.661,15.08 33.661,33.661c0,18.581 -15.113,33.661 -33.661,33.661c-18.547,0 -33.661,-15.08 -33.661,-33.661c0,-18.581 15.114,-33.661 33.661,-33.661Zm1043.5,33.661c18.548,0 33.661,15.08 33.661,33.661c0,18.581 -15.113,33.661 -33.661,33.661c-18.547,0 -33.661,-15.08 -33.661,-33.661c0,-18.581 15.114,-33.661 33.661,-33.661Zm-673.224,100.984c18.548,-0 33.662,15.08 33.662,33.661c-0,18.581 -15.114,33.661 -33.662,33.661c-18.547,0 -33.661,-15.08 -33.661,-33.661c0,-18.581 15.114,-33.661 33.661,-33.661Z" style="fill:#fc9c19;fill-rule:nonzero;"/></g></svg>