<?xml version="1.0" encoding="UTF-8" standalone="no"?><!DOCTYPE svg PUBLIC "-//W3C//DTD SVG 1.1//EN" "http://www.w3.org/Graphics/SVG/1.1/DTD/svg11.dtd"><svg width="100%" height="100%" viewBox="0 0 3082 3773" version="1.1" xmlns="http://www.w3.org/2000/svg" xmlns:xlink="http://www.w3.org/1999/xlink" xml:space="preserve" xmlns:serif="http://www.serif.com/" style="fill-rule:evenodd;clip-rule:evenodd;stroke-linecap:round;stroke-linejoin:round;stroke-miterlimit:1.5;"><circle cx="1540.62" cy="1886.46" r="1486.42" style="fill:none;stroke:#f0f0f0;stroke-width:70.5px;"/><g><path d="M1821.39,1137.74c-17.305,-0 -31.197,13.892 -31.197,31.196c0,17.305 13.892,31.197 31.197,31.197l124.786,0c17.305,0 31.197,-13.892 31.197,-31.197c0,-17.304 -13.892,-31.196 -31.197,-31.196l-124.786,-0Zm-374.36,124.786c-17.304,0 -31.197,13.893 -31.197,31.197c0,17.304 13.893,31.197 31.197,31.197l124.787,-0c17.304,-0 31.196,-13.893 31.196,-31.197c0,-17.304 -13.892,-31.197 -31.196,-31.197l-124.787,0Zm-373.263,90.544c-11.942,1.584 -22.544,10.358 -25.835,22.788c-4.509,16.573 5.484,33.756 22.057,38.265l120.644,32.171c2.681,0.731 5.362,1.097 8.043,1.097c13.77,-0 26.444,-9.14 30.099,-23.032c4.509,-16.695 -5.483,-33.756 -22.057,-38.265l-120.521,-32.293c-4.143,-1.097 -8.408,-1.341 -12.43,-0.731Zm-193.639,723.128c-12.064,1.706 -22.666,10.359 -25.956,22.788c-4.509,16.696 5.484,33.756 22.057,38.265l120.521,32.294c2.681,0.731 5.362,1.096 8.165,1.096c13.77,0 26.444,-9.261 30.1,-23.153c4.509,-16.574 -5.484,-33.756 -22.057,-38.265l-120.643,-32.172c-4.144,-1.218 -8.287,-1.462 -12.187,-0.853Zm566.902,59.835c-17.304,-0 -31.197,13.892 -31.197,31.196c0,17.305 13.893,31.197 31.197,31.197l124.787,-0c17.304,-0 31.196,-13.892 31.196,-31.197c0,-17.304 -13.892,-31.196 -31.196,-31.196l-124.787,-0Zm374.36,-0c-17.305,-0 -31.197,13.892 -31.197,31.196c0,17.305 13.892,31.197 31.197,31.197l124.786,-0c17.305,-0 31.197,-13.892 31.197,-31.197c0,-17.304 -13.892,-31.196 -31.197,-31.196l-124.786,-0Zm-1060.69,249.573c-18.767,-0 -31.197,13.892 -31.197,31.196l0,62.394c0,17.304 12.43,31.196 31.197,31.196c18.767,0 31.196,-13.892 31.196,-31.196l0,-62.394c0,-17.304 -12.429,-31.196 -31.196,-31.196Zm155.983,-0c-18.767,-0 -31.197,13.892 -31.197,31.196l0,62.394c0,17.304 12.43,31.196 31.197,31.196c18.767,0 31.197,-13.892 31.197,-31.196l-0,-62.394c-0,-17.304 -12.43,-31.196 -31.197,-31.196Zm155.983,-0c-18.766,-0 -31.196,13.892 -31.196,31.196l-0,62.394c-0,17.304 12.43,31.196 31.196,31.196c18.767,0 31.197,-13.892 31.197,-31.196l-0,-62.394c-0,-17.304 -12.43,-31.196 -31.197,-31.196Zm155.984,-0c-18.767,-0 -31.197,13.892 -31.197,31.196l-0,62.394c-0,17.304 12.43,31.196 31.197,31.196c18.766,0 31.196,-13.892 31.196,-31.196l0,-62.394c0,-17.304 -12.43,-31.196 -31.196,-31.196Zm155.983,-0c-18.767,-0 -31.197,13.892 -31.197,31.196l0,62.394c0,17.304 12.43,31.196 31.197,31.196c18.767,0 31.196,-13.892 31.196,-31.196l0,-62.394c0,-17.304 -12.429,-31.196 -31.196,-31.196Zm155.983,-0c-18.767,-0 -31.197,13.892 -31.197,31.196l0,62.394c0,17.304 12.43,31.196 31.197,31.196c18.767,0 31.197,-13.892 31.197,-31.196l-0,-62.394c-0,-17.304 -12.43,-31.196 -31.197,-31.196Zm155.983,-0c-18.766,-0 -31.196,13.892 -31.196,31.196l-0,62.394c-0,17.304 12.43,31.196 31.196,31.196c18.767,0 31.197,-13.892 31.197,-31.196l-0,-62.394c-0,-17.304 -12.43,-31.196 -31.197,-31.196Zm155.983,-0c-18.766,-0 -31.196,13.892 -31.196,31.196l-0,62.394c-0,17.304 12.43,31.196 31.196,31.196c18.767,0 31.197,-13.892 31.197,-31.196l0,-62.394c0,-17.304 -12.43,-31.196 -31.197,-31.196Zm155.984,-0c-18.767,-0 -31.197,13.892 -31.197,31.196l0,62.394c0,17.304 12.43,31.196 31.197,31.196c18.766,0 31.196,-13.892 31.196,-31.196l0,-62.394c0,-17.304 -12.43,-31.196 -31.196,-31.196Zm155.983,-0c-18.767,-0 -31.197,13.892 -31.197,31.196l0,62.394c0,17.304 12.43,31.196 31.197,31.196c18.767,0 31.197,-13.892 31.197,-31.196l-0,-62.394c-0,-17.304 -12.43,-31.196 -31.197,-31.196Zm155.983,-0c-18.767,-0 -31.196,13.892 -31.196,31.196l-0,62.394c-0,17.304 12.429,31.196 31.196,31.196c18.767,0 31.197,-13.892 31.197,-31.196l-0,-62.394c-0,-17.304 -12.43,-31.196 -31.197,-31.196Z" style="fill:#fc9c19;fill-rule:nonzero;"/><path d="M1759,950.559c-51.548,-0 -93.59,42.042 -93.59,93.59l-0,36.924c-9.749,-3.534 -20.229,-5.727 -31.197,-5.727l-249.573,-0c-51.548,-0 -93.59,42.042 -93.59,93.589l-0,114.063c-6.824,-3.899 -13.892,-7.312 -21.935,-9.383l-180.843,-48.501c-24.007,-6.337 -49.233,-3.169 -70.924,9.383c-21.57,12.43 -37.168,32.659 -43.627,56.788l-226.175,843.772c-13.283,49.963 16.329,101.267 66.293,114.672l41.433,11.089l-219.352,0c-51.547,0 -93.59,42.042 -93.59,93.59l0,187.18c0,51.548 42.043,93.59 93.59,93.59l155.983,-0l0,155.983c0,51.548 42.043,93.59 93.59,93.59c51.548,0 93.59,-42.042 93.59,-93.59l0,-155.983l1123.08,-0l-0,155.983c-0,51.548 42.042,93.59 93.59,93.59c51.547,0 93.59,-42.042 93.59,-93.59l-0,-155.983l155.983,-0c51.547,-0 93.59,-42.042 93.59,-93.59l-0,-187.18c-0,-51.548 -42.043,-93.59 -93.59,-93.59l-93.59,0l-0,-904.703c-0,-51.547 -42.043,-93.59 -93.59,-93.59l-124.787,0c-10.967,0 -21.447,2.194 -31.196,5.728l-0,-224.104c-0,-51.548 -42.043,-93.59 -93.59,-93.59l-249.573,-0Zm-0,62.393l249.573,0c17.182,0 31.196,14.014 31.196,31.197l0,1216.67l-311.966,0l-0,-1216.67c-0,-17.183 14.014,-31.197 31.197,-31.197Zm-374.36,124.787l249.573,-0c17.182,-0 31.197,14.014 31.197,31.196l-0,1091.88l-311.967,0l0,-1091.88c0,-17.182 14.014,-31.196 31.197,-31.196Zm-320.619,146.6c2.803,-0 5.484,0.365 8.165,1.096l180.843,48.38c16.573,4.509 26.566,21.691 22.057,38.386l-226.176,843.65c-2.071,8.043 -7.312,14.745 -14.501,19.011c-7.19,4.143 -15.599,5.24 -23.642,3.046l-180.843,-48.379c-16.573,-4.509 -26.444,-21.692 -21.935,-38.387l226.054,-843.65c2.072,-8.042 7.312,-14.745 14.502,-19.01c4.752,-2.681 10.114,-4.143 15.476,-4.143Zm1069.34,40.58l124.787,-0c17.182,-0 31.197,14.014 31.197,31.196l-0,904.703l-187.18,0l-0,-904.703c-0,-17.182 14.014,-31.196 31.196,-31.196Zm-842.309,228.613l-0,707.286l-195.467,0c5.972,-8.652 10.846,-18.279 13.649,-28.759l181.818,-678.527Zm-655.13,769.679l1809.41,0c17.182,0 31.196,14.015 31.196,31.197l0,187.18c0,17.182 -14.014,31.197 -31.196,31.197l-1809.41,-0c-17.182,-0 -31.196,-14.015 -31.196,-31.197l-0,-187.18c-0,-17.182 14.014,-31.197 31.196,-31.197Zm218.377,311.967l62.393,-0l0,155.983c0,17.183 -14.014,31.197 -31.197,31.197c-17.182,-0 -31.196,-14.014 -31.196,-31.197l-0,-155.983Zm1310.26,-0l62.393,-0l0,155.983c0,17.183 -14.014,31.197 -31.196,31.197c-17.183,-0 -31.197,-14.014 -31.197,-31.197l-0,-155.983Z" style="fill:#f0f0f0;fill-rule:nonzero;"/></g></svg>