<?xml version="1.0" encoding="UTF-8" standalone="no"?><!DOCTYPE svg PUBLIC "-//W3C//DTD SVG 1.1//EN" "http://www.w3.org/Graphics/SVG/1.1/DTD/svg11.dtd"><svg width="100%" height="100%" viewBox="0 0 267 267" version="1.1" xmlns="http://www.w3.org/2000/svg" xmlns:xlink="http://www.w3.org/1999/xlink" xml:space="preserve" xmlns:serif="http://www.serif.com/" style="fill-rule:evenodd;clip-rule:evenodd;stroke-linejoin:round;stroke-miterlimit:2;"><path d="M209.009,16.764c-0.465,0.046 -0.922,0.142 -1.367,0.285c-1.782,0.572 -3.325,1.895 -3.996,3.736c-0,0.002 -0,0.005 -0,0.008c-1.067,2.948 -2.849,5.682 -4.574,9.261c-1.724,3.578 -3.239,8.039 -3.239,13.786c0,6.238 2.163,10.906 5.095,13.81c-26.155,8.011 -48.168,17.792 -66.561,28.711c1.21,-4.106 2.195,-9.369 2.71,-15.609c6.298,-0.256 12.344,-1.904 17.065,-5.729c5.143,-4.166 8.325,-10.869 8.325,-19.263c0,-3.439 -0.677,-6.291 -1.212,-8.065c-0.81,-2.683 -3.504,-4.577 -6.307,-4.419c-0.003,0 -0.006,0 -0.008,0c-2.459,0.142 -7.015,0.46 -11.589,2.149c-1.62,-3.109 -3.862,-5.671 -6.25,-7.626c-4.612,-3.775 -9.726,-5.706 -12.874,-6.681c-3.715,-1.149 -7.728,1.51 -8.106,5.379c-0.26,2.674 -0.989,4.517 -1.863,7.276c-0.874,2.759 -1.758,6.293 -1.758,11.238c0,0.367 0.057,0.701 0.073,1.058c-7.934,1.061 -13.115,6.086 -15.202,8.496c-1.58,1.825 -1.967,4.536 -0.96,6.731c0.87,1.902 2.631,5.173 5.843,8.138c3.216,2.968 8.061,5.566 14.258,5.566c4.944,-0 8.772,-1.23 11.857,-2.816c-0.772,6.788 -2.002,12.378 -3.361,15.837c-1.81,4.608 -3.206,6.177 -3.206,6.177c-0.093,0.112 -0.18,0.228 -0.261,0.35c-4.854,3.328 -9.422,6.743 -13.704,10.221c-1.013,-7.441 -3.399,-12.132 -5.2,-14.632c-0.953,-1.325 -2.44,-2.19 -4.037,-2.474c-1.596,-0.284 -3.301,0.015 -4.687,1.025c-3.031,2.212 -8.954,7.366 -12.289,15.617c-0.498,-0.271 -0.995,-0.545 -1.497,-0.773c-5.737,-2.606 -11.8,-3.28 -15.12,-3.516c-0.003,0 -0.006,0 -0.009,0c-3.553,-0.245 -6.665,2.729 -6.665,6.242l0,7.219c0,9.052 2.445,15.634 7.316,19.474c3.162,2.492 6.924,3.593 10.954,4.11c-7.213,9.826 -19.312,28.781 -25.553,53.043c-4.115,15.987 -5.217,30.953 -5.217,55.729c0,0.02 -0,0.04 -0,0.059c-0,2.286 1.881,4.167 4.167,4.167c2.286,0 4.167,-1.881 4.167,-4.167c0,-0.019 -0,-0.039 -0,-0.059c-0,-6.801 0.116,-12.67 0.317,-18.099c0.048,-0.071 0.095,-0.145 0.138,-0.219c0,-0 3.314,-5.491 11.996,-11.402c6.639,-4.52 16.303,-9.091 29.769,-11.002c0.222,1.559 0.649,3.518 1.538,5.883c2.173,5.78 7.118,12.642 16.317,14.681c4.147,0.919 8.235,2.243 10.791,3.142l-0,-0.008c4.14,1.461 8.488,-2.177 8.292,-6.332l0,-0.008c-0.315,-6.645 -1.744,-12.086 -4.402,-16.243c6.382,1.051 13.384,2.107 23.16,2.107c10.375,0 17.617,-2.154 23.169,-4.313c0.228,2.159 0.779,5.314 2.897,9.18c3.202,5.844 10.31,11.8 22.136,11.8l14.258,-0c3.92,-0 7.097,-3.875 6.095,-7.772c-1.023,-3.982 -3.285,-11.353 -8.464,-17.326c3.801,-4.573 5.566,-9.483 7.496,-12.166l-0.009,0c2.302,-3.195 0.766,-8.018 -2.848,-9.399c-0.003,-0 -0.005,-0 -0.008,-0c-3.516,-1.337 -9.722,-3.337 -16.626,-3.337c-0.92,-0 -1.755,0.109 -2.62,0.179c-3.544,-7.849 -10.016,-13.107 -13.648,-15.698c-1.627,-1.159 -3.647,-1.338 -5.428,-0.765c-1.781,0.572 -3.325,1.894 -3.996,3.735c-0.002,0.003 -0.005,0.006 -0.008,0.008c-1.068,2.95 -2.84,5.683 -4.565,9.261c-1.725,3.579 -3.247,8.04 -3.247,13.786c-0,4.933 1.373,8.851 3.385,11.727c-4.587,1.47 -10.544,2.767 -17.969,2.767c-9.822,-0 -16.74,-1.199 -23.527,-2.319c0.364,-0.292 0.724,-0.59 1.042,-0.912c4.251,-4.298 6.326,-9.51 7.625,-13.688c1.236,-3.968 -1.99,-8.081 -6.03,-8.081l-12.589,-0c-5.997,-0 -11.889,1.518 -16.203,5.745c-3.711,3.636 -5.686,9.154 -6.201,16.016c-15.235,2.024 -26.518,7.182 -34.27,12.459c-2.589,1.763 -4.767,3.54 -6.632,5.225c0.76,-8.002 1.96,-15.013 3.825,-22.258c7.259,-28.222 22.519,-48.394 27.384,-54.361c3.273,1.774 8.4,3.841 15.397,3.841c12.839,-0 19.752,-8.205 22.25,-12.484c1.781,-3.049 0.584,-7.173 -2.678,-8.716c-0.005,0 -0.011,0 -0.016,0c-2.963,-1.392 -6.49,-4.7 -11.564,-6.584c5.531,-4.709 11.562,-9.324 18.18,-13.785c3.996,0.175 16.358,0.961 28.377,4.533c-3.434,2.927 -6.453,7.883 -6.453,14.786c-0,10.564 4.689,17.292 7.69,20.37c2.59,2.65 7.235,2.207 9.416,-0.57c1.991,-2.538 4.956,-5.171 7.512,-8.472c1.933,1.3 4.142,2.347 6.713,2.971c4.507,1.092 7.898,2.364 9.994,3.271c0.003,0.003 0.005,0.006 0.008,0.008c4.07,1.753 8.759,-1.678 8.667,-5.957c0,-0.002 0,-0.005 -0,-0.008c-0.234,-9.89 -1.39,-17.455 -5.534,-23.03c6.435,-6.121 8.797,-12.074 9.554,-15.487c0,-0.003 0,-0.005 0,-0.008c0.704,-3.196 -1.348,-6.647 -4.622,-7.438c-2.674,-0.647 -7.517,-1.734 -12.085,-1.734c-9.46,0 -15.522,5.203 -18.408,10.132c-1.689,2.885 -1.843,4.374 -2.067,5.9c-8.939,-3.861 -18.971,-5.792 -26.872,-6.746c17.834,-10.481 39.263,-19.91 64.941,-27.637c0.448,1.958 1.113,4.196 2.393,6.543c3.185,5.843 10.266,11.808 22.046,11.808c8.308,0 14.304,-2.349 17.179,-3.776l0.008,-0.008c2.619,-1.298 4.035,-4.489 3.223,-7.3c-0.892,-3.093 -3.083,-9.404 -8.081,-14.64c0.386,-0.471 0.787,-0.932 1.139,-1.424c4.253,-5.946 6.374,-13.22 7.145,-19.93l-0.008,0.008c0.498,-4.249 -3.706,-8.143 -8,-6.828c-5.135,1.582 -10.55,1.93 -15.795,2.865c-3.653,-7.184 -9.638,-12.031 -13.078,-14.486c-0.003,0 -0.006,0 -0.008,0c-1.221,-0.869 -2.666,-1.187 -4.061,-1.05Zm1.164,9.562c2.472,2.006 5.044,4.925 7.259,8.513c-0.99,0.453 -1.964,0.957 -2.914,1.562c-0.014,0.009 -0.035,0.016 -0.049,0.025c-0.254,0.163 -0.459,0.338 -0.699,0.504c-0.39,0.272 -0.79,0.537 -1.148,0.822c-2.65,2.066 -4.286,4.305 -5.436,6.503c-0.328,0.591 -0.62,1.156 -0.879,1.733c-0.054,0.131 -0.113,0.261 -0.163,0.391c-0.414,0.967 -0.755,1.875 -1.009,2.742c-0.557,-1.272 -0.968,-2.86 -0.968,-5.281c-0,-4.367 0.994,-7.213 2.417,-10.165c1.041,-2.16 2.361,-4.73 3.589,-7.349Zm-86.443,3.76c2.489,0.917 5.433,1.984 8.09,4.159c2.425,1.985 4.34,4.327 5.192,7.503c0.019,0.123 0.043,0.245 0.073,0.366c0.264,1.062 0.415,2.182 0.415,3.426c-0,5.197 -1.292,8.954 -2.743,11.63c-0.866,1.453 -1.762,2.593 -2.473,3.279c-0.805,-0.337 -1.69,-0.735 -2.759,-1.359c-1.946,-1.264 -4.056,-2.954 -5.729,-5.216c-0.099,-0.133 -0.207,-0.254 -0.302,-0.391c-0.921,-1.325 -1.68,-2.809 -2.132,-4.468c-0.015,-0.052 -0.031,-0.103 -0.049,-0.154c-0.298,-1.179 -0.48,-2.451 -0.48,-3.85c0,-4.025 0.598,-6.294 1.368,-8.724c0.531,-1.678 1.039,-3.976 1.529,-6.201Zm117.318,8.016c-0.882,4.769 -2.424,9.613 -5.013,13.233c-0.793,1.108 -1.636,2.104 -2.555,2.978c-0.171,0.108 -0.335,0.227 -0.488,0.358c-1.951,1.683 -4.129,2.849 -6.82,3.361c-0.12,0.022 -0.237,0.046 -0.358,0.065c-0.878,0.145 -1.802,0.236 -2.8,0.236c-1.449,0 -2.647,-0.114 -3.702,-0.284c-0.587,-0.098 -1.043,-0.247 -1.522,-0.383c-0.348,-0.097 -0.735,-0.181 -1.034,-0.293c-0.552,-0.211 -1.019,-0.433 -1.424,-0.675c-0.095,-0.057 -0.205,-0.114 -0.293,-0.171c-0.438,-0.287 -0.809,-0.583 -1.107,-0.863c-0.101,-0.095 -0.207,-0.184 -0.317,-0.268c-0.876,-0.924 -0.983,-1.346 -1.009,-1.49l-0,-0.008c0.004,-0.207 0.021,-0.717 0.138,-1.424l0,-0.008c0.178,-1.068 0.587,-2.59 1.522,-4.208l-0,-0.008c0.624,-1.079 1.487,-2.198 2.669,-3.263c0.593,-0.534 1.268,-1.055 2.035,-1.546c0.622,-0.399 1.375,-0.732 2.173,-1.05c0.422,-0.163 0.868,-0.32 1.334,-0.464c0.214,-0.068 0.444,-0.13 0.668,-0.195c4.571,-1.285 10.94,-1.909 17.903,-3.63Zm-87.475,3.955c0.248,1.152 0.561,2.19 0.561,3.703c0,6.436 -2.037,10.196 -5.233,12.785c-1.913,1.55 -4.52,2.499 -7.389,3.141c1.115,-1.913 2.147,-4.173 2.938,-6.836c0.041,-0.133 0.066,-0.288 0.106,-0.423c0.354,-1.252 0.693,-2.527 0.903,-3.939c0.004,-0.025 0.004,-0.056 0.008,-0.081c0.224,-1.535 0.366,-3.146 0.366,-4.867c0,-0.518 -0.064,-1.004 -0.097,-1.505c2.683,-1.026 5.507,-1.727 7.837,-1.978Zm-39.047,12.386c1.918,4.274 4.916,7.567 7.805,9.847c0.469,0.371 0.918,0.624 1.383,0.953c-1.837,0.796 -4.106,1.424 -7.202,1.424c-3.978,-0 -6.57,-1.47 -8.61,-3.353c-1.595,-1.472 -2.363,-2.995 -3.06,-4.289c1.81,-1.818 5.059,-4.191 9.684,-4.582Zm120.533,8.911c3.01,3.115 4.975,6.698 5.932,9.408c-2.439,1.012 -6.152,2.238 -11.645,2.238c-9.233,-0 -12.662,-3.67 -14.73,-7.463c-0.69,-1.264 -0.394,-1.415 -0.708,-2.547c0.32,0.122 0.715,0.196 1.05,0.309c0.728,0.267 1.518,0.48 2.343,0.676c0.433,0.101 0.844,0.221 1.303,0.301c0.361,0.063 0.733,0.115 1.114,0.163c1.037,0.132 2.114,0.228 3.296,0.228c4.584,-0 8.615,-1.269 12.045,-3.313Zm-47.746,28.313c2.37,-0 5.239,0.629 7.707,1.139c-0.839,2.405 -2.689,5.748 -7.203,9.814c-3.5,-1.688 -7.725,-2.505 -12.524,-2.587c0.291,-0.964 0.122,-1.185 0.806,-2.352c1.841,-3.145 4.532,-6.014 11.214,-6.014Zm-90.373,5.59c1.346,2.491 2.917,6.555 3.019,14.266c-0.547,0.496 -1.099,0.992 -1.635,1.49c-2.708,0.626 -5.054,1.812 -7.048,3.296c-0.482,-2.237 -1.428,-4.203 -2.653,-5.925c1.757,-6.43 5.46,-10.68 8.317,-13.127Zm74.618,11.076l2.937,0c1.589,0.001 2.913,0.107 4.167,0.244c0.725,0.086 1.372,0.202 2.002,0.334c0.433,0.087 0.854,0.184 1.245,0.293c1.612,0.456 2.925,1.063 3.939,1.823c0.053,0.039 0.108,0.077 0.163,0.114c0.65,0.528 1.232,1.118 1.741,1.798c2.02,2.701 3.166,8 3.614,15.332c-2.314,-0.878 -4.502,-1.787 -8.073,-2.653c-2.597,-0.629 -4.592,-1.895 -6.193,-3.515c-0.098,-0.137 -0.204,-0.267 -0.318,-0.391c-3.293,-3.603 -4.502,-8.306 -5.11,-12.02c-0.029,-0.433 -0.065,-0.844 -0.114,-1.359Zm-104.891,0.505c2.94,0.334 6.638,0.747 10.009,2.279c1.635,0.742 2.929,1.58 4.004,2.547c0.085,0.104 0.175,0.205 0.269,0.301c1.124,1.128 1.873,2.292 2.197,3.874c0.01,0.05 0.024,0.095 0.033,0.146c0.099,0.537 0.154,1.116 0.154,1.766c0,1.471 -0.078,2.701 -0.203,3.776c-0.016,0.145 -0.047,0.252 -0.065,0.391c-0.126,0.946 -0.275,1.801 -0.456,2.506c-0.278,1.064 -0.589,1.887 -0.854,2.393c-4.783,-0.192 -8.831,-0.742 -10.946,-2.409c-2.42,-1.907 -4.142,-5.263 -4.142,-12.931l-0,-4.639Zm96.5,1.391c0.004,0.027 0.013,0.056 0.017,0.082c0.181,1.651 0.553,3.695 1.481,6.494c0.833,2.513 2.06,5.215 3.776,7.731c-1.52,2.167 -3.72,4.648 -6.153,7.43c-1.846,-2.399 -3.955,-6.039 -3.955,-12.549c0,-4.938 1.743,-7.132 3.752,-8.707c0.408,-0.32 0.651,-0.234 1.082,-0.481Zm-60.726,10.604c-0.012,0 0.244,0.04 0.944,0.09c0.128,0.008 0.255,0.011 0.383,0.008c0.011,0 0.022,0 0.032,-0c4.222,0.489 7.366,3.152 11.735,5.672c-2.068,2.93 -5.674,6.73 -13.631,6.73c-5.811,0 -9.075,-1.386 -11.189,-2.604c0.319,-0.837 0.584,-1.55 1.025,-2.417c0.329,-0.572 0.617,-1.137 1.017,-1.709c0.428,-0.613 0.895,-1.193 1.384,-1.749c0.243,-0.273 0.505,-0.52 0.765,-0.774c0.356,-0.351 0.73,-0.677 1.123,-0.984c0.272,-0.215 0.536,-0.447 0.822,-0.635c0.462,-0.304 0.955,-0.555 1.464,-0.781c0.134,-0.058 0.27,-0.111 0.407,-0.163c0.381,-0.148 0.783,-0.266 1.197,-0.366c0.035,-0.009 0.07,-0.017 0.105,-0.025c0.003,-0 0.006,0.001 0.009,0c0.477,0.014 0.953,-0.055 1.407,-0.203c0.334,-0.03 0.644,-0.09 1.001,-0.09Zm78.557,47.176c2.629,2.136 5.386,5.317 7.617,9.221c-1.061,0.448 -2.032,0.933 -2.905,1.457c-0.022,0.012 -0.053,0.019 -0.074,0.032c0,0.003 0,0.006 0,0.008c-0.663,0.401 -1.28,0.824 -1.863,1.262c-2.656,1.954 -4.328,4.104 -5.526,6.225c-0.346,0.581 -0.669,1.14 -0.944,1.709c-0.058,0.131 -0.116,0.26 -0.171,0.391c-0.431,0.939 -0.788,1.822 -1.058,2.669c-0.61,-1.294 -1.074,-2.919 -1.074,-5.477c0,-4.366 0.994,-7.213 2.417,-10.164c1.039,-2.156 2.355,-4.722 3.581,-7.333Zm-62.394,15.324l9.179,0c-1.068,2.686 -2.057,5.493 -4.118,7.577c-2.802,2.833 -6.661,4.923 -13.566,4.923l-5.363,0c0.592,-4.24 1.736,-7.41 3.492,-9.131c2.329,-2.283 5.739,-3.369 10.376,-3.369Zm81.575,0c4.233,0 7.964,1.249 11.06,2.263c-1.903,3.256 -3.516,6.66 -5.518,9.049c-0.564,0.674 -1.179,1.285 -1.839,1.864c-0.069,0.047 -0.137,0.095 -0.204,0.146c-1.77,1.427 -4.004,2.569 -7.462,3.068c-0.104,0.015 -0.211,0.028 -0.318,0.041c-1.134,0.148 -2.38,0.236 -3.8,0.236c-1.077,-0 -1.983,-0.106 -2.791,-0.269c-0.365,-0.074 -0.65,-0.192 -0.969,-0.293c-0.382,-0.119 -0.785,-0.232 -1.107,-0.382c-0.292,-0.135 -0.53,-0.295 -0.781,-0.448c-0.291,-0.18 -0.596,-0.356 -0.838,-0.553c-0.109,-0.086 -0.209,-0.165 -0.309,-0.252c-0.343,-0.31 -0.661,-0.626 -0.928,-0.936c-0.003,-0.003 -0.005,-0.006 -0.008,-0.008c-0.61,-0.711 -0.719,-1.013 -0.871,-1.327c0.022,-0.725 0.163,-2.887 1.742,-5.298l0.008,-0.008c0.951,-1.449 2.42,-2.986 4.695,-4.362c1.226,-0.738 3.245,-1.562 5.721,-2.051c0.044,-0.01 0.087,-0.021 0.131,-0.032c1.338,-0.258 2.77,-0.448 4.386,-0.448Zm-95.142,21.2c6.321,0.381 11.317,1.262 14.063,3.174c2.99,2.081 4.638,5.925 5.379,12.288c-2.547,-0.829 -5.094,-1.717 -8.439,-2.458c-6.119,-1.356 -8.742,-5.299 -10.311,-9.472c-0.691,-1.837 -0.477,-2.121 -0.692,-3.532Zm100.261,0.838c3.065,3.506 5.138,7.739 6.291,11.296l-11.304,-0c-9.291,-0 -12.751,-3.68 -14.828,-7.471c-0.606,-1.106 -0.475,-1.415 -0.651,-2.238c2.086,0.812 4.489,1.375 7.292,1.375c5.38,0 9.717,-1.164 13.2,-2.962Z" style="fill:#f0f0f0;fill-rule:nonzero;"/><path d="M42.505,140.21c-0.011,-0 -0.022,-0 -0.034,-0c-2.286,-0 -4.167,1.881 -4.167,4.167c0,1.55 0.865,2.977 2.24,3.694l7.34,3.955c0.643,0.381 1.377,0.582 2.124,0.582c2.286,0 4.167,-1.881 4.167,-4.167c-0,-1.592 -0.912,-3.05 -2.344,-3.747l-7.332,-3.955c-0.61,-0.341 -1.296,-0.523 -1.994,-0.529Zm-8.993,19.059c-2.277,0.012 -4.145,1.89 -4.145,4.167c0,1.721 1.066,3.272 2.672,3.89l7.732,3.1c0.528,0.233 1.099,0.353 1.676,0.353c2.286,-0 4.168,-1.881 4.168,-4.167c-0,-1.749 -1.101,-3.319 -2.744,-3.917l-7.731,-3.1c-0.515,-0.217 -1.069,-0.328 -1.628,-0.326Zm-6.754,20.044c-2.232,0.075 -4.027,1.932 -4.027,4.165c0,1.912 1.316,3.59 3.172,4.046l8.065,2.1c0.342,0.089 0.693,0.133 1.046,0.133c2.287,0 4.17,-1.882 4.17,-4.169c-0,-1.894 -1.291,-3.562 -3.124,-4.037l-8.065,-2.091c-0.403,-0.111 -0.82,-0.16 -1.237,-0.147Zm-4.118,20.703c-2.201,0.116 -3.948,1.958 -3.948,4.162c-0,2.105 1.596,3.897 3.688,4.139l8.26,1.099c0.206,0.031 0.414,0.047 0.623,0.047c2.286,-0 4.167,-1.882 4.167,-4.168c-0,-2.107 -1.598,-3.899 -3.692,-4.139l-8.268,-1.099c-0.275,-0.041 -0.553,-0.055 -0.83,-0.041Zm-1.685,20.891c-2.198,0.117 -3.944,1.959 -3.944,4.161c0,2.226 1.785,4.079 4.01,4.164l8.325,0.35c0.085,0.005 0.171,0.008 0.257,0.008c2.286,-0 4.167,-1.881 4.167,-4.167c-0,-2.251 -1.824,-4.116 -4.074,-4.166l-8.326,-0.35c-0.138,-0.007 -0.276,-0.007 -0.415,-0Zm-0.122,20.76c-0.019,-0.001 -0.039,-0.001 -0.059,-0.001c-2.286,0 -4.167,1.881 -4.167,4.167c0,2.286 1.881,4.167 4.167,4.167c0.02,0 0.04,0 0.059,0l8.334,0c0.019,0 0.039,0 0.059,0c2.286,0 4.167,-1.881 4.167,-4.167c-0,-2.286 -1.881,-4.167 -4.167,-4.167c-0.02,0 -0.04,0 -0.059,0.001l-8.334,-0Z" style="fill:#fc9c19;fill-rule:nonzero;"/></svg>