<?xml version="1.0" encoding="UTF-8" standalone="no"?><!DOCTYPE svg PUBLIC "-//W3C//DTD SVG 1.1//EN" "http://www.w3.org/Graphics/SVG/1.1/DTD/svg11.dtd"><svg width="100%" height="100%" viewBox="0 0 4793 1772" version="1.1" xmlns="http://www.w3.org/2000/svg" xmlns:xlink="http://www.w3.org/1999/xlink" xml:space="preserve" xmlns:serif="http://www.serif.com/" style="fill-rule:evenodd;clip-rule:evenodd;stroke-linejoin:round;stroke-miterlimit:2;"><g id="Layer-1" serif:id="Layer 1"><path d="M3860.59,1421.82l0,14.591l-206.979,0c-2.537,88.9 43.175,141.592 105.392,141.592c43.171,0 71.741,-18.404 94.596,-51.425l10.162,5.725c-16.508,62.846 -62.858,106.017 -135.867,106.017c-92.054,-0 -153.65,-67.934 -153.65,-165.7c0,-108.575 69.846,-183.5 156.83,-183.5c85.07,-0 129.516,56.521 129.516,132.7m-205.712,-8.892l126.979,0c-0,-59.679 -15.871,-100.312 -57.133,-100.312c-41.909,-0 -64.767,41.916 -69.846,100.312" style="fill:#fff;fill-rule:nonzero;"/><path d="M4325.9,1397.07c0,-36.188 -12.695,-54.604 -45.712,-54.604c-25.392,-0 -45.708,12.066 -65.392,26.666l0,213.963c0,22.212 8.25,26.033 37.454,27.937l0,20.946l-163.804,0l0,-20.946c29.846,-1.904 38.104,-5.725 38.104,-27.937l0,-186.025c0,-36.188 -12.695,-54.604 -45.72,-54.604c-25.392,-0 -45.713,12.066 -66.025,26.029l-0,214.6c-0,22.212 8.891,26.033 38.095,27.937l0,20.946l-165.704,0l0,-20.946c29.838,-1.904 39.992,-5.725 39.992,-27.937l-0,-224.758l-38.096,-22.225l0,-12.055l113.642,-34.92l14.612,-0l-2.541,62.858c26.666,-34.292 60.312,-62.858 113.65,-62.858c46.345,-0 74.27,19.675 82.529,64.112c26.675,-33.637 63.487,-64.112 116.191,-64.112c58.405,-0 86.984,34.92 86.984,102.225l-0,191.733c-0,22.212 10.15,26.033 39.358,27.937l0,20.946l-165.079,0l-0,-20.946c29.212,-1.904 37.462,-5.725 37.462,-27.937l0,-186.025Z" style="fill:#fff;fill-rule:nonzero;"/><path d="M2509.11,51.424l9.534,146.675l-20.313,-0c-40.642,-94.604 -55.879,-123.809 -104.775,-123.809l-33.642,0l0,358.713c0,34.929 13.967,36.829 57.142,41.9l0,22.225l-206.979,-0l-0,-22.225c42.533,-5.071 57.142,-6.971 57.142,-41.9l-0,-358.713l-33.646,0c-48.884,0 -64.129,29.205 -105.392,123.809l-20.312,-0l9.512,-146.675l391.729,-0Z" style="fill:#fff;fill-rule:nonzero;"/><path d="M2578.24,63.501l-38.1,-19.688l-0,-13.337l112.383,-30.475l13.958,-0l0,216.5c26.675,-31.742 63.5,-62.217 116.83,-62.217c59.683,0 91.425,34.921 91.425,104.129l-0,189.83c-0,22.212 10.154,26.033 39.358,27.937l-0,20.946l-166.338,-0l0,-20.946c29.205,-1.904 38.73,-5.725 38.73,-27.937l-0,-185.384c-0,-36.825 -14.613,-55.25 -49.525,-55.25c-26.034,0 -50.159,12.079 -70.48,26.034l0,214.6c0,22.212 9.525,26.033 38.738,27.937l-0,20.946l-166.346,-0l0,-20.946c29.204,-1.904 39.367,-5.725 39.367,-27.937l-0,-384.742Z" style="fill:#fff;fill-rule:nonzero;"/><path d="M3208.62,286.973l0,14.6l-206.979,-0c-2.546,88.892 43.175,141.587 105.4,141.587c43.162,0 71.733,-18.404 94.596,-51.429l10.154,5.729c-16.508,62.842 -62.858,106.013 -135.867,106.013c-92.054,-0 -153.65,-67.929 -153.65,-165.696c0,-108.575 69.846,-183.5 156.829,-183.5c85.071,0 129.517,56.517 129.517,132.696m-205.712,-8.888l126.979,0c-0,-59.683 -15.871,-100.312 -57.134,-100.312c-41.908,-0 -64.766,41.912 -69.845,100.312" style="fill:#fff;fill-rule:nonzero;"/><path d="M2117.64,1066.83l-0,-22.225c44.437,-5.071 50.787,-8.875 50.787,-43.8l0,-313.629c0,-34.925 -6.35,-38.729 -50.787,-43.813l-0,-22.237l205.07,-0c97.775,-0 153.009,37.471 153.009,110.487c-0,64.125 -59.046,97.134 -119.363,104.117c84.45,2.546 144.754,43.171 144.754,111.1c0,76.825 -58.408,120 -168.237,120l-215.233,0Zm144.116,-420.287l0,176.491l31.109,0c62.229,0 92.062,-30.475 92.062,-90.154c0,-56.5 -33.654,-86.337 -92.687,-86.337l-30.484,-0Zm0,204.429l0,147.291c0,34.284 14.609,43.175 52.704,43.175l6.342,0c57.15,0 87.621,-33.02 87.621,-95.866c-0,-56.517 -31.746,-94.6 -102.854,-94.6l-43.813,-0Z" style="fill:#fff;fill-rule:nonzero;"/><path d="M2651.95,1012.86c-0,26.033 14.608,29.838 53.971,33.025l-0,20.946l-181.58,-0l0,-20.946c29.842,-1.904 39.992,-5.725 39.992,-27.937l0,-224.75l-38.087,-22.238l-0,-12.054l113.641,-34.921l14.6,0l-2.537,93.963c30.475,-69.196 49.525,-93.963 86.983,-93.963c13.329,0 22.854,4.446 27.938,10.788l-0,68.57l-12.067,0c-39.363,0 -70.471,1.909 -102.854,34.292l-0,175.225Z" style="fill:#fff;fill-rule:nonzero;"/><path d="M2920.66,1017.95c0,22.209 10.163,26.038 40,27.938l0,20.941l-167.608,0l-0,-20.941c29.842,-1.9 39.992,-5.729 39.992,-27.938l-0,-224.75l-38.088,-22.233l0,-12.058l111.733,-34.921l13.971,-0l0,293.962Zm-96.508,-382.2c-0,-27.316 20.962,-50.162 51.429,-50.162c31.108,-0 52.071,22.846 52.071,50.162c-0,26.65 -20.963,50.146 -52.071,50.146c-30.467,0 -51.429,-23.496 -51.429,-50.146" style="fill:#fff;fill-rule:nonzero;"/><path d="M3091.21,730.334l82.541,0l0,29.217l-82.541,-0l-0,210.133c-0,38.725 14.608,55.25 44.446,55.25c17.775,0 31.741,-5.725 47.616,-17.779l7.617,11.437c-20.321,31.742 -52.063,54.584 -97.767,54.584c-52.071,-0 -90.154,-27.288 -90.154,-98.404l0,-215.221l-39.367,-0l0,-14.6c43.813,-19.688 81.263,-55.25 108.563,-97.15l19.046,-0l-0,82.533Z" style="fill:#fff;fill-rule:nonzero;"/><path d="M3339.6,1017.95c0,22.209 10.163,26.038 40,27.938l0,20.941l-167.608,0l-0,-20.941c29.842,-1.9 39.992,-5.729 39.992,-27.938l-0,-224.75l-38.088,-22.233l0,-12.058l111.733,-34.921l13.971,-0l0,293.962Zm-96.508,-382.2c-0,-27.316 20.962,-50.162 51.429,-50.162c31.108,-0 52.071,22.846 52.071,50.162c-0,26.65 -20.963,50.146 -52.071,50.146c-30.467,0 -51.429,-23.496 -51.429,-50.146" style="fill:#fff;fill-rule:nonzero;"/><path d="M3414.48,1041.44l-3.804,-86.979l23.492,-0c13.962,55.237 46.345,96.491 95.233,96.491c34.283,0 60.304,-16.508 60.304,-51.429c0,-34.262 -23.492,-47.6 -73.642,-65.383c-67.933,-23.492 -102.858,-50.146 -102.858,-109.2c0,-63.488 48.258,-100.954 118.096,-100.954c41.262,-0 76.821,10.795 103.483,27.937l0,76.821l-21.587,-0c-10.154,-45.704 -36.821,-82.533 -81.896,-82.533c-32.383,-0 -51.429,19.045 -51.429,46.345c-0,29.217 19.691,43.18 68.566,60.95c69.205,24.121 109.213,50.15 109.213,112.375c0,67.925 -50.796,107.3 -128.892,107.3c-48.246,0 -88.246,-12.695 -114.279,-31.741" style="fill:#fff;fill-rule:nonzero;"/><path d="M3709.27,633.203l-38.104,-19.688l-0,-13.337l112.379,-30.475l13.967,-0l-0,216.5c26.675,-31.742 63.495,-62.217 116.829,-62.217c59.671,0 91.412,34.921 91.412,104.129l0,189.83c0,22.212 10.167,26.041 39.367,27.937l-0,20.946l-166.342,-0l0,-20.946c29.209,-1.896 38.738,-5.725 38.738,-27.937l-0,-185.384c-0,-36.829 -14.613,-55.25 -49.525,-55.25c-26.034,0 -50.159,12.079 -70.479,26.034l-0,214.6c-0,22.212 9.525,26.041 38.737,27.937l0,20.946l-166.346,-0l0,-20.946c29.204,-1.896 39.367,-5.725 39.367,-27.937l-0,-384.742Z" style="fill:#fff;fill-rule:nonzero;"/><path d="M2383.65,1485.32l-170.78,-0l-27.308,71.092c-3.804,9.533 -5.708,17.783 -5.708,24.766c-0,20.313 15.866,27.309 54.6,28.563l-0,22.225l-130.788,-0l0,-22.225c17.771,-2.521 30.475,-6.342 37.459,-23.492l138.408,-355.525l-19.679,-47.617l99.033,0l163.179,403.142c6.975,17.15 20.313,20.971 37.45,23.492l0,22.225l-194.279,-0l0,-22.225c37.458,-1.254 53.342,-7.609 53.342,-27.938c-0,-6.971 -1.913,-15.216 -5.717,-24.75l-29.212,-71.733Zm-160.625,-27.313l149.837,0l-76.187,-191.095l-73.65,191.095Z" style="fill:#fff;fill-rule:nonzero;"/><path d="M2735.12,1575.46c40.009,-0 67.93,-15.863 88.884,-46.975l10.796,6.341c-19.688,69.209 -66.663,103.492 -131.421,103.492c-85.079,-0 -147.929,-63.483 -147.929,-163.171c-0,-106.017 64.125,-186.025 164.429,-186.025c62.225,0 105.4,25.4 105.4,74.296c-0,20.312 -10.792,36.192 -24.125,42.542l-48.259,-0c1.271,-10.171 2.546,-19.688 2.546,-31.117c0,-33.65 -10.796,-61.588 -46.354,-61.588c-48.25,0 -76.183,54.613 -76.183,125.088c-0,83.162 38.091,137.117 102.216,137.117" style="fill:#fff;fill-rule:nonzero;"/><path d="M3138.4,1561.5c-0,21.587 4.446,35.546 20.954,35.546c9.521,-0 18.413,-3.167 25.4,-6.35l3.813,13.983c-18.417,21.579 -42.55,33.642 -72.388,33.642c-34.279,-0 -57.129,-20.946 -63.483,-55.875c-20.313,26.679 -53.338,54.608 -99.046,54.608c-51.429,0 -85.713,-31.117 -85.713,-81.904c0,-54.613 39.371,-76.821 86.984,-94.604l95.862,-34.921l0,-53.954c0,-36.188 -12.054,-62.217 -45.079,-62.217c-30.471,0 -42.533,22.842 -42.533,53.329c-0,12.692 1.9,25.388 5.087,39.35l-52.7,6.984c-17.142,-5.7 -27.941,-19.042 -27.941,-39.992c-0.001,-52.688 54.604,-80 125.079,-80c81.266,-0 125.704,29.833 125.704,104.133l-0,168.242Zm-87.617,5.712l0,-118.72l-54.6,22.212c-26.667,10.171 -43.167,24.771 -43.167,60.313c0,33.029 15.242,56.512 48.884,56.512c18.412,0 31.108,-6.992 48.883,-20.317" style="fill:#fff;fill-rule:nonzero;"/><path d="M3392.3,1178.66l0,-13.333l112.375,-30.48l13.971,0l-0,429.825c-0,21.584 1.271,28.567 25.392,30.475l15.875,1.284l-0,19.046l-115.559,22.85l-16.5,-0l2.534,-59.042c-25.392,36.192 -57.775,59.042 -102.213,59.042c-76.821,-0 -128.25,-62.217 -128.25,-158.725c0,-120 71.108,-189.192 161.908,-189.192c29.192,-0 53.325,8.254 68.555,22.212l-0,-114.27l-38.088,-19.692Zm-105.387,270.479c-0,77.438 31.741,135.217 89.52,135.217c21.588,-0 39.359,-6.975 53.955,-20.313l-0,-167.612c-0,-49.525 -20.946,-78.729 -59.034,-78.729c-53.337,-0 -84.441,52.066 -84.441,131.437" style="fill:#fff;fill-rule:nonzero;"/><path d="M4721.8,1355.79c3.171,-7.608 4.437,-12.696 4.437,-17.783c0,-14.596 -10.158,-17.763 -43.162,-21.567l-0,-20.971l109.204,0l0,20.971c-22.237,6.35 -26.675,10.775 -32.392,24.108l-139.666,351.742c-20.963,51.425 -42.546,79.363 -83.813,79.363c-21.583,-0 -42.537,-10.792 -48.883,-29.213l-0,-32.387c13.329,3.183 24.758,5.729 43.167,5.729c34.287,-0 55.241,-9.538 68.566,-44.438l10.8,-27.316l-136.5,-303.48c-5.721,-13.333 -9.525,-17.758 -32.383,-24.108l-0,-20.971l172.696,0l-0,20.971c-32.384,3.804 -43.18,6.971 -43.18,21.567c0.001,5.087 1.276,10.175 3.805,17.783l76.195,187.925l71.109,-187.925Z" style="fill:#fff;fill-rule:nonzero;"/><path d="M1317.61,51.424l-344.862,-0l513.175,1580.55l344.858,-0l-513.171,-1580.55Z" style="fill:#fff;fill-rule:nonzero;"/><path d="M307.82,841.76c310.496,-35.35 545.05,-254.712 531.917,-505.229c-5.767,-109.954 -58.446,-208.642 -142.025,-285.109l-376.062,0c109.708,79.267 179.525,198.213 179.525,331.259c-0,238.617 -224.384,435.5 -501.175,435.5l-0,47.037c276.791,0 501.175,196.896 501.175,435.492c-0,133.058 -69.817,252.021 -179.542,331.267l376.079,-0c83.579,-76.459 136.258,-175.146 142.025,-285.096c13.133,-250.521 -221.421,-469.779 -531.917,-505.121" style="fill:#fff;fill-rule:nonzero;"/></g></svg>