<?xml version="1.0" encoding="UTF-8" standalone="no"?><!DOCTYPE svg PUBLIC "-//W3C//DTD SVG 1.1//EN" "http://www.w3.org/Graphics/SVG/1.1/DTD/svg11.dtd"><svg width="100%" height="100%" viewBox="0 0 4159 3521" version="1.1" xmlns="http://www.w3.org/2000/svg" xmlns:xlink="http://www.w3.org/1999/xlink" xml:space="preserve" xmlns:serif="http://www.serif.com/" style="fill-rule:evenodd;clip-rule:evenodd;stroke-linejoin:round;stroke-miterlimit:2;"><path d="M720.488,2254.15c-54.459,0 -101.863,29.704 -127.43,73.65c-12.07,-2.646 -24.616,-4.204 -37.504,-4.204c-95.754,0 -173.608,77.854 -173.608,173.613c-0,71.954 44.079,133.666 106.608,159.979c-1.425,10.171 -2.441,20.479 -2.441,30.991c-0,124.446 101.25,225.696 225.691,225.696c124.446,0 225.696,-101.25 225.696,-225.696c0,-80.158 -42.112,-150.554 -105.25,-190.566c22.175,-25.838 35.804,-59.204 35.804,-95.892c0,-81.379 -66.187,-147.571 -147.566,-147.571Zm-0,34.725c62.254,0 112.845,50.592 112.845,112.846c0,30.858 -12.612,58.662 -32.754,79.008c-23.196,-9.971 -48.421,-15.937 -74.871,-17.566c-11.054,-55.405 -48.625,-101.25 -98.808,-124.038c20.208,-30.246 54.525,-50.25 93.588,-50.25Zm-164.934,69.442c64.971,-0 119.425,44.896 134.55,105.254c-91.958,8.817 -167.912,72.971 -194.158,158.692c-46.729,-22.38 -79.279,-69.854 -79.279,-125.055c-0,-76.566 62.325,-138.891 138.887,-138.891Zm0,34.725c-57.437,-0 -104.167,46.725 -104.167,104.166c0,9.563 7.8,17.359 17.363,17.359c9.563,-0 17.363,-7.796 17.363,-17.359c-0,-38.316 31.125,-69.445 69.441,-69.445c9.563,-0 17.363,-7.8 17.363,-17.363c-0,-9.562 -7.8,-17.358 -17.363,-17.358Zm156.25,104.166c105.321,0 190.975,85.65 190.975,190.971c0,105.321 -85.654,190.971 -190.975,190.971c-105.317,0 -190.971,-85.65 -190.971,-190.971c0,-105.321 85.654,-190.971 190.971,-190.971Zm-359.429,370.213c-10.508,-0.275 -21.021,0.2 -31.533,1.421l-205.417,24.146c-26.179,3.116 -45.979,25.362 -45.979,51.812l-0,219.725c-0,16.208 7.321,31.129 20.071,41.096c12.683,9.904 28.958,13.362 44.625,9.429l113.933,-28.417c29.025,-7.187 59.608,-3.595 86.125,10.375l218.508,115.088c22.784,12 47.742,17.971 72.767,17.971c24.683,-0 49.371,-5.767 71.954,-17.496l369.804,-191.788c27.059,-14.037 43.88,-41.641 43.88,-72.291c-0.001,-25.296 -11.53,-48.696 -31.538,-64.225c-20.004,-15.529 -45.638,-20.75 -70.121,-14.375l-232.817,60.354c-4.541,-13.563 -12.479,-25.971 -23.058,-35.804c-17.629,-16.413 -41.367,-24.754 -65.375,-23.059l-38.046,2.713c-14.916,1.083 -29.771,-1.696 -43.266,-8.071l-163.371,-77.108c-28.684,-13.496 -59.746,-20.821 -91.146,-21.496Zm-0.813,34.721c26.584,0.608 52.896,6.712 77.109,18.175l163.437,77.108c18.854,8.883 39.742,12.75 60.563,11.325l38.041,-2.712c14.584,-1.017 28.555,3.866 39.267,13.833c10.65,9.9 16.55,23.467 16.55,38.046l0,7.054c0,6.85 -4.004,13.087 -10.242,15.867l-51.27,22.991c-38.45,17.292 -82.938,18.242 -122.071,2.575l-87.55,-35.058c-8.95,-3.596 -19.059,0.746 -22.584,9.696c-3.591,8.883 0.746,18.987 9.7,22.517l87.55,35.129c47.88,19.125 102.267,17.971 149.267,-3.188l51.2,-22.991c18.65,-8.409 30.721,-27.059 30.721,-47.538l236.883,-61.512c14.109,-3.592 28.688,-0.609 40.15,8.275c11.529,8.883 18.104,22.312 18.104,36.958c0,17.429 -9.629,33.233 -25.091,41.233l-369.871,191.788c-35.267,18.308 -77.379,18.175 -112.579,-0.338l-218.504,-115.087c-22.65,-11.934 -47.609,-18.038 -72.767,-18.038c-12.683,0 -25.363,1.559 -37.842,4.679l-114,28.484c-5.221,1.287 -10.65,0.133 -14.854,-3.121c-4.271,-3.325 -6.712,-8.342 -6.712,-13.767l-0,-219.725c-0,-8.816 6.579,-16.279 15.325,-17.296l205.42,-24.141c8.884,-1.017 17.767,-1.425 26.65,-1.221Zm-195.312,46.454c-9.563,0 -17.363,7.8 -17.363,17.362c0,9.563 7.8,17.359 17.363,17.359l34.721,-0c9.562,-0 17.362,-7.796 17.362,-17.359c0,-9.562 -7.8,-17.362 -17.362,-17.362l-34.721,0Zm-0,86.804c-9.563,0 -17.363,7.8 -17.363,17.363c0,9.562 7.8,17.362 17.363,17.362l34.721,0c9.562,0 17.362,-7.8 17.362,-17.362c0,-9.563 -7.8,-17.363 -17.362,-17.363l-34.721,0Zm-0,86.808c-9.563,0 -17.363,7.796 -17.363,17.359c0,9.562 7.8,17.362 17.363,17.362l34.721,0c9.562,0 17.362,-7.8 17.362,-17.362c0,-9.563 -7.8,-17.359 -17.362,-17.359l-34.721,0Z" style="fill:#f0f0f0;fill-rule:nonzero;"/><path d="M702.179,2563.71c-36.046,0 -65.371,29.321 -65.371,65.367l0,12.896c0,15.108 4.429,29.746 12.813,42.3l6.767,10.171l-8.684,-0c-6,-0 -10.896,4.895 -10.896,10.896c0,5.999 4.896,10.895 10.896,10.895l21.792,0c0.125,0 0.212,-0.046 0.337,-0.046c6.854,13.58 10.554,28.517 10.554,43.921l0,21.492l-43.579,0c-6,0 -10.891,4.892 -10.891,10.892c-0,6.004 4.891,10.896 10.891,10.896l152.525,-0c6.004,-0 10.896,-4.892 10.896,-10.896c0,-6 -4.892,-10.892 -10.896,-10.892l-87.154,0l0,-21.492c0,-23.745 -6.937,-46.729 -20.129,-66.475l-14.3,-21.45c-6,-8.979 -9.15,-19.404 -9.15,-30.212l-0,-12.896c-0,-24.046 19.533,-43.579 43.579,-43.579l21.788,-0c24.045,-0 43.579,19.533 43.579,43.579c-0,6 4.896,10.896 10.896,10.896c6,-0 10.891,-4.896 10.891,-10.896c0,-36.046 -29.32,-65.367 -65.366,-65.367l-21.788,0Zm21.788,130.734c-6,-0 -10.896,4.895 -10.896,10.895c-0,6 4.896,10.896 10.896,10.896l32.683,0c6,0 10.896,-4.896 10.896,-10.896c-0,-6 -4.896,-10.895 -10.896,-10.895l-32.683,-0Z" style="fill:#f0f0f0;fill-rule:nonzero;stroke:#f0f0f0;stroke-width:11.29px;"/><path d="M905.792,1195.24c-9.563,-0 -17.363,7.733 -17.363,17.362l0,104.167c0,9.629 7.8,17.362 17.363,16.412l443.995,0l-594.483,591.363c-3.254,3.254 -5.087,7.662 -5.087,12.275c-0,4.679 1.766,9.087 5.02,12.341l73.717,73.65c3.254,3.255 7.663,5.084 12.275,5.084c4.613,-0 9.088,-1.83 12.275,-5.15l590.479,-594.417l0,443.996c0,9.629 7.8,17.362 17.363,16.412l104.166,0c9.563,0.95 17.363,-6.85 17.363,-16.412l-0,-659.721c-0,-9.563 -7.8,-17.363 -17.363,-17.363l-659.72,0Zm17.358,33.775l625,0l0,625.95l-69.442,0l0,-468.75c0,-7.054 -4.275,-13.362 -10.783,-16.075c-6.513,-2.645 -13.971,-1.154 -18.921,3.8l-607.842,611.98l-49.033,-48.967l611.979,-607.842c5.017,-4.95 6.509,-12.479 3.796,-18.987c-2.642,-6.513 -8.95,-10.717 -16.004,-10.717l-468.75,0l-0,-70.391Zm458.237,322.262c-4.404,0 -8.883,1.629 -12.27,5.088c-6.784,6.783 -6.784,17.7 -0,24.483l24.545,24.617c3.392,3.325 7.8,5.016 12.275,5.016c4.48,0 8.888,-1.691 12.275,-5.016c6.784,-6.85 6.784,-17.767 0,-24.617l-24.55,-24.483c-3.387,-3.459 -7.866,-5.088 -12.275,-5.088Zm-61.37,61.375c-4.48,0 -8.884,1.696 -12.275,5.088c-6.85,6.783 -6.85,17.766 -0,24.55l24.479,24.55c3.391,3.391 7.866,5.087 12.275,5.087c4.479,0 8.954,-1.696 12.346,-5.087c6.779,-6.784 6.779,-17.767 -0,-24.55l-24.621,-24.55c-3.388,-3.392 -7.796,-5.088 -12.204,-5.088Zm-61.375,61.308c-4.475,0 -8.884,1.763 -12.342,5.155c-6.783,6.779 -6.783,17.766 -0,24.55l24.617,24.55c3.32,3.387 7.8,5.083 12.208,5.083c4.475,-0 8.95,-1.696 12.271,-5.083c6.85,-6.784 6.85,-17.771 -0,-24.55l-24.479,-24.55c-3.459,-3.392 -7.867,-5.155 -12.275,-5.155Zm-61.442,61.442c-4.408,0 -8.883,1.696 -12.275,5.088c-6.783,6.779 -6.783,17.7 -0,24.55l24.617,24.479c3.325,3.391 7.8,5.087 12.275,5.087c4.408,0 8.883,-1.696 12.208,-5.087c6.85,-6.779 6.85,-17.7 -0,-24.479l-24.483,-24.55c-3.459,-3.392 -7.867,-5.088 -12.342,-5.088Zm-61.375,61.375c-4.408,0 -8.817,1.696 -12.208,5.083c-6.85,6.784 -6.85,17.771 -0,24.55l24.483,24.55c3.392,3.392 7.8,5.088 12.275,5.088c4.475,-0 8.883,-1.696 12.275,-5.088c6.779,-6.779 6.779,-17.766 -0,-24.55l-24.55,-24.55c-3.392,-3.387 -7.8,-5.083 -12.275,-5.083Zm-61.308,61.375c-4.475,0 -8.884,1.692 -12.275,5.083c-6.846,6.784 -6.846,17.771 -0,24.55l24.483,24.55c3.392,3.392 7.867,5.088 12.275,5.088c4.475,-0 8.95,-1.696 12.342,-5.088c6.783,-6.779 6.783,-17.766 -0,-24.55l-24.617,-24.55c-3.392,-3.391 -7.8,-5.083 -12.208,-5.083Zm-61.442,61.371c-4.475,-0 -8.883,1.696 -12.275,5.087c-6.779,6.784 -6.779,17.767 -0,24.55l24.55,24.55c3.392,3.392 7.867,5.088 12.275,5.088c4.475,-0 8.954,-1.696 12.275,-5.088c6.85,-6.783 6.85,-17.766 -0,-24.55l-24.479,-24.55c-3.463,-3.391 -7.867,-5.087 -12.346,-5.087Zm-61.375,61.442c-4.475,-0 -8.883,1.629 -12.271,5.087c-6.783,6.783 -6.783,17.7 0,24.483l24.617,24.617c3.321,3.325 7.796,5.017 12.275,5.017c4.408,-0 8.883,-1.692 12.204,-5.017c6.85,-6.85 6.85,-17.767 -0,-24.617l-24.55,-24.483c-3.388,-3.458 -7.796,-5.087 -12.275,-5.087Zm-61.371,61.308c-4.479,-0 -8.883,1.696 -12.275,5.154c-6.783,6.783 -6.783,17.7 0,24.483l24.55,24.617c3.388,3.321 7.796,5.088 12.275,5.088c4.475,-0.001 8.883,-1.767 12.275,-5.088c6.779,-6.85 6.779,-17.767 0,-24.617l-24.55,-24.483c-3.392,-3.458 -7.8,-5.154 -12.275,-5.154Z" style="fill:#f0f0f0;fill-rule:nonzero;"/><g><path d="M1859.35,104.167c-33.817,-0 -61.029,26.487 -61.95,60.287l-0.033,0.546c-8.767,-5.437 -19.017,-8.75 -30.075,-8.75c-30.679,0 -55.834,24 -57.271,54.696l-11.904,320.704c-0.921,-2.412 -1.792,-4.979 -2.779,-7.292c-29.1,-68.766 -73.296,-72.225 -81.855,-72.225c-22.795,0 -34.72,9.863 -40.691,18.142c-10.888,15.104 -11.5,36.504 -1.83,65.446c4.063,12.237 5.938,31.183 7.9,51.233c1.805,18.388 3.85,39.238 8,59.984c8.163,40.766 25.121,125.537 93.317,192.566c60.904,59.846 127.538,63.308 141.738,63.308c1.562,0 2.471,-0.049 2.679,-0.066l104.166,-0c50.313,-0 92.109,-19.65 121.967,-56.696l47.846,47.846c11.908,11.821 31.154,11.821 43.063,-0l47.745,-47.779c29.88,36.995 71.621,56.662 121.9,56.662l103.284,-0.033c0.312,0.016 1.35,0.066 3.054,0.066c15.066,0 81.5,-3.604 142.246,-63.308c68.191,-67.012 85.154,-151.8 93.316,-192.567c4.146,-20.762 6.213,-41.629 8.034,-60.05c1.962,-20.016 3.804,-38.945 7.866,-51.166c9.671,-28.959 9.054,-50.342 -1.829,-65.446c-5.971,-8.279 -17.846,-18.142 -40.658,-18.142c-8.559,0 -52.792,3.459 -81.888,72.225c-0.971,2.292 -1.825,4.846 -2.746,7.259l-11.904,-320.709c-1.387,-30.641 -26.558,-54.658 -57.271,-54.658c-11.058,-0 -21.291,3.312 -30.075,8.75l-0.033,-0.579c-0.921,-33.784 -28.133,-60.254 -61.95,-60.254c-33.787,-0 -61.017,26.47 -61.954,60.287l-0.033,0.442c-8.696,-5.379 -18.85,-8.646 -29.805,-8.646c-30.954,-0 -56.025,24.233 -57.033,55.171l-1.254,38.179c-7.483,-4.029 -15.913,-6.546 -24.958,-6.546c-28.23,0 -51.505,22.075 -53,50.254c-2.446,46.338 -6.934,190.68 -10.442,265.3c-6.267,4.217 -12.263,9.042 -17.804,14.579l-4.338,4.342l-4.171,-4.171c-5.679,-5.679 -11.766,-10.633 -18.208,-14.92c-3.612,-74.655 -8.283,-218.98 -10.85,-265.3c-1.562,-28.071 -24.842,-50.084 -52.967,-50.084c-8.87,0 -17.12,2.404 -24.483,6.275l-1.287,-37.908c-0.988,-30.921 -26.046,-55.171 -57,-55.171c-10.955,0 -21.109,3.25 -29.805,8.613l-0.033,-0.442c-0.921,-33.783 -28.133,-60.254 -61.954,-60.254Zm-0,34.721c14.862,-0 26.829,11.641 27.229,26.483l7.496,321.217c0.033,1.3 0.533,2.429 0.846,3.625c0.225,0.937 0.262,1.945 0.646,2.816c0.504,1.163 1.304,2.046 2.033,3.05c0.575,0.784 0.983,1.696 1.662,2.375c0.971,0.954 2.209,1.592 3.392,2.304c0.708,0.434 1.321,1.03 2.1,1.359c2.05,0.866 4.288,1.354 6.646,1.354l0.508,-0c1.167,-0.033 2.163,-0.5 3.259,-0.746c1.091,-0.242 2.212,-0.312 3.22,-0.746c1.025,-0.45 1.809,-1.204 2.713,-1.829c0.937,-0.642 1.946,-1.15 2.746,-1.967c0.762,-0.783 1.225,-1.791 1.829,-2.712c0.625,-0.938 1.367,-1.758 1.8,-2.817c0.45,-1.091 0.483,-2.346 0.712,-3.525c0.188,-1.025 0.609,-1.958 0.609,-3.016l-0,-272.796c-0,-12.325 10.021,-22.346 22.346,-22.346c12.116,-0 21.945,9.5 22.345,21.6l7.425,274.117c0.038,1.179 0.488,2.179 0.746,3.287c0.246,1.042 0.296,2.133 0.713,3.088c0.504,1.129 1.325,2.029 2.033,3.016c0.575,0.8 1.004,1.713 1.696,2.409c0.975,0.954 2.162,1.579 3.325,2.27c0.729,0.434 1.337,1.063 2.137,1.392c2.063,0.85 4.284,1.321 6.646,1.321l0.034,-0c0.191,-0 0.4,-0.017 0.575,-0.033c1.041,-0.034 1.908,-0.455 2.883,-0.642c1.196,-0.263 2.467,-0.363 3.558,-0.85c0.975,-0.433 1.746,-1.171 2.613,-1.763c0.971,-0.658 2,-1.183 2.812,-2.033c0.713,-0.75 1.159,-1.696 1.729,-2.546c0.663,-0.987 1.45,-1.887 1.9,-3.016c0.4,-0.988 0.421,-2.096 0.646,-3.155c0.209,-1.129 0.642,-2.141 0.642,-3.32l-0,-189.992c-0,-10.104 8.242,-18.342 18.346,-18.342c9.721,0 17.721,7.588 18.275,17.259c2.346,42.675 6.516,176.475 9.971,247.429c-39.792,-10.554 -83.938,-0.325 -115.155,30.891c-46.65,46.65 -46.65,122.3 0,168.967l79.009,79.004c-23.492,30.867 -56.104,46.725 -97.25,46.725l-105.05,0.034c-0.588,-0.084 -62.396,2.533 -119.221,-53.3c-60.571,-59.567 -76.117,-137.305 -83.583,-174.663c-3.805,-19.062 -5.671,-38.125 -7.496,-56.562c-2.254,-23 -4.229,-42.875 -9.559,-58.83c-6.425,-19.27 -5.712,-30.291 -2.916,-34.179c2.325,-3.246 8.846,-3.729 12.512,-3.729c1.146,0 28.575,0.563 49.913,51.029c4.096,9.704 7.858,21.513 11.866,34.013c17.83,55.729 44.784,139.937 149.367,139.937c9.6,0 17.363,-7.758 17.363,-17.358c-0,-9.6 -7.763,-17.363 -17.363,-17.363c-53.246,0 -79.154,-26.6 -95.996,-61.308c0.175,-0.867 0.559,-1.621 0.613,-2.542l15.462,-400.696c0.554,-12.083 10.484,-21.566 22.584,-21.566c12.483,-0 22.616,10.137 22.616,22.617l0,272.525c0,1.058 0.417,1.975 0.609,2.983c0.225,1.196 0.262,2.467 0.712,3.558c0.433,1.059 1.192,1.879 1.796,2.817c0.608,0.921 1.05,1.912 1.833,2.712c0.779,0.796 1.792,1.342 2.713,1.967c0.904,0.625 1.721,1.379 2.746,1.829c1.008,0.434 2.129,0.504 3.22,0.746c1.096,0.246 2.092,0.713 3.255,0.746c0.087,-0 0.154,-0.067 0.237,-0.067c0.071,0 0.154,0.067 0.238,0.067c8.733,-0 15.654,-6.533 16.887,-14.917c0.104,-0.679 0.458,-1.258 0.475,-1.966l7.496,-321.217c0.396,-14.842 12.367,-26.483 27.225,-26.483Zm521.379,-0c14.858,-0 26.829,11.641 27.225,26.483l7.496,321.217c0.033,1.3 0.5,2.429 0.812,3.625c0.225,0.937 0.263,1.945 0.646,2.816c0.504,1.163 1.338,2.046 2.067,3.05c0.575,0.784 0.987,1.696 1.662,2.375c0.971,0.954 2.213,1.592 3.392,2.304c0.713,0.434 1.321,1.03 2.1,1.359c2.05,0.866 4.288,1.354 6.646,1.354l0.512,-0c1.163,-0.033 2.125,-0.5 3.221,-0.746c1.092,-0.242 2.246,-0.312 3.254,-0.746c1.025,-0.45 1.809,-1.204 2.713,-1.829c0.937,-0.642 1.946,-1.15 2.746,-1.967c0.762,-0.783 1.225,-1.791 1.833,-2.712c0.625,-0.938 1.363,-1.758 1.796,-2.817c0.45,-1.091 0.487,-2.346 0.712,-3.525c0.171,-1.008 0.609,-1.941 0.609,-3.016l-0,-272.525c-0,-12.48 10.137,-22.617 22.616,-22.617c12.105,-0 22.03,9.45 22.584,21.5l15.496,400.762c0.037,0.905 0.437,1.675 0.612,2.542c-16.842,34.708 -42.767,61.308 -96.029,61.308c-9.6,0 -17.363,7.763 -17.363,17.363c0,9.6 7.763,17.358 17.363,17.358c104.583,0 131.521,-84.191 149.367,-139.904c3.991,-12.5 7.787,-24.304 11.9,-34.012c21.337,-50.467 48.733,-51.03 49.879,-51.03c3.666,0 10.187,0.45 12.512,3.696c2.779,3.871 3.475,14.925 -2.95,34.213c-5.329,15.937 -7.271,35.796 -9.525,58.762c-1.808,18.454 -3.675,37.513 -7.496,56.596c-7.483,37.342 -23.045,115.096 -83.616,174.663c-56.234,55.274 -116.688,53.529 -120.071,53.299l-104.167,0c-41.112,0 -73.691,-15.841 -97.183,-46.654l79.279,-79.312c46.65,-46.65 46.65,-122.267 0,-168.933c-31.321,-31.338 -75.679,-41.534 -115.592,-30.788c3.367,-70.904 7.355,-204.621 9.63,-247.296c0.504,-9.737 8.516,-17.325 18.275,-17.325c10.087,0 18.345,8.204 18.379,18.275l0.408,190.125c0,1.146 0.433,2.146 0.642,3.221c0.208,1.075 0.279,2.179 0.679,3.188c0.433,1.075 1.187,1.979 1.829,2.95c0.592,0.904 1.017,1.845 1.767,2.612c0.796,0.812 1.841,1.358 2.779,2c0.883,0.608 1.654,1.363 2.646,1.796c1.091,0.487 2.346,0.604 3.558,0.85c0.975,0.208 1.825,0.608 2.85,0.641c0.208,0.017 0.417,0.034 0.608,0.034l0.034,-0c0.312,-0 0.554,-0.15 0.85,-0.167c2.029,-0.104 4.041,-0.425 5.833,-1.187c0.763,-0.313 1.288,-0.909 2,-1.325c1.196,-0.709 2.467,-1.367 3.458,-2.338c0.675,-0.679 1.071,-1.558 1.625,-2.342c0.73,-1.004 1.567,-1.92 2.071,-3.083c0.434,-0.975 0.467,-2.062 0.713,-3.121c0.241,-1.075 0.708,-2.075 0.746,-3.221l7.425,-274.116c0.4,-12.1 10.229,-21.6 22.345,-21.6c12.325,-0 22.346,10.021 22.346,22.346l0,272.795c0,1.059 0.421,1.975 0.609,2.984c0.229,1.196 0.262,2.466 0.712,3.558c0.433,1.058 1.192,1.879 1.8,2.817c0.604,0.921 1.05,1.912 1.829,2.712c0.784,0.796 1.792,1.342 2.713,1.967c0.904,0.625 1.721,1.379 2.746,1.829c1.008,0.433 2.129,0.504 3.22,0.746c1.096,0.246 2.096,0.712 3.259,0.746l0.475,-0c2.358,-0 4.646,-0.488 6.712,-1.354c0.779,-0.33 1.338,-0.925 2.067,-1.359c1.183,-0.712 2.421,-1.333 3.392,-2.304c0.695,-0.679 1.07,-1.592 1.629,-2.375c0.729,-1.004 1.562,-1.904 2.066,-3.05c0.384,-0.871 0.4,-1.879 0.646,-2.817c0.296,-1.195 0.813,-2.341 0.846,-3.625l7.496,-321.183c0.4,-14.858 12.367,-26.517 27.229,-26.517Zm-348.308,435.317c21.154,0 42.296,7.871 58.696,23.633l4.17,4.171l-7.12,7.121c-7.275,6.233 -8.134,17.208 -1.9,24.483c6.233,7.276 17.208,8.134 24.483,1.9c0.675,-0.591 1.325,-1.22 1.896,-1.899l35.604,-35.605c33.733,-32.429 87.333,-31.358 119.767,2.375c31.508,32.796 31.508,84.663 -0,117.459l0.541,-0.171l-148.791,148.45l-148.45,-148.45c-32.43,-33.75 -31.325,-87.4 2.408,-119.833c16.396,-15.763 37.542,-23.634 58.696,-23.634Zm-294.596,363.296c-9.583,0 -17.363,7.779 -17.363,17.363l0,34.72c0,9.584 7.78,17.363 17.363,17.363c9.583,-0 17.358,-7.779 17.358,-17.363l0,-34.721c0,-9.583 -7.775,-17.362 -17.358,-17.362Zm86.804,0c-9.583,0 -17.362,7.779 -17.362,17.362l-0,34.721c-0,9.584 7.779,17.363 17.362,17.363c9.583,-0 17.363,-7.779 17.363,-17.363l-0,-34.721c-0,-9.583 -7.78,-17.362 -17.363,-17.362Zm86.804,0c-9.583,0 -17.358,7.779 -17.358,17.362l-0,34.721c-0,9.584 7.775,17.363 17.358,17.363c9.584,-0 17.363,-7.779 17.363,-17.363l-0,-34.721c-0,-9.583 -7.779,-17.362 -17.363,-17.362Zm86.809,0c-9.584,0 -17.363,7.779 -17.363,17.362l0,34.721c0,9.584 7.779,17.363 17.363,17.363c9.583,-0 17.358,-7.779 17.358,-17.363l-0,-34.721c-0,-9.583 -7.775,-17.362 -17.358,-17.362Zm243.054,0c-9.584,0 -17.363,7.779 -17.363,17.362l0,34.721c0,9.584 7.779,17.363 17.363,17.363c9.583,-0 17.362,-7.779 17.362,-17.363l0,-34.721c0,-9.583 -7.779,-17.362 -17.362,-17.362Zm86.804,0c-9.583,0 -17.358,7.779 -17.358,17.362l-0,34.721c-0,9.584 7.775,17.363 17.358,17.363c9.583,-0 17.362,-7.779 17.362,-17.363l0,-34.721c0,-9.583 -7.779,-17.362 -17.362,-17.362Zm86.808,0c-9.583,0 -17.362,7.779 -17.362,17.362l-0,34.721c-0,9.584 7.779,17.363 17.362,17.363c9.584,-0 17.359,-7.779 17.359,-17.363l-0,-34.721c-0,-9.583 -7.775,-17.362 -17.359,-17.362Zm86.804,0c-9.583,0 -17.362,7.779 -17.362,17.362l-0,34.721c-0,9.584 7.779,17.363 17.362,17.363c9.584,-0 17.363,-7.779 17.363,-17.363l-0,-34.721c-0,-9.583 -7.779,-17.362 -17.363,-17.362Z" style="fill:#f0f0f0;fill-rule:nonzero;"/><path d="M2372.56,494.642c-49.855,-0 -90.409,39.633 -90.409,88.366c0,13.263 8.317,22.546 13.696,33.846c2.858,6.013 0.946,4.083 5.054,9.271c3.879,4.9 8.417,20.275 13.25,24.283c15.763,13.071 36.159,20.967 58.409,20.967c49.854,0 90.404,-39.638 90.404,-88.367c-0,-48.733 -40.55,-88.366 -90.405,-88.366Zm0.001,6.091c46.408,0 84.17,36.913 84.17,82.275c0,45.359 -37.762,82.271 -84.171,82.271c-46.408,0 -84.17,-36.912 -84.17,-82.271c-0,-45.362 37.762,-82.275 84.17,-82.275Z" style="fill:#f0f0f0;fill-rule:nonzero;stroke:#f0f0f0;stroke-width:27.33px;"/><g><path d="M2369.56,536.621c-13.454,-0 -24.396,11.104 -24.396,24.754l0.001,4.883c-0.001,5.721 1.649,11.267 4.779,16.021l2.525,3.854l-3.238,0c-2.242,0 -4.067,1.85 -4.067,4.125c0,2.271 1.825,4.125 4.067,4.125l8.129,0c0.05,0 0.079,-0.016 0.129,-0.016c2.559,5.141 3.938,10.8 3.938,16.633l0,8.138l-16.263,-0c-2.241,-0 -4.066,1.854 -4.066,4.129c-0,2.27 1.825,4.125 4.066,4.125l56.921,-0c2.242,-0 4.067,-1.854 4.067,-4.125c-0,-2.275 -1.825,-4.13 -4.067,-4.13l-32.525,0l0,-8.137c0,-8.992 -2.591,-17.696 -7.512,-25.175l-5.338,-8.121c-2.237,-3.404 -3.416,-7.35 -3.416,-11.446l-0,-4.883c-0,-9.104 7.291,-16.504 16.266,-16.504l8.13,-0c8.974,-0 16.266,7.4 16.266,16.504c0,2.275 1.825,4.129 4.067,4.129c2.237,0 4.062,-1.854 4.062,-4.129c0,-13.65 -10.941,-24.754 -24.396,-24.754l-8.129,-0Zm11.167,49.512c-2.237,0 -4.067,1.85 -4.067,4.125c0,2.271 1.83,4.125 4.067,4.125l12.2,0c2.238,0 4.063,-1.854 4.063,-4.125c-0,-2.275 -1.825,-4.125 -4.063,-4.125l-12.2,0Z" style="fill:#f0f0f0;fill-rule:nonzero;stroke:#f0f0f0;stroke-width:9.17px;"/></g></g><path d="M3390.4,2300.39c-57.442,-0 -104.167,46.725 -104.167,104.166c0,57.442 46.725,104.167 104.167,104.167c57.441,0 104.167,-46.725 104.167,-104.167c-0,-57.441 -46.726,-104.166 -104.167,-104.166Zm381.942,-0c-57.438,-0 -104.167,46.725 -104.167,104.166c-0,57.442 46.729,104.167 104.167,104.167c57.441,0 104.166,-46.725 104.166,-104.167c0,-57.441 -46.725,-104.166 -104.166,-104.166Zm-381.942,34.721c38.317,-0 69.442,31.129 69.442,69.445c-0,38.317 -31.125,69.446 -69.442,69.446c-38.317,0 -69.446,-31.129 -69.446,-69.446c0,-38.316 31.129,-69.445 69.446,-69.445Zm381.942,-0c38.316,-0 69.445,31.129 69.445,69.445c0,38.317 -31.129,69.446 -69.445,69.446c-38.317,0 -69.442,-31.129 -69.442,-69.446c-0,-38.316 31.125,-69.445 69.442,-69.445Zm-438.367,190.975c-46.521,-0 -89.788,23.124 -115.629,61.845c-23.8,35.538 -36.279,77.042 -36.279,119.767l-0,177.95c-0,33.5 27.262,60.763 60.762,60.763c8.546,-0 16.617,-1.967 23.942,-5.084l-12.821,293.509c-0.879,19.125 5.971,37.233 19.196,51.066c13.221,13.838 30.991,21.434 50.25,21.434c31.941,-0 58.933,-21.5 67.004,-51.067c8.071,29.567 35.058,51.067 67.071,51.067c20.141,-0 38.245,-8.546 51.266,-22.18c11.192,13.43 27.809,22.18 46.592,22.18c17.021,-0 32.283,-6.988 43.404,-18.246c11.121,11.258 26.379,18.246 43.4,18.246c14.788,-0 28.484,-5.43 38.863,-14.109c9.221,8.884 21.904,14.109 35.466,14.109c15.055,-0 28.821,-5.9 38.725,-15.463c9.834,9.563 23.6,15.463 38.317,15.463c26.446,-0 48.621,-19.805 51.742,-46.184l25.566,-231.596l44.963,0c10.037,0 19.6,-4.341 26.179,-11.8c6.579,-7.662 9.563,-17.7 8.342,-27.604l-6.717,-49.3c36.625,-13.429 59.204,-50.658 53.579,-89.587l-27.262,-190.971c-10.921,-76.567 -77.379,-134.208 -154.692,-134.208l-71.546,-0c-61.241,-0 -115.9,36.279 -140.925,89.583c-4.137,-0.679 -8.341,-1.083 -12.683,-1.083c-6.442,-0 -12.817,0.745 -18.921,1.966l-9.558,-17.566c-24.146,-44.963 -71.009,-72.9 -122.209,-72.9l-105.387,-0Zm-0,34.72l105.387,0c38.384,0 73.584,21.021 91.621,54.73l7.867,14.375c-25.704,16.683 -42.588,45.641 -42.588,78.466c0,51.742 42.046,93.788 93.788,93.788c51.746,-0 93.792,-42.046 93.792,-93.788c-0,-35.062 -19.325,-65.65 -47.946,-81.787c20.346,-39.267 61.646,-65.784 107.762,-65.784l71.546,0c60.083,0 111.829,44.759 120.375,104.371l27.196,190.971c2.846,20.075 -7.054,39.2 -24.075,48.896l-33.163,-244.413c-1.22,-9.562 -9.904,-16.141 -19.466,-14.92c-9.563,1.358 -16.138,10.037 -14.988,19.6l44.692,329.525l-178.154,-0l-0,-69.446c-0,-67.004 -54.525,-121.529 -121.529,-121.529l-34.721,-0c-67.004,-0 -121.529,54.525 -121.529,121.529l-0,121.529c-0,22.579 14.583,42.046 34.725,49.096l-0,137.875c-0,21.362 -16.617,38.721 -37.163,38.721c-18.583,-0 -33.775,-14.513 -34.725,-33.096l-14.921,-293.984c-0.471,-9.225 -8.137,-16.412 -17.358,-16.412c-9.292,-0 -16.888,7.187 -17.363,16.412l-14.987,293.984c-0.879,18.583 -16.142,33.096 -34.721,33.096c-9.629,-0 -18.517,-3.796 -25.162,-10.713c-6.575,-6.921 -9.967,-16.008 -9.563,-25.567l14.988,-341.933l-0,-218.575c-0,-9.562 -7.796,-17.362 -17.359,-17.362c-9.562,-0 -17.362,7.8 -17.362,17.362l-0,209.825c-0,14.379 -11.663,26.042 -26.042,26.042c-14.375,-0 -26.042,-11.663 -26.042,-26.042l0,-177.95c0,-35.742 10.58,-70.667 30.384,-100.504c19.462,-29.025 51.879,-46.388 86.804,-46.388Zm256.075,85.109c0.546,-0 1.221,-0.067 1.696,0.137c12.208,0.204 23.67,4 33.233,10.579c16.612,11.259 27.533,30.246 27.533,51.746c0,34.379 -28.079,62.459 -62.462,62.459c-34.384,-0 -62.459,-28.08 -62.459,-62.459c0,-19.941 9.496,-37.846 24.28,-49.304c9.02,-7.325 20.279,-11.8 32.279,-12.817c1.9,-0.204 4.004,-0.341 5.9,-0.341Zm-529.513,140.587c-9.562,0 -17.362,7.796 -17.362,17.359l-0,34.725c-0,9.558 7.8,17.358 17.362,17.358c9.563,-0 17.363,-7.8 17.363,-17.358l-0,-34.725c-0,-9.563 -7.8,-17.359 -17.363,-17.359Zm86.804,0c-9.558,0 -17.358,7.796 -17.358,17.359l0,34.725c0,9.558 7.8,17.358 17.358,17.358c9.563,-0 17.363,-7.8 17.363,-17.358l-0,-34.725c-0,-9.563 -7.8,-17.359 -17.363,-17.359Zm868.059,0c-9.563,0 -17.363,7.796 -17.363,17.359l0,34.725c0,9.558 7.8,17.358 17.363,17.358c9.562,-0 17.358,-7.8 17.358,-17.358l0,-34.725c0,-9.563 -7.796,-17.359 -17.358,-17.359Zm86.804,0c-9.563,0 -17.363,7.796 -17.363,17.359l0,34.725c0,9.558 7.8,17.358 17.363,17.358c9.562,-0 17.362,-7.8 17.362,-17.358l0,-34.725c0,-9.563 -7.8,-17.359 -17.362,-17.359Zm-520.833,52.084l34.72,-0c47.95,-0 86.809,38.858 86.809,86.804l-0,121.529c-0,9.558 -7.8,17.358 -17.363,17.358c-2.575,0 -5.221,0.679 -7.458,1.696c-5.9,2.779 -9.904,8.75 -9.904,15.667l-0,164.929c-0,4.883 -1.221,9.225 -3.659,13.021c-4.341,7.8 -12.82,13.021 -22.383,13.021c-14.375,-0 -26.042,-11.663 -26.042,-26.042l0,-147.567c0,-9.562 -7.795,-17.362 -17.358,-17.362c-9.562,-0 -17.362,7.8 -17.362,17.362l-0,147.567c-0,14.379 -11.663,26.041 -26.042,26.041c-14.375,0 -26.042,-11.662 -26.042,-26.041l0,-164.929c0,-9.563 -7.8,-17.363 -17.362,-17.363c-9.559,0 -17.359,-7.8 -17.359,-17.358l0,-121.529c0,-47.946 38.859,-86.805 86.805,-86.805Zm190.97,190.971l63.546,0l-25.158,227.796c-0.883,8.679 -8.342,15.259 -17.225,15.259c-11.6,-0 -21.163,-9.563 -21.163,-21.159l0,-221.896Zm-34.72,17.363l-0,204.533c-0,11.596 -9.563,21.159 -21.159,21.159c-6.983,-0 -13.087,-4.138 -15.8,-10.038c1.559,-5.083 2.238,-10.442 2.238,-16.004l-0,-150.554c20.141,-7.05 34.721,-26.517 34.721,-49.096Z" style="fill:#f0f0f0;fill-rule:nonzero;"/><path d="M2873.25,1170.95c-4.408,0 -8.883,1.696 -12.275,5.088l-24.55,24.55c-6.783,6.779 -6.783,17.766 0,24.545c3.392,3.392 7.8,5.088 12.275,5.088c4.475,-0 8.883,-1.696 12.275,-5.088l24.55,-24.545c6.779,-6.784 6.779,-17.771 0,-24.55c-3.392,-3.392 -7.867,-5.088 -12.275,-5.088Zm61.442,61.304c-4.475,0 -8.884,1.696 -12.275,5.154l-24.617,24.484c-6.783,6.85 -6.783,17.766 0,24.616c3.392,3.325 7.8,5.088 12.275,5.088c4.475,-0 8.883,-1.763 12.275,-5.088l24.55,-24.616c6.85,-6.784 6.85,-17.7 0,-24.484c-3.392,-3.458 -7.8,-5.154 -12.208,-5.154Zm-135.092,12.275c-4.612,0 -9.021,1.834 -12.275,5.088l-73.717,73.716c-3.254,3.255 -5.087,7.663 -5.087,12.275c-0,4.613 1.9,9.088 5.154,12.275l594.483,590.484l-443.996,-0c-9.562,-0 -17.362,7.729 -17.362,17.358l0,104.167c0,9.629 7.8,17.362 17.363,17.362l659.72,0c9.563,0 17.363,-7.733 17.363,-17.362l-0,-659.721c-0,-9.629 -7.8,-17.363 -17.363,-17.363l-104.166,0c-9.563,0 -17.359,7.734 -17.359,17.363l0,443.996l-590.483,-594.484c-3.254,-3.254 -7.663,-5.154 -12.275,-5.154Zm-0.067,41.979l607.842,611.979c4.95,5.021 12.408,6.513 18.921,3.867c6.508,-2.646 10.783,-9.021 10.783,-16.071l0,-468.75l69.446,0l0,625l-625,0l0,-69.446l468.75,0c7.05,0 13.358,-4.27 16.004,-10.783c2.713,-6.442 1.221,-13.971 -3.8,-18.921l-611.979,-607.841l49.033,-49.034Zm196.463,7.121c-4.404,0 -8.883,1.696 -12.271,5.088l-24.55,24.616c-6.783,6.784 -6.783,17.7 0,24.484c3.388,3.458 7.796,5.154 12.275,5.154c4.475,-0 8.883,-1.763 12.275,-5.154l24.546,-24.484c6.783,-6.85 6.783,-17.766 -0,-24.616c-3.388,-3.392 -7.867,-5.088 -12.275,-5.088Zm61.375,61.442c-4.408,-0 -8.817,1.696 -12.275,5.087l-24.479,24.55c-6.85,6.784 -6.85,17.767 -0,24.55c3.321,3.392 7.796,5.088 12.275,5.088c4.408,-0 8.883,-1.696 12.204,-5.088l24.621,-24.55c6.779,-6.783 6.779,-17.766 -0,-24.55c-3.463,-3.391 -7.867,-5.087 -12.346,-5.087Zm61.375,61.375c-4.408,-0 -8.883,1.696 -12.275,5.087l-24.479,24.55c-6.85,6.779 -6.85,17.767 -0,24.55c3.387,3.392 7.796,5.084 12.204,5.084c4.475,-0 8.883,-1.692 12.275,-5.084l24.55,-24.55c6.783,-6.783 6.783,-17.771 -0,-24.55c-3.392,-3.391 -7.867,-5.087 -12.275,-5.087Zm61.442,61.375c-4.475,-0 -8.95,1.696 -12.275,5.087l-24.617,24.617c-6.783,6.783 -6.783,17.7 -0,24.483c3.392,3.388 7.867,5.154 12.275,5.154c4.475,0 8.95,-1.766 12.342,-5.154l24.483,-24.55c6.85,-6.783 6.85,-17.771 -0,-24.55c-3.392,-3.391 -7.8,-5.087 -12.208,-5.087Zm61.308,61.375c-4.408,-0 -8.817,1.696 -12.208,5.087l-24.617,24.617c-6.783,6.779 -6.783,17.7 -0,24.479c3.458,3.392 7.867,5.088 12.342,5.088c4.408,-0 8.883,-1.696 12.275,-5.088l24.483,-24.479c6.85,-6.85 6.85,-17.771 -0,-24.617c-3.392,-3.391 -7.8,-5.087 -12.275,-5.087Zm61.375,61.375c-4.408,-0 -8.817,1.696 -12.275,5.154l-24.483,24.479c-6.85,6.85 -6.85,17.771 -0,24.55c3.32,3.392 7.8,5.088 12.275,5.088c4.408,-0 8.883,-1.696 12.208,-5.088l24.617,-24.55c6.779,-6.779 6.779,-17.7 -0,-24.479c-3.459,-3.458 -7.867,-5.154 -12.342,-5.154Zm61.442,61.371c-4.409,-0 -8.884,1.695 -12.275,5.154l-24.55,24.483c-6.784,6.85 -6.784,17.767 -0,24.617c3.391,3.325 7.8,5.087 12.275,5.087c4.475,0 8.883,-1.762 12.275,-5.087l24.55,-24.617c6.779,-6.783 6.779,-17.7 -0,-24.483c-3.392,-3.459 -7.867,-5.154 -12.275,-5.154Z" style="fill:#f0f0f0;fill-rule:nonzero;"/><path d="M1768.65,2486.24c-5.537,-0 -11.162,2.021 -15.421,6.058l-370.846,351.671c-8.521,8.079 -8.521,21.171 0,29.254l370.846,351.667c4.258,4.041 9.796,6.062 15.421,6.062c5.625,0 11.162,-2.021 15.425,-6.062l87.258,-82.746c8.521,-8.079 8.521,-21.171 0,-29.25l-180.908,-171.554l1059.87,-0c12.012,-0 21.812,-9.292 21.812,-20.684l0,-124.121c0,-11.391 -9.8,-20.687 -21.812,-20.687l-1059.87,-0l180.908,-171.55c8.521,-8.079 8.521,-21.171 0,-29.254l-87.258,-82.746c-4.263,-4.038 -9.883,-6.058 -15.425,-6.058Zm0,49.937l56.412,53.496l-202.72,192.238c-6.221,5.9 -8.096,14.787 -4.688,22.545c3.325,7.675 11.334,12.767 20.113,12.767l1090.71,0l0,82.746l-1090.71,-0c-8.78,-0 -16.788,5.092 -20.113,12.767c-3.408,7.758 -1.533,16.645 4.688,22.545l202.72,192.238l-56.412,53.496l-339.996,-322.421l339.996,-322.417Zm109.071,446.538c-12.013,-0 -21.813,9.291 -21.813,20.687l0,41.371c0,11.396 9.8,20.688 21.813,20.688c12.016,-0 21.816,-9.292 21.816,-20.688l0,-41.371c0,-11.396 -9.8,-20.687 -21.816,-20.687Zm109.075,-0c-12.017,-0 -21.817,9.291 -21.817,20.687l0,41.371c0,11.396 9.8,20.688 21.817,20.688c12.012,-0 21.812,-9.292 21.812,-20.688l0,-41.371c0,-11.396 -9.8,-20.687 -21.812,-20.687Zm109.071,-0c-12.017,-0 -21.817,9.291 -21.817,20.687l-0,41.371c-0,11.396 9.8,20.688 21.817,20.688c12.012,-0 21.812,-9.292 21.812,-20.688l0,-41.371c0,-11.396 -9.8,-20.687 -21.812,-20.687Zm109.07,-0c-12.016,-0 -21.812,9.291 -21.812,20.687l-0,41.371c-0,11.396 9.796,20.688 21.812,20.688c12.017,-0 21.813,-9.292 21.813,-20.688l-0,-41.371c-0,-11.396 -9.796,-20.687 -21.813,-20.687Zm109.071,-0c-12.012,-0 -21.812,9.291 -21.812,20.687l-0,41.371c-0,11.396 9.8,20.688 21.812,20.688c12.017,-0 21.817,-9.292 21.817,-20.688l-0,-41.371c-0,-11.396 -9.8,-20.687 -21.817,-20.687Zm109.071,-0c-12.012,-0 -21.812,9.291 -21.812,20.687l-0,41.371c-0,11.396 9.8,20.688 21.812,20.688c12.017,-0 21.817,-9.292 21.817,-20.688l-0,-41.371c-0,-11.396 -9.8,-20.687 -21.817,-20.687Zm109.075,-0c-12.016,-0 -21.816,9.291 -21.816,20.687l-0.001,41.371c0.001,11.396 9.801,20.688 21.817,20.688c12.013,-0 21.813,-9.292 21.813,-20.688l-0,-41.371c-0,-11.396 -9.8,-20.687 -21.813,-20.687Zm109.071,-0c-12.017,-0 -21.817,9.291 -21.817,20.687l0,41.371c0,11.396 9.8,20.688 21.817,20.688c12.013,-0 21.813,-9.292 21.813,-20.688l-0,-41.371c-0,-11.396 -9.8,-20.687 -21.813,-20.687Zm109.071,-0c-12.017,-0 -21.817,9.291 -21.817,20.687l0,41.371c0,11.396 9.8,20.688 21.817,20.688c12.012,-0 21.812,-9.292 21.812,-20.688l0,-41.371c0,-11.396 -9.8,-20.687 -21.812,-20.687Z" style="fill:#f0f0f0;fill-rule:nonzero;"/></svg>