<?xml version="1.0" encoding="UTF-8" standalone="no"?><!DOCTYPE svg PUBLIC "-//W3C//DTD SVG 1.1//EN" "http://www.w3.org/Graphics/SVG/1.1/DTD/svg11.dtd"><svg width="100%" height="100%" viewBox="0 0 136 136" version="1.1" xmlns="http://www.w3.org/2000/svg" xmlns:xlink="http://www.w3.org/1999/xlink" xml:space="preserve" xmlns:serif="http://www.serif.com/" style="fill-rule:evenodd;clip-rule:evenodd;stroke-linecap:round;stroke-linejoin:round;stroke-miterlimit:1.5;"><circle cx="67.608" cy="67.605" r="63.143" style="fill:#006552;"/><circle cx="67.708" cy="67.708" r="62.971" style="fill:none;stroke:#f0f0f0;stroke-width:2.99px;"/><g><path d="M42.224,36.598c-0.72,0 -1.302,0.582 -1.302,1.302c-0,0.72 0.582,1.302 1.302,1.302c1.317,0 2.799,0.197 4.404,0.585c0.103,0.024 0.206,0.033 0.308,0.033c0.587,0 1.119,-0.399 1.264,-0.994c0.168,-0.699 -0.262,-1.402 -0.961,-1.572c-1.808,-0.435 -3.493,-0.656 -5.015,-0.656Zm9.862,2.353c-0.507,-0.002 -0.991,0.294 -1.203,0.791c-0.283,0.661 0.025,1.423 0.687,1.706c2.515,1.073 4.967,2.46 7.09,4.008c0.233,0.169 0.5,0.249 0.765,0.249c0.401,0 0.798,-0.185 1.053,-0.531c0.425,-0.581 0.297,-1.396 -0.282,-1.819c-2.28,-1.664 -4.91,-3.15 -7.604,-4.3c-0.164,-0.07 -0.337,-0.104 -0.506,-0.104Zm28.9,51.086c-0.504,-0.056 -1.017,0.185 -1.282,0.656l-1.274,2.271c-0.351,0.626 -0.129,1.42 0.499,1.773c0.2,0.113 0.419,0.168 0.635,0.168c0.456,-0 0.899,-0.241 1.137,-0.667l1.274,-2.271c0.352,-0.626 0.129,-1.419 -0.498,-1.772c-0.156,-0.088 -0.323,-0.139 -0.491,-0.158Zm4.936,2.352c-0.506,0.027 -0.972,0.351 -1.154,0.86l-0.885,2.452c-0.244,0.675 0.106,1.421 0.783,1.665c0.144,0.054 0.297,0.079 0.442,0.079c0.533,0 1.034,-0.329 1.224,-0.862l0.885,-2.452c0.243,-0.675 -0.107,-1.42 -0.784,-1.665c-0.168,-0.062 -0.342,-0.086 -0.511,-0.077Zm5.654,1.384c-0.717,-0.077 -1.364,0.415 -1.455,1.129l-0.328,2.581c-0.091,0.714 0.413,1.365 1.126,1.455c0.056,0.006 0.111,0.01 0.166,0.01c0.646,0 1.208,-0.479 1.292,-1.137l0.328,-2.581c0.091,-0.713 -0.416,-1.367 -1.129,-1.457Z" style="fill:#fc9c19;fill-rule:nonzero;"/><path d="M42.519,31.392c-3.664,-0.047 -6.617,0.888 -8.497,2.767c-5.483,5.483 -2.585,22.292 8.489,33.366c0.116,0.116 0.233,0.21 0.348,0.321c-0.117,0.111 -0.233,0.206 -0.351,0.323c-11.074,11.074 -13.972,27.882 -8.489,33.366c1.801,1.802 4.825,2.698 8.467,2.698c7.441,-0 17.463,-3.75 24.897,-11.185c0.117,-0.117 0.214,-0.234 0.325,-0.351c0.111,0.117 0.207,0.235 0.323,0.351c7.438,7.438 17.46,11.185 24.903,11.185c3.639,-0 6.662,-0.898 8.463,-2.696c5.482,-5.483 2.587,-22.293 -8.489,-33.368c-0.116,-0.116 -0.232,-0.21 -0.348,-0.321c0.117,-0.111 0.233,-0.208 0.351,-0.325c11.074,-11.075 13.969,-27.883 8.486,-33.366c-5.479,-5.482 -22.289,-2.585 -33.363,8.489c-0.118,0.117 -0.214,0.234 -0.326,0.351c-0.111,-0.117 -0.206,-0.235 -0.323,-0.351c-4.481,-4.485 -11.056,-8.26 -17.583,-10.102c-2.632,-0.742 -5.085,-1.123 -7.283,-1.152Zm49.759,2.587c3.126,-0.148 5.734,0.472 7.281,2.019c2.285,2.286 2.637,7.233 0.946,13.232c-1.726,6.118 -5.253,12.269 -9.435,16.451c-0.126,0.125 -0.25,0.242 -0.374,0.359c-3.502,-2.771 -6.979,-4.063 -10.234,-4.311c-0.065,-0.006 -0.13,-0.007 -0.196,-0.012c-0.348,-0.022 -0.697,-0.047 -1.04,-0.046c-0.061,-0.001 -0.124,-0.008 -0.185,-0.008c-2.245,0 -4.359,0.493 -6.282,1.3c2.198,-5.094 2.108,-11.586 -3.215,-18.135c0.108,-0.114 0.215,-0.227 0.329,-0.341c6.132,-6.132 15.526,-10.183 22.405,-10.508Zm-50.042,0.015c2.025,0 4.35,0.352 6.859,1.058c6.117,1.725 12.268,5.251 16.452,9.435c0.152,0.152 0.298,0.304 0.44,0.455c-5.22,6.497 -5.286,12.935 -3.116,17.993c-0.07,-0.029 -0.117,-0.053 -0.193,-0.084c-0.133,-0.057 -0.269,-0.112 -0.409,-0.165c-0.34,-0.127 -0.688,-0.234 -1.152,-0.374c-0.124,-0.039 -0.248,-0.077 -0.357,-0.104c-0.368,-0.101 -0.741,-0.178 -1.129,-0.255l-0.435,-0.079c-0.397,-0.066 -0.801,-0.112 -1.261,-0.15l-0.353,-0.025c-0.134,-0.009 -0.295,-0.004 -0.433,-0.008c-3.841,-0.189 -8.079,1.007 -12.342,4.433c-0.152,-0.142 -0.305,-0.288 -0.457,-0.44c-8.92,-8.919 -13.44,-24.73 -8.487,-29.683c1.331,-1.33 3.56,-2.007 6.373,-2.007Zm25.587,13.138c5.401,7.167 3.781,14.01 0.012,18.565c-0.124,-0.152 -0.248,-0.303 -0.373,-0.466l-0.328,-0.419c-0.124,-0.171 -0.238,-0.348 -0.351,-0.527l-0.392,-0.605c-0.138,-0.229 -0.259,-0.461 -0.404,-0.743c-0.004,-0.009 -0.06,-0.113 -0.064,-0.122c-0.059,-0.105 -0.12,-0.211 -0.17,-0.315c-0.128,-0.266 -0.239,-0.541 -0.346,-0.804l-0.178,-0.429c-0.107,-0.291 -0.199,-0.585 -0.285,-0.873l-0.122,-0.407c-0.083,-0.308 -0.149,-0.623 -0.209,-0.93l-0.073,-0.379c-0.054,-0.331 -0.091,-0.666 -0.128,-1.084l-0.022,-0.262c-0.02,-0.346 -0.024,-0.699 -0.011,-1.075l0.008,-0.3c0.018,-0.368 0.051,-0.74 0.102,-1.13l0.038,-0.277c0.06,-0.385 0.135,-0.775 0.234,-1.182l0.063,-0.245c0.106,-0.403 0.228,-0.812 0.379,-1.233l0.084,-0.219c0.159,-0.424 0.336,-0.851 0.539,-1.276l-0.198,-0.097c0.025,-0.051 0.058,-0.104 0.084,-0.155l0.211,0.061c0.221,-0.445 0.46,-0.894 0.73,-1.34l-0.176,-0.107c0.024,-0.039 0.055,-0.078 0.079,-0.117l0.186,0.081c0.288,-0.467 0.597,-0.935 1.004,-1.487c0.026,-0.034 0.052,-0.068 0.077,-0.102Zm11.556,17.13c2.888,0.086 6.009,1.149 9.188,3.584c-3.11,2.382 -6.159,3.444 -8.992,3.57l-0.072,0.003c-0.352,0.01 -0.706,0.003 -1.05,-0.015l-0.346,-0.031c-0.334,-0.03 -0.666,-0.065 -1.002,-0.12l-0.369,-0.071c-0.316,-0.06 -0.629,-0.125 -0.948,-0.211l-0.389,-0.119c-0.297,-0.09 -0.593,-0.181 -0.875,-0.285c-0.1,-0.038 -0.195,-0.077 -0.29,-0.117c-0.005,-0.003 -0.13,-0.054 -0.135,-0.056c-0.273,-0.112 -0.547,-0.222 -0.811,-0.351l-0.557,-0.295c-0.212,-0.112 -0.424,-0.221 -0.628,-0.343c-0.089,-0.054 -0.174,-0.111 -0.26,-0.168l-0.363,-0.239c-0.171,-0.108 -0.341,-0.218 -0.504,-0.336c-0.004,-0.003 -0.01,-0.005 -0.015,-0.008c-0.07,-0.049 -0.137,-0.105 -0.206,-0.16l-0.209,-0.16c-0.217,-0.167 -0.424,-0.332 -0.618,-0.493c2.289,-1.938 5.174,-3.336 8.398,-3.556c0.081,-0.004 0.163,-0.005 0.244,-0.007c0.268,-0.014 0.537,-0.019 0.809,-0.016Zm-23.01,0.018c0.355,-0.006 0.71,-0.003 1.06,0.018l0.229,0.018c3.088,0.292 5.852,1.659 8.059,3.53c-2.537,2.151 -5.811,3.638 -9.468,3.588c-2.888,-0.091 -6.008,-1.143 -9.186,-3.583c0.115,-0.089 0.235,-0.177 0.359,-0.272c0.466,-0.342 0.93,-0.651 1.429,-0.957l0.114,-0.073c0.444,-0.267 0.887,-0.504 1.356,-0.735l0.17,-0.087c0.429,-0.204 0.855,-0.381 1.371,-0.575l0.135,-0.05c0.41,-0.149 0.82,-0.27 1.307,-0.397l0.178,-0.046c0.391,-0.095 0.783,-0.171 1.172,-0.231l0.293,-0.041c0.37,-0.049 0.74,-0.082 1.119,-0.099l0.303,-0.008Zm-11.564,5.29c3.966,3.185 7.909,4.442 11.53,4.45c0.091,0.002 0.185,0.013 0.275,0.013c2.242,0 4.351,-0.497 6.274,-1.302c-2.181,5.062 -2.125,11.512 3.103,18.018c-0.144,0.152 -0.291,0.306 -0.443,0.458c-8.92,8.919 -24.733,13.436 -29.683,8.486c-2.287,-2.286 -2.64,-7.233 -0.949,-13.232c1.725,-6.118 5.253,-12.266 9.435,-16.449c0.154,-0.152 0.306,-0.3 0.458,-0.442Zm45.891,0.081c0.124,0.117 0.247,0.236 0.371,0.359c4.184,4.183 7.712,10.333 9.438,16.451c1.691,5.999 1.337,10.946 -0.949,13.232c-4.956,4.951 -20.765,0.432 -29.686,-8.489c-0.113,-0.113 -0.221,-0.225 -0.328,-0.338c0.251,-0.31 0.5,-0.597 0.765,-0.951c0.386,-0.526 0.734,-1.051 1.056,-1.577c0.002,-0.004 0.105,-0.162 0.107,-0.165c0.306,-0.512 0.577,-1.022 0.859,-1.592l0.079,-0.155c0.238,-0.498 0.445,-0.992 0.628,-1.478l0.102,-0.28c0.17,-0.479 0.316,-0.958 0.465,-1.525l0.056,-0.219c0.114,-0.466 0.202,-0.927 0.27,-1.373c0.022,-0.127 0.038,-0.253 0.051,-0.362c0.06,-0.446 0.101,-0.891 0.122,-1.335l0.01,-0.376c0.008,-0.431 0.004,-0.857 -0.023,-1.277l-0.03,-0.404c-0.034,-0.405 -0.079,-0.807 -0.145,-1.206l-0.084,-0.439c-0.072,-0.377 -0.151,-0.752 -0.25,-1.125l-0.139,-0.467c-0.105,-0.351 -0.214,-0.696 -0.341,-1.038c-0.042,-0.108 -0.088,-0.214 -0.132,-0.321l-0.095,-0.233c-0.03,-0.074 -0.065,-0.148 -0.096,-0.222c1.943,0.812 4.084,1.29 6.353,1.277c0.014,-0 0.028,-0 0.043,-0c0.126,-0 0.254,-0 0.376,-0.003l0.392,-0.01c0.441,-0.019 0.887,-0.062 1.327,-0.119c0.12,-0.015 0.242,-0.03 0.351,-0.049c0.459,-0.07 0.922,-0.162 1.396,-0.277l0.303,-0.076c0.478,-0.126 0.96,-0.272 1.442,-0.445c0.007,-0.003 0.121,-0.045 0.127,-0.046l-0.028,-0.071c0.042,-0.016 0.083,-0.032 0.125,-0.048l0.035,0.068c0.495,-0.185 0.992,-0.394 1.486,-0.628l0.216,-0.112c0.51,-0.249 1.023,-0.525 1.541,-0.837l0.158,-0.099c0.526,-0.323 1.049,-0.671 1.559,-1.045c0.007,-0.005 0.104,-0.08 0.111,-0.086c0.203,-0.151 0.404,-0.33 0.606,-0.489Zm-22.871,0.333c3.776,4.555 5.403,11.407 -0.005,18.581c-5.404,-7.175 -3.77,-14.027 0.005,-18.581Z" style="fill:#f0f0f0;fill-rule:nonzero;"/></g></svg>