<?xml version="1.0" encoding="UTF-8" standalone="no"?><!DOCTYPE svg PUBLIC "-//W3C//DTD SVG 1.1//EN" "http://www.w3.org/Graphics/SVG/1.1/DTD/svg11.dtd"><svg width="100%" height="100%" viewBox="0 0 1113 1113" version="1.1" xmlns="http://www.w3.org/2000/svg" xmlns:xlink="http://www.w3.org/1999/xlink" xml:space="preserve" xmlns:serif="http://www.serif.com/" style="fill-rule:evenodd;clip-rule:evenodd;stroke-linejoin:round;stroke-miterlimit:2;"><path d="M538.196,34.721c-277.642,-0 -503.475,225.833 -503.475,503.475c-0,277.641 225.833,503.471 503.475,503.471c277.641,-0 503.471,-225.829 503.471,-503.471c-0,-277.642 -225.829,-503.475 -503.471,-503.475Zm-0,34.725c258.45,-0 468.75,210.3 468.75,468.75c-0,258.45 -210.3,468.75 -468.75,468.75c-258.45,-0 -468.75,-210.3 -468.75,-468.75c-0,-258.45 210.3,-468.75 468.75,-468.75Zm-7.596,69.579c-102.337,2.033 -201.417,43.471 -274.725,116.779c-75.412,75.479 -116.987,175.713 -116.987,282.392c-0,106.675 41.504,206.908 116.916,282.387c3.392,3.325 7.867,5.088 12.275,5.088c4.475,-0 8.954,-1.763 12.342,-5.088c6.783,-6.85 6.783,-17.766 -0,-24.616c-68.9,-68.834 -106.808,-160.388 -106.808,-257.771c-0,-97.388 37.908,-188.938 106.808,-257.775c82.4,-82.463 200.4,-120.713 315.758,-102.2c9.563,1.562 18.375,-4.95 19.871,-14.375c1.492,-9.496 -4.954,-18.446 -14.379,-19.938c-23.738,-3.8 -47.471,-5.425 -71.071,-4.883Zm140.583,23.871c-6.712,0.337 -13.02,4.612 -15.529,11.325c-3.391,8.954 1.15,18.987 10.171,22.379c12.342,4.613 24.617,9.971 36.417,15.871c2.512,1.287 5.225,1.9 7.866,1.9c6.309,-0 12.413,-3.463 15.534,-9.563c4.271,-8.545 0.812,-18.991 -7.734,-23.329c-12.954,-6.512 -26.379,-12.346 -39.941,-17.429c-2.171,-0.817 -4.479,-1.221 -6.784,-1.154Zm100.234,57.171c-4.409,0.541 -8.613,2.712 -11.596,6.508c-5.9,7.529 -4.613,18.446 2.983,24.346c11.529,9.087 22.717,18.992 33.163,29.5c68.9,68.837 106.812,160.387 106.812,257.775c0,97.383 -37.912,188.937 -106.812,257.771c-6.784,6.85 -6.784,17.766 -0,24.616c3.391,3.325 7.866,5.088 12.341,5.088c4.409,-0 8.884,-1.763 12.275,-5.088c75.413,-75.479 116.917,-175.712 116.917,-282.387c0,-106.679 -41.504,-206.913 -116.917,-282.392c-11.529,-11.458 -23.737,-22.312 -36.35,-32.212c-3.795,-2.917 -8.408,-4.067 -12.816,-3.525Zm-250.584,92.433c-57.441,0 -104.166,46.725 -104.166,104.167l-0,20.55c-0,24.075 7.054,47.404 20.412,67.408l10.784,16.208l-13.834,0c-9.562,0 -17.362,7.8 -17.362,17.363c-0,9.562 7.8,17.358 17.362,17.358l34.721,0c0.204,0 0.338,-0.066 0.542,-0.066c10.921,21.633 16.821,45.437 16.821,69.987l-0,34.246l-69.446,-0c-9.563,-0 -17.363,7.8 -17.363,17.362c0,9.563 7.8,17.363 17.363,17.363l243.054,-0c9.562,-0 17.362,-7.8 17.362,-17.363c0,-9.562 -7.8,-17.362 -17.362,-17.362l-138.888,-0l0,-34.246c0,-37.842 -11.054,-74.462 -32.079,-105.929l-22.783,-34.179c-9.563,-14.313 -14.583,-30.925 -14.583,-48.15l-0,-20.55c-0,-38.317 31.129,-69.446 69.445,-69.446l34.721,-0c38.317,-0 69.446,31.129 69.446,69.446c0,9.562 7.8,17.362 17.363,17.362c9.562,0 17.358,-7.8 17.358,-17.362c-0,-57.442 -46.725,-104.167 -104.167,-104.167l-34.721,0Zm34.721,208.333c-9.562,0 -17.358,7.8 -17.358,17.363c-0,9.562 7.796,17.358 17.358,17.358l52.084,0c9.562,0 17.362,-7.796 17.362,-17.358c0,-9.563 -7.8,-17.363 -17.362,-17.363l-52.084,0Zm-184.462,284.63c-6.779,-0.817 -13.629,2.304 -17.154,8.541l-17.363,30.113c-4.817,8.275 -1.967,18.854 6.308,23.666c2.713,1.563 5.696,2.375 8.68,2.375c5.966,0 11.8,-3.12 14.987,-8.679l17.363,-30.112c4.812,-8.275 2.033,-18.921 -6.309,-23.738c-2.104,-1.15 -4.271,-1.896 -6.512,-2.166Zm334.204,-0c-2.238,0.27 -4.408,1.016 -6.513,2.166c-8.341,4.817 -11.12,15.463 -6.304,23.804l17.359,30.046c3.187,5.559 9.02,8.679 14.987,8.679c2.983,0 5.971,-0.745 8.683,-2.375c8.342,-4.745 11.121,-15.391 6.305,-23.666l-17.359,-30.042c-3.596,-6.242 -10.446,-9.429 -17.158,-8.612Zm-257.163,33.837c-6.645,0.95 -12.479,5.767 -14.375,12.75l-8.954,33.571c-2.508,9.221 3.054,18.717 12.275,21.225c1.492,0.408 3.054,0.612 4.546,0.612c7.663,0 14.646,-5.154 16.75,-12.887l8.95,-33.567c2.508,-9.225 -2.983,-18.787 -12.204,-21.229c-2.375,-0.679 -4.75,-0.812 -6.988,-0.475Zm180.121,0c-2.237,-0.337 -4.612,-0.204 -6.983,0.475c-9.225,2.442 -14.717,12.004 -12.275,21.229l9.021,33.567c2.1,7.733 9.087,12.887 16.75,12.887c1.491,0 2.983,-0.204 4.541,-0.612c9.225,-2.508 14.717,-12.004 12.275,-21.225l-8.95,-33.571c-1.9,-6.983 -7.733,-11.8 -14.379,-12.75Zm-90.058,11.396c-9.563,-0 -17.363,7.796 -17.363,17.358l0,34.725c0,9.563 7.8,17.359 17.363,17.359c9.562,-0 17.358,-7.796 17.358,-17.359l0,-34.725c0,-9.562 -7.796,-17.358 -17.358,-17.358Z" style="fill:#f0f0f0;fill-rule:nonzero;"/><path d="M520.833,312.5c-57.441,0 -104.166,46.725 -104.166,104.167l-0,20.55c-0,24.075 7.054,47.404 20.412,67.408l10.784,16.208l-13.834,0c-9.562,0 -17.362,7.8 -17.362,17.363c-0,9.562 7.8,17.358 17.362,17.358l34.721,0c0.204,0 0.338,-0.067 0.542,-0.067c10.921,21.634 16.821,45.438 16.821,69.988l-0,34.246l-69.446,-0c-9.563,-0 -17.363,7.8 -17.363,17.362c0,9.563 7.8,17.363 17.363,17.363l243.054,-0c9.562,-0 17.362,-7.8 17.362,-17.363c0,-9.562 -7.8,-17.362 -17.362,-17.362l-138.888,-0l0,-34.246c0,-37.842 -11.054,-74.463 -32.079,-105.929l-22.783,-34.179c-9.563,-14.313 -14.583,-30.925 -14.583,-48.15l-0,-20.55c-0,-38.317 31.129,-69.446 69.445,-69.446l34.721,-0c38.317,-0 69.446,31.129 69.446,69.446c0,9.562 7.8,17.362 17.363,17.362c9.562,0 17.358,-7.8 17.358,-17.362c-0,-57.442 -46.725,-104.167 -104.167,-104.167l-34.721,-0Zm34.721,208.333c-9.562,0 -17.358,7.8 -17.358,17.363c-0,9.562 7.796,17.358 17.358,17.358l52.084,0c9.562,0 17.362,-7.796 17.362,-17.358c0,-9.563 -7.8,-17.363 -17.362,-17.363l-52.084,0Z" style="fill:#fc9c19;fill-rule:nonzero;"/></svg>