<?xml version="1.0" encoding="UTF-8" standalone="no"?><!DOCTYPE svg PUBLIC "-//W3C//DTD SVG 1.1//EN" "http://www.w3.org/Graphics/SVG/1.1/DTD/svg11.dtd"><svg width="100%" height="100%" viewBox="0 0 267 267" version="1.1" xmlns="http://www.w3.org/2000/svg" xmlns:xlink="http://www.w3.org/1999/xlink" xml:space="preserve" xmlns:serif="http://www.serif.com/" style="fill-rule:evenodd;clip-rule:evenodd;stroke-linejoin:round;stroke-miterlimit:2;"><g><path d="M12.5,108.333c-6.885,0 -12.5,5.616 -12.5,12.5l0,125c0,6.885 5.615,12.5 12.5,12.5l241.667,0c6.884,0 12.5,-5.615 12.5,-12.5l-0,-125c-0,-6.884 -5.616,-12.5 -12.5,-12.5l-241.667,0Zm-0,8.334l241.667,-0c2.295,-0 4.166,1.871 4.166,4.166l0,125c0,2.295 -1.871,4.167 -4.166,4.167l-241.667,0c-2.295,0 -4.167,-1.872 -4.167,-4.167l0,-125c0,-2.295 1.872,-4.166 4.167,-4.166Zm58.333,12.5c-2.311,-0 -4.166,1.871 -4.166,4.166l-0,8.334c-0,2.295 1.855,4.166 4.166,4.166c2.312,0 4.167,-1.871 4.167,-4.166l-0,-8.334c-0,-2.295 -1.855,-4.166 -4.167,-4.166Zm20.834,-0c-2.312,-0 -4.167,1.871 -4.167,4.166l-0,8.334c-0,2.295 1.855,4.166 4.167,4.166c2.311,0 4.166,-1.871 4.166,-4.166l0,-8.334c0,-2.295 -1.855,-4.166 -4.166,-4.166Zm20.833,-0c-2.311,-0 -4.167,1.871 -4.167,4.166l0,8.334c0,1.595 0.928,2.929 2.23,3.629c-10.889,8.236 -18.066,22.217 -18.066,38.037c-0,15.821 7.177,29.802 18.066,38.037c-1.302,0.7 -2.23,2.035 -2.23,3.63l0,8.333c0,2.295 1.856,4.167 4.167,4.167c2.311,0 4.167,-1.872 4.167,-4.167l-0,-8.203c3.89,1.97 8.089,3.304 12.5,3.793l-0,4.41c-0,2.295 1.855,4.167 4.166,4.167c2.312,0 4.167,-1.872 4.167,-4.167l-0,-4.41c4.411,-0.489 8.61,-1.823 12.5,-3.793l-0,8.203c-0,2.295 1.855,4.167 4.167,4.167c2.311,0 4.166,-1.872 4.166,-4.167l0,-8.333c0,-1.595 -0.927,-2.93 -2.229,-3.63c10.888,-8.235 18.066,-22.216 18.066,-38.037c-0,-15.82 -7.178,-29.801 -18.066,-38.037c1.302,-0.7 2.229,-2.034 2.229,-3.629l0,-8.334c0,-2.295 -1.855,-4.166 -4.166,-4.166c-2.312,-0 -4.167,1.871 -4.167,4.166l-0,8.203c-3.89,-1.969 -8.089,-3.304 -12.5,-3.792l-0,-4.411c-0,-2.295 -1.855,-4.166 -4.167,-4.166c-2.311,-0 -4.166,1.871 -4.166,4.166l-0,4.411c-4.411,0.488 -8.61,1.823 -12.5,3.792l-0,-8.203c-0,-2.295 -1.856,-4.166 -4.167,-4.166Zm62.5,-0c-2.311,-0 -4.167,1.871 -4.167,4.166l0,8.334c0,2.295 1.856,4.166 4.167,4.166c2.311,0 4.167,-1.871 4.167,-4.166l-0,-8.334c-0,-2.295 -1.856,-4.166 -4.167,-4.166Zm20.833,-0c-2.311,-0 -4.166,1.871 -4.166,4.166l-0,8.334c-0,2.295 1.855,4.166 4.166,4.166c2.312,0 4.167,-1.871 4.167,-4.166l-0,-8.334c-0,-2.295 -1.855,-4.166 -4.167,-4.166Zm-166.666,4.166c-2.312,0 -4.167,1.872 -4.167,4.167c-0,2.295 1.855,4.167 4.167,4.167l20.833,-0c2.311,-0 4.167,-1.872 4.167,-4.167c-0,-2.295 -1.856,-4.167 -4.167,-4.167l-20.833,0Zm187.5,0c-2.312,0 -4.167,1.872 -4.167,4.167c0,2.295 1.855,4.167 4.167,4.167l20.833,-0c2.311,-0 4.167,-1.872 4.167,-4.167c-0,-2.295 -1.856,-4.167 -4.167,-4.167l-20.833,0Zm-83.334,12.5c17.92,0 32.504,16.83 32.504,37.5c-0,20.671 -14.584,37.5 -32.504,37.5c-17.92,0 -32.503,-16.829 -32.503,-37.5c0,-20.67 14.583,-37.5 32.503,-37.5Zm-95.833,20.834c-9.196,-0 -16.667,7.47 -16.667,16.666c0,9.196 7.471,16.667 16.667,16.667c9.196,0 16.667,-7.471 16.667,-16.667c-0,-9.196 -7.471,-16.666 -16.667,-16.666Zm191.667,-0c-9.196,-0 -16.667,7.47 -16.667,16.666c0,9.196 7.471,16.667 16.667,16.667c9.196,0 16.666,-7.471 16.666,-16.667c0,-9.196 -7.47,-16.666 -16.666,-16.666Zm-0,6.771c5.452,-0 9.895,4.443 9.895,9.895c0,5.453 -4.443,9.896 -9.895,9.896c-5.453,0 -9.896,-4.443 -9.896,-9.896c-0,-5.452 4.443,-9.895 9.896,-9.895Zm-191.667,0.26c5.306,-0 9.635,4.329 9.635,9.635c0,5.306 -4.329,9.636 -9.635,9.636c-5.306,-0 -9.635,-4.33 -9.635,-9.636c-0,-5.306 4.329,-9.635 9.635,-9.635Zm33.333,47.135c-2.311,0 -4.166,1.872 -4.166,4.167l-0,8.333c-0,2.295 1.855,4.167 4.166,4.167c2.312,0 4.167,-1.872 4.167,-4.167l-0,-8.333c-0,-2.295 -1.855,-4.167 -4.167,-4.167Zm20.834,0c-2.312,0 -4.167,1.872 -4.167,4.167l-0,8.333c-0,2.295 1.855,4.167 4.167,4.167c2.311,0 4.166,-1.872 4.166,-4.167l0,-8.333c0,-2.295 -1.855,-4.167 -4.166,-4.167Zm83.333,0c-2.311,0 -4.167,1.872 -4.167,4.167l0,8.333c0,2.295 1.856,4.167 4.167,4.167c2.311,0 4.167,-1.872 4.167,-4.167l-0,-8.333c-0,-2.295 -1.856,-4.167 -4.167,-4.167Zm20.833,0c-2.311,0 -4.166,1.872 -4.166,4.167l-0,8.333c-0,2.295 1.855,4.167 4.166,4.167c2.312,0 4.167,-1.872 4.167,-4.167l-0,-8.333c-0,-2.295 -1.855,-4.167 -4.167,-4.167Zm-166.666,4.167c-2.312,0 -4.167,1.872 -4.167,4.167c-0,2.295 1.855,4.166 4.167,4.166l20.833,0c2.311,0 4.167,-1.871 4.167,-4.166c-0,-2.295 -1.856,-4.167 -4.167,-4.167l-20.833,0Zm187.5,0c-2.312,0 -4.167,1.872 -4.167,4.167c0,2.295 1.855,4.166 4.167,4.166l20.833,0c2.311,0 4.167,-1.871 4.167,-4.166c-0,-2.295 -1.856,-4.167 -4.167,-4.167l-20.833,0Z" style="fill:#f0f0f0;fill-rule:nonzero;"/><path d="M185.482,95.833c-2.311,-0 -4.167,-1.872 -4.167,-4.167c0,-2.295 1.856,-4.166 4.167,-4.166l25.26,-0l-38.737,-38.754c-1.627,0.83 -3.418,1.254 -5.338,1.254c-2.539,-0 -4.965,-0.798 -6.966,-2.084l-14.454,10.873c0.375,1.171 0.586,2.425 0.586,3.711c0,6.868 -5.631,12.5 -12.5,12.5c-6.868,-0 -12.5,-5.632 -12.5,-12.5c0,-1.498 0.293,-2.963 0.782,-4.297l-31.901,-26.628c-1.888,1.139 -4.086,1.758 -6.381,1.758c-2.62,-0 -5.127,-0.83 -7.161,-2.246l-19.596,13.965c-1.872,1.318 -4.46,0.911 -5.795,-0.977c-1.318,-1.872 -0.911,-4.46 0.977,-5.794l19.58,-13.998c-0.342,-1.074 -0.505,-2.246 -0.505,-3.45c0,-6.869 5.632,-12.5 12.5,-12.5c6.869,-0 12.5,5.631 12.5,12.5c0,1.497 -0.293,2.995 -0.781,4.329l31.901,26.595c1.888,-1.139 4.085,-1.757 6.38,-1.757c2.539,-0 4.965,0.797 6.966,2.083l14.454,-10.873c-0.375,-1.171 -0.586,-2.425 -0.586,-3.71c-0,-6.869 5.631,-12.5 12.5,-12.5c6.868,-0 12.5,5.631 12.5,12.5c-0,1.92 -0.424,3.71 -1.254,5.338l38.754,38.737l-0,-25.26c-0,-2.295 1.855,-4.167 4.166,-4.167c2.312,-0 4.167,1.872 4.167,4.167l0,35.286c0.016,1.107 -0.374,2.197 -1.204,3.027c-0.831,0.83 -1.921,1.221 -3.028,1.205l-35.286,-0Zm-52.149,-29.167c0.619,0 1.205,-0.13 1.758,-0.374c0.163,-0.082 0.326,-0.163 0.488,-0.293c0.082,-0.049 0.163,-0.114 0.245,-0.163c0.048,-0.049 0.13,-0.081 0.179,-0.13l0.081,-0.081c0.13,-0.082 0.244,-0.245 0.374,-0.375l0.375,-0.504c0.13,-0.163 0.211,-0.375 0.293,-0.538c0.13,-0.292 0.211,-0.585 0.293,-0.878c0.048,-0.245 0.081,-0.505 0.081,-0.798l0,-0.032c0,-0.961 -0.342,-1.823 -0.879,-2.54c-0.163,-0.211 -0.325,-0.423 -0.537,-0.585c-0.13,-0.131 -0.293,-0.212 -0.407,-0.326c-0.667,-0.472 -1.465,-0.716 -2.344,-0.716c-0.879,-0 -1.676,0.244 -2.343,0.716c-0.196,0.163 -0.358,0.277 -0.57,0.488c-0.081,0.082 -0.212,0.212 -0.293,0.342c-0.163,0.195 -0.326,0.407 -0.423,0.619c-0.114,0.162 -0.196,0.341 -0.244,0.553c-0.082,0.163 -0.163,0.325 -0.163,0.537c-0.098,0.277 -0.13,0.586 -0.13,0.912c-0,0.716 0.162,1.416 0.537,2.001c0.097,0.212 0.211,0.375 0.342,0.538c0.081,0.13 0.195,0.244 0.325,0.374l0.293,0.293c0.505,0.423 1.091,0.716 1.758,0.83c0.277,0.098 0.586,0.13 0.911,0.13Zm33.334,-25c0.879,0 1.676,-0.244 2.343,-0.716c0.082,-0.033 0.114,-0.114 0.196,-0.163c0.244,-0.211 0.504,-0.407 0.667,-0.667c0.163,-0.195 0.326,-0.407 0.423,-0.619c0.196,-0.325 0.326,-0.699 0.407,-1.09c0.098,-0.277 0.13,-0.586 0.13,-0.911c0,-0.293 -0.032,-0.586 -0.081,-0.831c-0.13,-0.618 -0.423,-1.204 -0.798,-1.709c-0.211,-0.244 -0.406,-0.504 -0.667,-0.667c-0.195,-0.163 -0.407,-0.325 -0.618,-0.423c-0.326,-0.195 -0.7,-0.326 -1.091,-0.407c-0.277,-0.098 -0.586,-0.13 -0.911,-0.13c-0.293,-0 -0.586,0.032 -0.83,0.081c-0.83,0.163 -1.547,0.586 -2.133,1.123c-0.748,0.798 -1.204,1.791 -1.204,2.963c0,2.294 1.872,4.166 4.167,4.166Zm-83.334,-16.666c0.798,-0 1.579,-0.245 2.214,-0.635c0.081,-0.033 0.114,-0.065 0.195,-0.147c0.261,-0.179 0.505,-0.423 0.716,-0.635l0.082,-0.081c0.162,-0.244 0.342,-0.504 0.455,-0.749c0.049,-0.048 0.049,-0.048 0.049,-0.097c0.163,-0.277 0.244,-0.57 0.326,-0.863c0.097,-0.293 0.13,-0.635 0.13,-0.96c0,-0.456 -0.081,-0.879 -0.26,-1.302c-0,-0.163 -0.066,-0.358 -0.196,-0.521c-0.081,-0.212 -0.211,-0.423 -0.325,-0.586c-0.13,-0.179 -0.261,-0.342 -0.423,-0.553c-0.082,-0.049 -0.131,-0.114 -0.212,-0.163c-0.081,-0.049 -0.13,-0.114 -0.212,-0.163c-0.162,-0.13 -0.325,-0.244 -0.504,-0.342c-0.082,-0.032 -0.114,-0.081 -0.212,-0.081c-0.276,-0.163 -0.569,-0.293 -0.862,-0.326c-0.293,-0.097 -0.635,-0.13 -0.961,-0.13c-0.586,0 -1.123,0.13 -1.627,0.326c-0.082,0.049 -0.114,0.049 -0.196,0.081c-0.211,0.13 -0.423,0.212 -0.586,0.374c-0.097,0.049 -0.13,0.098 -0.211,0.131c-0.13,0.13 -0.212,0.211 -0.342,0.293c-0.211,0.211 -0.374,0.472 -0.537,0.716c-0.13,0.163 -0.212,0.374 -0.293,0.537c-0.13,0.293 -0.212,0.586 -0.293,0.879c-0.049,0.244 -0.081,0.504 -0.081,0.781l-0,0.049c-0,0.96 0.341,1.823 0.879,2.539c0.162,0.211 0.325,0.423 0.537,0.586c0.13,0.13 0.293,0.211 0.407,0.325c0.667,0.472 1.464,0.717 2.343,0.717Z" style="fill:#fc9c19;fill-rule:nonzero;"/></g></svg>