<?xml version="1.0" encoding="UTF-8" standalone="no"?><!DOCTYPE svg PUBLIC "-//W3C//DTD SVG 1.1//EN" "http://www.w3.org/Graphics/SVG/1.1/DTD/svg11.dtd"><svg width="100%" height="100%" viewBox="0 0 3082 3773" version="1.1" xmlns="http://www.w3.org/2000/svg" xmlns:xlink="http://www.w3.org/1999/xlink" xml:space="preserve" xmlns:serif="http://www.serif.com/" style="fill-rule:evenodd;clip-rule:evenodd;stroke-linecap:round;stroke-linejoin:round;stroke-miterlimit:1.5;"><circle cx="1540.62" cy="1886.46" r="1486.42" style="fill:none;stroke:#f0f0f0;stroke-width:70.5px;"/><path d="M1603.49,1421.25c-17.943,-2.357 -35.1,10.478 -37.589,28.814c-2.488,18.336 10.347,35.231 28.683,37.72c24.099,3.143 47.936,8.644 71.118,16.109c3.405,1.048 6.81,1.703 10.215,1.703c14.145,-0 27.373,-9.168 31.957,-23.182c5.763,-17.681 -3.929,-36.541 -21.479,-42.304c-26.98,-8.775 -54.746,-15.192 -82.905,-18.86Zm245.309,123.506c-8.513,0 -17.157,3.275 -23.705,9.823l-47.412,47.412c-13.097,13.097 -13.097,34.314 0,47.411c6.549,6.549 15.062,9.823 23.706,9.823c8.644,0 17.157,-3.274 23.706,-9.823l47.411,-47.411c13.097,-13.097 13.097,-34.315 0,-47.412c-6.548,-6.548 -15.192,-9.823 -23.706,-9.823Zm92.99,137.913c-4.322,0 -8.775,0.786 -12.966,2.619l-61.819,26.195c-17.026,7.203 -25.015,26.98 -17.812,44.006c5.501,12.835 17.943,20.432 30.91,20.432c4.453,-0 8.775,-0.917 13.097,-2.62l61.818,-26.194c17.026,-7.334 24.885,-26.98 17.681,-44.006c-5.37,-12.836 -17.812,-20.563 -30.909,-20.432Zm-401.165,136.734c-37.065,0 -67.057,29.992 -67.057,67.057c-0,37.065 29.992,67.058 67.057,67.058c37.065,-0 67.057,-29.993 67.057,-67.058c0,-37.065 -29.992,-67.057 -67.057,-67.057Zm368.815,33.529c-18.467,-0 -33.529,14.93 -33.529,33.528c0,18.598 15.062,33.529 33.529,33.529l67.057,-0c18.467,-0 33.529,-14.931 33.529,-33.529c0,-18.598 -15.062,-33.528 -33.529,-33.528l-67.057,-0Zm-27.373,138.174c-13.097,0.262 -25.408,8.121 -30.647,20.956c-6.811,17.157 1.441,36.803 18.598,43.613l62.211,25.147c4.06,1.702 8.382,2.488 12.442,2.488c13.359,0 25.933,-7.989 31.172,-20.955c6.941,-17.288 -1.31,-36.803 -18.598,-43.745l-62.081,-25.146c-4.322,-1.703 -8.775,-2.489 -13.097,-2.358Zm-80.678,122.59c-8.513,-0 -17.157,3.274 -23.706,9.822c-13.097,13.097 -13.097,34.315 0,47.412l47.412,47.412c6.548,6.548 15.061,9.822 23.705,9.822c8.645,0 17.158,-3.274 23.706,-9.822c13.097,-13.098 13.097,-34.315 0,-47.412l-47.411,-47.412c-6.549,-6.548 -15.193,-9.822 -23.706,-9.822Zm-116.696,78.713c-4.322,0 -8.775,0.917 -13.097,2.62c-17.026,7.334 -25.015,26.98 -17.812,44.006l26.194,61.818c5.501,12.705 17.943,20.432 30.91,20.432c4.453,-0 8.906,-0.917 13.097,-2.619c17.157,-7.335 25.015,-26.981 17.812,-44.007l-26.194,-61.818c-5.37,-12.835 -17.812,-20.432 -30.91,-20.432Zm-144.068,29.338c-18.467,-0 -33.529,14.931 -33.529,33.528l0,67.058c0,18.598 15.062,33.528 33.529,33.528c18.467,0 33.529,-14.93 33.529,-33.528l-0,-67.058c-0,-18.597 -15.062,-33.528 -33.529,-33.528Z" style="fill:#fc9c19;fill-rule:nonzero;"/><path d="M1453.45,813.542c-49.458,-0 -92.211,33.389 -104.082,81.31l-61.886,246.427c-31.44,10.764 -63.147,24.033 -94.442,39.818l-218.351,-131.179c-42.333,-25.286 -96.117,-18.583 -131.042,16.205l-123.36,123.36c-34.925,34.78 -41.492,88.709 -16.205,131.042l130.896,218.351c-15.365,31.012 -28.634,62.865 -39.252,94.58l-246.719,61.749c-47.912,11.87 -81.302,54.761 -81.302,104.081l0,174.345c0,49.457 33.39,92.202 81.302,104.081l246.436,61.886c10.763,31.57 24.17,63.422 39.818,94.442l-131.179,218.352c-25.287,42.333 -18.72,96.116 16.205,131.042l123.36,123.359c34.925,34.926 88.709,41.492 131.042,16.206l218.351,-130.905c31.295,15.51 63.148,28.78 94.58,39.26l61.748,246.857c11.871,47.775 54.762,81.164 104.082,81.164l174.344,0c49.458,0 92.203,-33.389 104.082,-81.164l61.886,-246.582c31.432,-10.755 63.147,-24.025 94.442,-39.809l218.351,131.179c42.334,25.286 96.117,18.583 131.042,-16.206l123.36,-123.359c34.926,-34.789 41.492,-88.709 16.205,-131.042l-130.904,-218.352c15.364,-31.02 28.642,-62.873 39.26,-94.579l246.711,-61.749c47.921,-11.879 81.31,-54.762 81.31,-104.081l-0,-174.345c-0,-49.32 -33.389,-92.211 -81.173,-104.081l-246.573,-61.886c-10.755,-31.578 -24.171,-63.431 -39.818,-94.443l131.187,-218.351c25.287,-42.333 18.721,-96.116 -16.205,-131.042l-123.36,-123.36c-34.925,-34.925 -88.708,-41.491 -131.041,-16.205l-218.352,130.905c-31.295,-15.511 -63.147,-28.78 -94.58,-39.261l-61.748,-246.71c-11.879,-47.921 -54.77,-81.31 -104.082,-81.31l-174.344,-0Zm-0,71.525l174.344,-0c16.489,-0 30.737,11.175 34.643,27.106l61.748,246.711c5.871,23.329 23.192,42.195 46.522,50.152c28.359,9.639 57.139,21.793 85.644,35.904c22.068,11.038 47.638,9.922 68.59,-2.652l218.497,-130.905c14.111,-8.514 31.99,-6.283 43.586,5.313l123.36,123.214c11.596,11.742 13.828,29.759 5.304,43.732l-130.895,218.352c-12.575,20.96 -13.553,46.659 -2.661,68.735c14.111,28.222 26.127,57.002 35.904,85.636c7.965,23.192 26.823,40.659 50.152,46.384l246.582,61.749c16.06,4.051 27.235,18.299 27.235,34.788l0,174.345c0,16.488 -11.175,30.737 -27.097,34.651l-246.72,61.748c-23.329,5.863 -42.187,23.184 -50.152,46.522c-9.639,28.634 -21.793,57.414 -35.904,85.636c-10.892,22.067 -9.914,47.637 2.661,68.589l131.041,218.497c8.378,13.974 6.146,31.991 -5.313,43.587l-123.359,123.359c-11.734,11.596 -29.759,13.828 -43.724,5.305l-218.36,-130.896c-20.952,-12.575 -46.659,-13.553 -68.727,-2.661c-28.359,14.111 -57.139,26.128 -85.644,35.904c-23.184,7.966 -40.651,26.823 -46.376,50.161l-61.748,246.574c-4.052,16.059 -18.3,27.243 -34.789,27.243l-174.344,0c-16.489,0 -30.737,-11.184 -34.651,-27.106l-61.749,-246.711c-5.871,-23.338 -23.192,-42.195 -46.521,-50.161c-28.36,-9.639 -57.14,-21.793 -85.636,-35.904c-10.197,-5.021 -21.235,-7.536 -32.136,-7.536c-12.712,-0 -25.287,3.347 -36.462,10.197l-218.489,130.896c-13.974,8.523 -31.999,6.291 -43.586,-5.305l-123.36,-123.222c-11.596,-11.733 -13.836,-29.75 -5.313,-43.724l130.904,-218.351c12.575,-20.96 13.554,-46.668 2.653,-68.735c-14.111,-28.222 -26.119,-57.002 -35.904,-85.636c-7.957,-23.192 -26.823,-40.659 -50.153,-46.385l-246.711,-61.748c-15.93,-4.051 -27.106,-18.3 -27.106,-34.788l0,-174.345c0,-16.489 11.176,-30.737 27.106,-34.788l246.711,-61.749c23.33,-5.725 42.196,-23.192 50.153,-46.384c9.639,-28.634 21.793,-57.414 35.904,-85.636c10.901,-22.076 9.922,-47.775 -2.653,-68.735l-131.041,-218.352c-8.386,-13.973 -6.146,-31.99 5.304,-43.732l123.36,-123.214c11.596,-11.596 29.621,-13.827 43.732,-5.313l218.351,130.905c20.961,12.574 46.659,13.553 68.736,2.652c28.359,-14.111 57.139,-26.265 85.636,-35.904c23.192,-8.103 40.65,-26.823 46.384,-50.152l61.748,-246.711c4.052,-15.931 18.3,-27.106 34.789,-27.106Zm-18.583,514.528c-4.609,-0.696 -9.365,-0.558 -14.249,0.695c-224.085,55.045 -380.696,254.959 -380.696,486.168c-0,185.804 101.987,355.539 266.418,442.574c5.304,2.936 11.175,4.197 16.763,4.197c12.849,0 25.149,-6.849 31.57,-19.003c9.227,-17.459 2.661,-39.114 -14.807,-48.333c-140.818,-74.744 -228.411,-220.171 -228.411,-379.435c0,-198.103 134.115,-369.512 326.347,-416.738c19.133,-4.746 30.875,-24.162 26.119,-43.303c-3.493,-14.394 -15.226,-24.591 -29.054,-26.822Zm105.755,200.755c-157.727,0 -286.117,128.381 -286.117,286.108c0,157.728 128.39,286.109 286.117,286.109c157.719,-0 286.108,-128.381 286.108,-286.109c0,-157.727 -128.389,-286.108 -286.108,-286.108Zm0,71.525c118.33,0 214.583,96.254 214.583,214.583c0,118.33 -96.253,214.584 -214.583,214.584c-118.33,-0 -214.583,-96.254 -214.583,-214.584c-0,-118.33 96.253,-214.583 214.583,-214.583Z" style="fill:#f0f0f0;fill-rule:nonzero;"/></svg>