<?xml version="1.0" encoding="UTF-8" standalone="no"?><!DOCTYPE svg PUBLIC "-//W3C//DTD SVG 1.1//EN" "http://www.w3.org/Graphics/SVG/1.1/DTD/svg11.dtd"><svg width="100%" height="100%" viewBox="0 0 267 267" version="1.1" xmlns="http://www.w3.org/2000/svg" xmlns:xlink="http://www.w3.org/1999/xlink" xml:space="preserve" xmlns:serif="http://www.serif.com/" style="fill-rule:evenodd;clip-rule:evenodd;stroke-linejoin:round;stroke-miterlimit:2;"><clipPath id="_clip1"><rect x="0" y="0" width="266.667" height="266.667"/></clipPath><g clip-path="url(#_clip1)"><path d="M184.261,11.361c-3.027,-0.163 -6.103,0.358 -9.049,1.562l-17.92,7.455l-27.686,3.06c-3.776,0.423 -7.487,1.106 -11.133,1.985c-0.049,-0.016 -0.065,-0.032 -0.097,-0.065l-26.644,-11.947c-7.845,-3.515 -17.188,-1.806 -23.242,4.265l-62.631,62.614c-6.477,6.494 -7.959,16.634 -3.58,24.69l28.369,52.149l-8.545,8.952c-7.129,7.503 -6.999,19.108 0.342,26.432c3.564,3.581 8.333,5.55 13.379,5.55c0.504,0 0.992,-0.114 1.497,-0.146l-0.667,0.716c-6.332,6.738 -6.169,17.171 0.407,23.747c3.336,3.336 7.682,5.013 12.044,5.013c4.183,-0 8.366,-1.547 11.686,-4.655l0.716,-0.668c-0.049,0.505 -0.163,0.993 -0.163,1.514c0,5.062 1.97,9.814 5.567,13.395c3.711,3.727 8.561,5.599 13.395,5.599c4.671,0 9.342,-1.725 13.021,-5.208l0.358,-0.342c0.456,4.264 2.327,8.366 5.469,11.507c3.727,3.727 8.626,5.615 13.525,5.615c4.476,0 8.968,-1.595 12.581,-4.752l4.688,4.134c3.629,3.206 8.17,4.801 12.695,4.801c4.948,0 9.864,-1.888 13.591,-5.615c3.629,-3.629 5.631,-8.447 5.631,-13.59c0,-0.717 -0.049,-1.449 -0.13,-2.165c7.031,2.572 15.169,0.976 20.687,-4.541c4.004,-4.004 5.908,-9.31 5.745,-14.567c7.585,4.394 17.367,3.222 23.731,-3.125c4.948,-4.948 6.706,-11.931 5.241,-18.311c6.429,1.465 13.411,-0.325 18.343,-5.257c7.682,-7.682 8.089,-20.117 0.879,-28.336l-5.323,-5.86c6.967,-6.494 12.826,-13.997 17.367,-22.396l16.016,-29.606c4.362,-8.056 2.88,-18.18 -3.597,-24.642l-62.875,-62.874c-3.743,-3.744 -8.626,-5.843 -13.688,-6.087Zm-0.407,8.317c3.028,0.146 5.957,1.416 8.203,3.662l62.891,62.858c3.874,3.89 4.753,9.977 2.148,14.795l-16.015,29.606c-4.086,7.568 -9.375,14.323 -15.642,20.182l-62.239,-68.441c-13.265,-13.248 -32.959,-17.122 -50.228,-9.83l-28.125,11.849c-9.294,3.922 -19.71,3.369 -28.548,-1.546c-1.237,-0.684 -2.002,-1.872 -2.132,-3.288c-0.114,-1.4 0.439,-2.718 1.546,-3.614l33.952,-27.246c11.751,-9.44 25.879,-15.283 40.853,-16.943l28.271,-3.125c0.212,-0.016 0.374,-0.13 0.57,-0.179c0.195,-0.049 0.39,-0.033 0.586,-0.114l18.473,-7.682c1.758,-0.733 3.613,-1.042 5.436,-0.944Zm-101.042,0.244c1.872,-0.049 3.76,0.293 5.518,1.09l18.311,8.22c-7.943,3.19 -15.43,7.519 -22.185,12.939l-33.951,27.246c-3.256,2.604 -4.981,6.657 -4.623,10.808c0.342,4.15 2.735,7.845 6.38,9.879c11.084,6.153 24.138,6.852 35.84,1.937l28.109,-11.865c14.128,-5.957 30.257,-2.783 40.95,7.91l72.999,80.273c4.264,4.883 4.02,12.305 -0.586,16.911c-4.037,4.02 -10.466,4.427 -14.958,0.928l-15.723,-12.24c-1.741,-1.351 -4.232,-1.106 -5.68,0.537c-1.465,1.644 -1.384,4.151 0.163,5.713l12.63,12.614c4.411,4.411 4.411,11.589 -0,16.016c-4.037,4.02 -10.466,4.427 -14.974,0.928l-15.706,-12.24c-1.742,-1.351 -4.232,-1.107 -5.681,0.537c-1.465,1.644 -1.383,4.151 0.163,5.713l6.738,6.706c4.411,4.427 4.411,11.605 0,16.015c-4.036,4.037 -10.465,4.444 -14.957,0.944l-15.739,-12.223c-1.726,-1.351 -4.216,-1.123 -5.681,0.521c-1.448,1.644 -1.367,4.15 0.196,5.697l9.977,9.993c2.051,2.051 3.19,4.785 3.19,7.699c-0,2.897 -1.139,5.631 -3.19,7.682c-4.053,4.053 -10.58,4.264 -14.877,0.456l-53.19,-46.924l-25.358,-22.347c-6.95,-6.153 -12.728,-13.395 -17.171,-21.55l-30.143,-55.452c-2.621,-4.818 -1.742,-10.921 2.148,-14.795l62.614,-62.63c2.279,-2.279 5.339,-3.532 8.447,-3.646Zm102.865,9.863c-1.058,0 -2.116,0.407 -2.93,1.237l-5.908,5.892c-1.627,1.628 -1.627,4.248 0,5.876c0.814,0.814 1.888,1.22 2.962,1.22c1.058,0 2.133,-0.406 2.946,-1.22l5.876,-5.876c1.644,-1.644 1.644,-4.264 0,-5.892c-0.814,-0.83 -1.872,-1.237 -2.946,-1.237Zm14.746,14.746c-1.074,0 -2.132,0.407 -2.946,1.221l-5.892,5.876c-1.627,1.643 -1.627,4.264 0,5.908c0.814,0.797 1.872,1.204 2.946,1.204c1.074,0 2.132,-0.407 2.946,-1.204l5.892,-5.908c1.628,-1.628 1.628,-4.248 0,-5.876c-0.814,-0.83 -1.872,-1.237 -2.946,-1.221Zm14.73,14.73c-1.058,0 -2.132,0.407 -2.946,1.221l-5.892,5.892c-1.644,1.627 -1.644,4.264 0,5.892c0.798,0.813 1.872,1.22 2.93,1.22c1.074,0 2.148,-0.407 2.946,-1.22l5.908,-5.892c1.628,-1.628 1.628,-4.265 -0,-5.892c-0.814,-0.814 -1.888,-1.221 -2.946,-1.221Zm14.73,14.73c-1.058,-0 -2.132,0.407 -2.946,1.221l-5.892,5.892c-1.628,1.627 -1.628,4.264 -0,5.891c0.814,0.814 1.872,1.221 2.946,1.221c1.074,0 2.132,-0.407 2.946,-1.221l5.892,-5.891c1.627,-1.628 1.627,-4.265 -0,-5.892c-0.814,-0.814 -1.888,-1.221 -2.946,-1.221Zm14.73,14.73c-1.058,-0 -2.133,0.407 -2.946,1.22l-5.892,5.892c-1.628,1.628 -1.628,4.265 -0,5.892c0.814,0.814 1.871,1.221 2.946,1.221c1.074,-0 2.132,-0.407 2.946,-1.221l5.892,-5.892c1.627,-1.627 1.627,-4.264 -0,-5.892c-0.814,-0.813 -1.888,-1.22 -2.946,-1.22Zm-70.606,46.517c-1.074,-0 -2.132,0.407 -2.946,1.22c-1.627,1.644 -1.627,4.265 0,5.892l5.892,5.892c0.814,0.814 1.888,1.221 2.946,1.221c1.074,-0 2.149,-0.407 2.962,-1.221c1.628,-1.627 1.628,-4.264 0,-5.892l-5.908,-5.892c-0.814,-0.813 -1.872,-1.22 -2.946,-1.22Zm-14.73,14.746c-1.074,-0 -2.132,0.39 -2.946,1.204c-1.627,1.644 -1.627,4.281 0,5.908l5.909,5.876c0.797,0.814 1.871,1.221 2.929,1.221c1.074,-0 2.149,-0.407 2.946,-1.221c1.644,-1.628 1.644,-4.264 0,-5.876l-5.892,-5.908c-0.813,-0.814 -1.871,-1.204 -2.946,-1.204Zm-124.284,14.681c3.793,6.136 8.334,11.751 13.51,16.78l-5.192,5.192c-4.004,3.988 -10.954,4.004 -14.991,-0.016c-4.085,-4.101 -4.166,-10.596 -0.162,-14.795l6.835,-7.161Zm109.555,0.049c-1.058,-0 -2.133,0.39 -2.946,1.22c-1.628,1.612 -1.628,4.248 -0,5.876l5.891,5.908c0.814,0.798 1.872,1.205 2.946,1.205c1.075,-0 2.133,-0.407 2.946,-1.205c1.628,-1.628 1.628,-4.264 0,-5.908l-5.892,-5.876c-0.813,-0.83 -1.888,-1.22 -2.945,-1.22Zm-14.73,14.713c-1.058,0 -2.132,0.407 -2.946,1.237c-1.628,1.628 -1.628,4.248 -0,5.876l5.892,5.908c0.813,0.797 1.871,1.221 2.946,1.221c1.074,-0 2.132,-0.424 2.946,-1.221c1.627,-1.644 1.627,-4.264 -0,-5.908l-5.892,-5.876c-0.814,-0.83 -1.888,-1.237 -2.946,-1.237Zm-72.819,9.733l14.095,12.451l-16.016,15.056c-3.45,3.239 -8.773,3.157 -12.158,-0.212c-3.353,-3.353 -3.434,-8.675 -0.195,-12.126l14.274,-15.169Zm58.089,4.997c-1.074,-0 -2.132,0.407 -2.962,1.221c-1.628,1.643 -1.628,4.264 -0,5.908l5.908,5.875c0.797,0.814 1.872,1.237 2.93,1.237c1.074,0 2.148,-0.423 2.946,-1.237c1.643,-1.627 1.643,-4.248 -0,-5.875l-5.876,-5.908c-0.83,-0.814 -1.888,-1.221 -2.946,-1.221Zm-35.401,15.023l16.195,14.29l-8.284,7.829c-4.2,3.971 -10.71,3.89 -14.812,-0.195c-2.001,-2.019 -3.108,-4.688 -3.108,-7.536c-0,-2.832 1.107,-5.485 3.108,-7.487l6.901,-6.901Zm22.933,20.247l16.26,14.339c-4.232,3.011 -10.075,2.637 -13.851,-1.139c-2.913,-2.913 -3.922,-7.324 -2.555,-11.231c0.244,-0.667 0.244,-1.334 0.146,-1.969Z" style="fill:#f0f0f0;fill-rule:nonzero;"/></g><path d="M185.677,29.785c-1.058,0 -2.116,0.407 -2.93,1.237l-5.908,5.892c-1.627,1.628 -1.627,4.248 0,5.876c0.814,0.814 1.888,1.22 2.962,1.22c1.058,0 2.133,-0.406 2.946,-1.22l5.876,-5.876c1.644,-1.644 1.644,-4.264 0,-5.892c-0.814,-0.83 -1.872,-1.237 -2.946,-1.237Zm14.746,14.746c-1.074,0 -2.132,0.407 -2.946,1.221l-5.892,5.876c-1.627,1.643 -1.627,4.264 0,5.908c0.814,0.797 1.872,1.204 2.946,1.204c1.074,0 2.132,-0.407 2.946,-1.204l5.892,-5.908c1.628,-1.628 1.628,-4.248 0,-5.876c-0.814,-0.83 -1.872,-1.237 -2.946,-1.221Zm14.73,14.73c-1.058,0 -2.132,0.407 -2.946,1.221l-5.892,5.892c-1.644,1.627 -1.644,4.264 0,5.892c0.798,0.813 1.872,1.22 2.93,1.22c1.074,0 2.148,-0.407 2.946,-1.22l5.908,-5.892c1.628,-1.628 1.628,-4.265 -0,-5.892c-0.814,-0.814 -1.888,-1.221 -2.946,-1.221Zm14.73,14.73c-1.058,-0 -2.132,0.407 -2.946,1.221l-5.892,5.892c-1.628,1.627 -1.628,4.264 -0,5.891c0.814,0.814 1.872,1.221 2.946,1.221c1.074,0 2.132,-0.407 2.946,-1.221l5.892,-5.891c1.627,-1.628 1.627,-4.265 -0,-5.892c-0.814,-0.814 -1.888,-1.221 -2.946,-1.221Zm14.73,14.73c-1.058,-0 -2.133,0.407 -2.946,1.22l-5.892,5.892c-1.628,1.628 -1.628,4.265 -0,5.892c0.814,0.814 1.871,1.221 2.946,1.221c1.074,-0 2.132,-0.407 2.946,-1.221l5.892,-5.892c1.627,-1.627 1.627,-4.264 -0,-5.892c-0.814,-0.813 -1.888,-1.22 -2.946,-1.22Zm-70.606,46.517c-1.074,-0 -2.132,0.407 -2.946,1.22c-1.627,1.644 -1.627,4.265 0,5.892l5.892,5.892c0.814,0.814 1.888,1.221 2.946,1.221c1.074,-0 2.149,-0.407 2.962,-1.221c1.628,-1.627 1.628,-4.264 0,-5.892l-5.908,-5.892c-0.814,-0.813 -1.872,-1.22 -2.946,-1.22Zm-14.73,14.746c-1.074,-0 -2.132,0.39 -2.946,1.204c-1.627,1.644 -1.627,4.281 0,5.908l5.909,5.876c0.797,0.814 1.871,1.221 2.929,1.221c1.074,-0 2.149,-0.407 2.946,-1.221c1.644,-1.628 1.644,-4.264 0,-5.876l-5.892,-5.908c-0.813,-0.814 -1.871,-1.204 -2.946,-1.204Zm-14.729,14.73c-1.058,-0 -2.133,0.39 -2.946,1.22c-1.628,1.612 -1.628,4.248 -0,5.876l5.891,5.908c0.814,0.798 1.872,1.205 2.946,1.205c1.075,-0 2.133,-0.407 2.946,-1.205c1.628,-1.628 1.628,-4.264 0,-5.908l-5.892,-5.876c-0.813,-0.83 -1.888,-1.22 -2.945,-1.22Zm-14.73,14.713c-1.058,0 -2.132,0.407 -2.946,1.237c-1.628,1.628 -1.628,4.248 -0,5.876l5.892,5.908c0.813,0.797 1.871,1.221 2.946,1.221c1.074,-0 2.132,-0.424 2.946,-1.221c1.627,-1.644 1.627,-4.264 -0,-5.908l-5.892,-5.876c-0.814,-0.83 -1.888,-1.237 -2.946,-1.237Zm-14.73,14.73c-1.074,-0 -2.132,0.407 -2.962,1.221c-1.628,1.643 -1.628,4.264 -0,5.908l5.908,5.875c0.797,0.814 1.872,1.237 2.93,1.237c1.074,0 2.148,-0.423 2.946,-1.237c1.643,-1.627 1.643,-4.248 -0,-5.875l-5.876,-5.908c-0.83,-0.814 -1.888,-1.221 -2.946,-1.221Z" style="fill:#fc9c19;fill-rule:nonzero;"/></svg>