<?xml version="1.0" encoding="UTF-8" standalone="no"?><!DOCTYPE svg PUBLIC "-//W3C//DTD SVG 1.1//EN" "http://www.w3.org/Graphics/SVG/1.1/DTD/svg11.dtd"><svg width="100%" height="100%" viewBox="0 0 1997 1997" version="1.1" xmlns="http://www.w3.org/2000/svg" xmlns:xlink="http://www.w3.org/1999/xlink" xml:space="preserve" xmlns:serif="http://www.serif.com/" style="fill-rule:evenodd;clip-rule:evenodd;stroke-linejoin:round;stroke-miterlimit:2;"><g><path d="M1279.06,249.573c-17.305,0 -31.197,13.892 -31.197,31.197c-0,17.304 13.892,31.196 31.197,31.196l124.786,0c17.305,0 31.197,-13.892 31.197,-31.196c-0,-17.305 -13.892,-31.197 -31.197,-31.197l-124.786,0Zm-374.36,124.787c-17.305,-0 -31.197,13.892 -31.197,31.196c0,17.305 13.892,31.197 31.197,31.197l124.786,0c17.305,0 31.197,-13.892 31.197,-31.197c0,-17.304 -13.892,-31.196 -31.197,-31.196l-124.786,-0Zm-373.263,90.543c-11.943,1.584 -22.545,10.358 -25.835,22.788c-4.509,16.574 5.484,33.756 22.057,38.265l120.643,32.172c2.681,0.731 5.362,1.096 8.043,1.096c13.771,0 26.444,-9.139 30.1,-23.032c4.509,-16.695 -5.484,-33.755 -22.057,-38.264l-120.521,-32.294c-4.144,-1.096 -8.409,-1.34 -12.43,-0.731Zm-193.639,723.129c-12.064,1.706 -22.666,10.358 -25.956,22.788c-4.509,16.695 5.483,33.756 22.057,38.265l120.521,32.293c2.681,0.731 5.362,1.097 8.165,1.097c13.77,-0 26.444,-9.262 30.1,-23.154c4.509,-16.573 -5.484,-33.756 -22.057,-38.265l-120.644,-32.171c-4.143,-1.219 -8.286,-1.463 -12.186,-0.853Zm566.902,59.834c-17.305,-0 -31.197,13.892 -31.197,31.197c0,17.304 13.892,31.196 31.197,31.196l124.786,0c17.305,0 31.197,-13.892 31.197,-31.196c0,-17.305 -13.892,-31.197 -31.197,-31.197l-124.786,-0Zm374.36,-0c-17.305,-0 -31.197,13.892 -31.197,31.197c-0,17.304 13.892,31.196 31.197,31.196l124.786,0c17.305,0 31.197,-13.892 31.197,-31.196c-0,-17.305 -13.892,-31.197 -31.197,-31.197l-124.786,-0Zm-1060.69,249.573c-18.767,0 -31.197,13.892 -31.197,31.197l-0,62.393c-0,17.304 12.43,31.197 31.197,31.197c18.766,-0 31.196,-13.893 31.196,-31.197l0,-62.393c0,-17.305 -12.43,-31.197 -31.196,-31.197Zm155.983,0c-18.767,0 -31.197,13.892 -31.197,31.197l0,62.393c0,17.304 12.43,31.197 31.197,31.197c18.767,-0 31.196,-13.893 31.196,-31.197l0,-62.393c0,-17.305 -12.429,-31.197 -31.196,-31.197Zm155.983,0c-18.767,0 -31.197,13.892 -31.197,31.197l0,62.393c0,17.304 12.43,31.197 31.197,31.197c18.767,-0 31.197,-13.893 31.197,-31.197l-0,-62.393c-0,-17.305 -12.43,-31.197 -31.197,-31.197Zm155.983,0c-18.766,0 -31.196,13.892 -31.196,31.197l-0,62.393c-0,17.304 12.43,31.197 31.196,31.197c18.767,-0 31.197,-13.893 31.197,-31.197l-0,-62.393c-0,-17.305 -12.43,-31.197 -31.197,-31.197Zm155.983,0c-18.766,0 -31.196,13.892 -31.196,31.197l-0,62.393c-0,17.304 12.43,31.197 31.196,31.197c18.767,-0 31.197,-13.893 31.197,-31.197l0,-62.393c0,-17.305 -12.43,-31.197 -31.197,-31.197Zm155.984,0c-18.767,0 -31.197,13.892 -31.197,31.197l0,62.393c0,17.304 12.43,31.197 31.197,31.197c18.766,-0 31.196,-13.893 31.196,-31.197l0,-62.393c0,-17.305 -12.43,-31.197 -31.196,-31.197Zm155.983,0c-18.767,0 -31.197,13.892 -31.197,31.197l0,62.393c0,17.304 12.43,31.197 31.197,31.197c18.767,-0 31.197,-13.893 31.197,-31.197l-0,-62.393c-0,-17.305 -12.43,-31.197 -31.197,-31.197Zm155.983,0c-18.767,0 -31.196,13.892 -31.196,31.197l-0,62.393c-0,17.304 12.429,31.197 31.196,31.197c18.767,-0 31.197,-13.893 31.197,-31.197l-0,-62.393c-0,-17.305 -12.43,-31.197 -31.197,-31.197Zm155.983,0c-18.766,0 -31.196,13.892 -31.196,31.197l-0,62.393c-0,17.304 12.43,31.197 31.196,31.197c18.767,-0 31.197,-13.893 31.197,-31.197l0,-62.393c0,-17.305 -12.43,-31.197 -31.197,-31.197Zm155.984,0c-18.767,0 -31.197,13.892 -31.197,31.197l0,62.393c0,17.304 12.43,31.197 31.197,31.197c18.766,-0 31.196,-13.893 31.196,-31.197l0,-62.393c0,-17.305 -12.43,-31.197 -31.196,-31.197Zm155.983,0c-18.767,0 -31.197,13.892 -31.197,31.197l0,62.393c0,17.304 12.43,31.197 31.197,31.197c18.767,-0 31.197,-13.893 31.197,-31.197l-0,-62.393c-0,-17.305 -12.43,-31.197 -31.197,-31.197Z" style="fill:#fc9c19;fill-rule:nonzero;"/><path d="M1216.67,62.393c-51.547,0 -93.59,42.043 -93.59,93.59l0,36.924c-9.749,-3.534 -20.229,-5.727 -31.196,-5.727l-249.574,-0c-51.547,-0 -93.589,42.042 -93.589,93.59l-0,114.063c-6.825,-3.9 -13.893,-7.312 -21.936,-9.384l-180.843,-48.501c-24.006,-6.337 -49.232,-3.168 -70.923,9.384c-21.57,12.429 -37.168,32.659 -43.627,56.787l-226.176,843.772c-13.282,49.963 16.33,101.267 66.293,114.672l41.433,11.089l-219.351,0c-51.548,0 -93.59,42.043 -93.59,93.59l-0,187.18c-0,51.548 42.042,93.59 93.59,93.59l155.983,0l0,155.983c0,51.548 42.043,93.59 93.59,93.59c51.548,0 93.59,-42.042 93.59,-93.59l0,-155.983l1123.08,0l0,155.983c0,51.548 42.043,93.59 93.59,93.59c51.548,0 93.59,-42.042 93.59,-93.59l0,-155.983l155.983,0c51.548,0 93.59,-42.042 93.59,-93.59l0,-187.18c0,-51.547 -42.042,-93.59 -93.59,-93.59l-93.589,0l-0,-904.702c-0,-51.548 -42.043,-93.59 -93.59,-93.59l-124.787,-0c-10.968,-0 -21.448,2.193 -31.197,5.727l0,-224.104c0,-51.547 -42.042,-93.59 -93.59,-93.59l-249.573,0Zm0,62.394l249.573,-0c17.183,-0 31.197,14.014 31.197,31.196l0,1216.67l-311.966,0l-0,-1216.67c-0,-17.182 14.014,-31.196 31.196,-31.196Zm-374.36,124.786l249.574,0c17.182,0 31.196,14.014 31.196,31.197l0,1091.88l-311.966,0l-0,-1091.88c-0,-17.183 14.014,-31.197 31.196,-31.197Zm-320.618,146.6c2.803,0 5.484,0.366 8.165,1.097l180.843,48.379c16.573,4.509 26.566,21.691 22.057,38.386l-226.176,843.65c-2.072,8.043 -7.312,14.746 -14.502,19.011c-7.189,4.143 -15.598,5.24 -23.641,3.046l-180.843,-48.379c-16.573,-4.509 -26.444,-21.691 -21.935,-38.386l226.054,-843.65c2.071,-8.043 7.312,-14.745 14.501,-19.011c4.753,-2.681 10.115,-4.143 15.477,-4.143Zm1069.34,40.58l124.787,0c17.182,0 31.196,14.014 31.196,31.197l0,904.702l-187.18,0l0,-904.702c0,-17.183 14.014,-31.197 31.197,-31.197Zm-842.309,228.613l-0,707.286l-195.467,0c5.971,-8.652 10.846,-18.279 13.649,-28.759l181.818,-678.527Zm-655.13,769.68l1809.4,-0c17.183,-0 31.197,14.014 31.197,31.196l0,187.18c0,17.183 -14.014,31.197 -31.197,31.197l-1809.4,-0c-17.183,-0 -31.197,-14.014 -31.197,-31.197l0,-187.18c0,-17.182 14.014,-31.196 31.197,-31.196Zm218.376,311.966l62.394,0l-0,155.983c-0,17.183 -14.014,31.197 -31.197,31.197c-17.182,0 -31.197,-14.014 -31.197,-31.197l0,-155.983Zm1310.26,0l62.393,0l-0,155.983c-0,17.183 -14.014,31.197 -31.197,31.197c-17.182,0 -31.196,-14.014 -31.196,-31.197l-0,-155.983Z" style="fill:#f0f0f0;fill-rule:nonzero;"/></g></svg>