<?xml version="1.0" encoding="UTF-8" standalone="no"?><!DOCTYPE svg PUBLIC "-//W3C//DTD SVG 1.1//EN" "http://www.w3.org/Graphics/SVG/1.1/DTD/svg11.dtd"><svg width="100%" height="100%" viewBox="0 0 3082 3773" version="1.1" xmlns="http://www.w3.org/2000/svg" xmlns:xlink="http://www.w3.org/1999/xlink" xml:space="preserve" xmlns:serif="http://www.serif.com/" style="fill-rule:evenodd;clip-rule:evenodd;stroke-linecap:round;stroke-linejoin:round;stroke-miterlimit:1.5;"><circle cx="1540.62" cy="1886.46" r="1486.42" style="fill:none;stroke:#f0f0f0;stroke-width:70.5px;"/><g><path d="M840.814,1032.17c-19.773,0 -35.756,15.983 -35.756,35.755c0,19.773 15.983,35.756 35.756,35.756c36.184,-0 76.867,5.407 120.953,16.062c2.825,0.643 5.661,0.907 8.45,0.907c16.126,0 30.739,-10.965 34.708,-27.305c4.612,-19.2 -7.197,-38.509 -26.398,-43.158c-49.628,-11.942 -95.915,-18.017 -137.713,-18.017Zm270.818,64.597c-13.91,-0.038 -27.213,8.096 -33.032,21.719c-7.759,18.163 0.692,39.1 18.855,46.859c69.08,29.462 136.418,67.546 194.699,110.059c6.4,4.648 13.726,6.843 21.02,6.843c11.013,0 21.904,-5.084 28.912,-14.595c11.656,-15.947 8.159,-38.311 -7.752,-49.932c-62.607,-45.695 -134.828,-86.518 -208.805,-118.09c-4.505,-1.922 -9.261,-2.85 -13.897,-2.863Zm793.599,1402.84c-13.829,-1.545 -27.93,5.092 -35.197,18.017l-34.987,62.363c-9.654,17.198 -3.546,38.984 13.688,48.674c5.506,3.111 11.523,4.609 17.458,4.609c12.515,0 24.673,-6.604 31.216,-18.296l34.987,-62.363c9.654,-17.198 3.547,-38.985 -13.687,-48.674c-4.291,-2.414 -8.869,-3.815 -13.478,-4.33Zm135.549,64.597c-13.89,0.737 -26.691,9.633 -31.705,23.604l-24.303,67.32c-6.686,18.557 2.917,39.02 21.509,45.742c3.969,1.466 8.147,2.165 12.151,2.165c14.624,-0 28.371,-9.05 33.591,-23.674l24.302,-67.32c6.687,-18.557 -2.916,-39.02 -21.509,-45.742c-4.612,-1.689 -9.407,-2.341 -14.036,-2.095Zm155.242,37.99c-19.666,-2.11 -37.443,11.413 -39.946,31.006l-9.008,70.882c-2.503,19.594 11.342,37.479 30.936,39.946c1.538,0.178 3.038,0.279 4.54,0.279c17.734,0 33.187,-13.16 35.475,-31.216l9.009,-70.882c2.503,-19.594 -11.413,-37.548 -31.006,-40.015Z" style="fill:#fc9c19;fill-rule:nonzero;"/><path d="M848.915,889.222c-100.599,-1.299 -181.696,24.381 -233.317,75.98c-150.566,150.565 -70.991,612.13 233.107,916.228c3.173,3.182 6.387,5.769 9.567,8.799c-3.213,3.055 -6.416,5.657 -9.637,8.869c-304.098,304.099 -383.673,765.663 -233.107,916.229c49.449,49.485 132.471,74.094 232.479,74.094c204.341,0 479.552,-102.969 683.679,-307.132c3.224,-3.215 5.876,-6.421 8.939,-9.637c3.05,3.202 5.663,6.44 8.869,9.637c204.234,204.234 479.442,307.132 683.819,307.132c99.936,0 182.96,-24.646 232.409,-74.024c150.53,-150.566 71.027,-612.164 -233.107,-916.299c-3.185,-3.175 -6.383,-5.768 -9.567,-8.799c3.222,-3.062 6.41,-5.721 9.637,-8.939c304.098,-304.098 383.603,-765.663 233.037,-916.228c-150.458,-150.53 -612.06,-70.991 -916.158,233.108c-3.224,3.214 -5.876,6.421 -8.939,9.637c-3.05,-3.202 -5.663,-6.44 -8.869,-9.637c-123.07,-123.142 -303.594,-226.825 -482.836,-277.383c-72.283,-20.38 -139.647,-30.856 -200.005,-31.635Zm1366.38,71.022c85.859,-4.061 157.465,12.978 199.936,55.448c62.75,62.786 72.424,198.625 25.978,363.349c-47.375,168.014 -144.24,336.913 -259.086,451.759c-3.442,3.413 -6.851,6.624 -10.265,9.847c-96.144,-76.101 -191.644,-111.576 -281.014,-118.37c-1.802,-0.163 -3.58,-0.208 -5.377,-0.349c-9.574,-0.607 -19.142,-1.283 -28.563,-1.257c-1.683,-0.019 -3.419,-0.209 -5.098,-0.209c-61.647,-0 -119.687,13.525 -172.491,35.685c60.359,-139.884 57.875,-318.138 -88.271,-497.989c2.963,-3.117 5.892,-6.242 9.009,-9.358c168.41,-168.385 426.352,-279.623 615.242,-288.556Zm-1374.13,0.419c55.599,-0 119.443,9.671 188.343,29.051c167.979,47.376 336.878,144.204 451.76,259.086c4.183,4.183 8.184,8.352 12.081,12.5c-143.338,178.41 -145.142,355.183 -85.547,494.079c-1.933,-0.799 -3.224,-1.447 -5.308,-2.305c-3.647,-1.573 -7.381,-3.073 -11.243,-4.539c-9.332,-3.468 -18.87,-6.404 -31.635,-10.265c-3.397,-1.073 -6.809,-2.113 -9.777,-2.864c-10.119,-2.753 -20.351,-4.874 -31.006,-6.983l-11.942,-2.165c-10.905,-1.823 -22.016,-3.083 -34.638,-4.12l-9.707,-0.699c-3.677,-0.243 -8.08,-0.096 -11.872,-0.209c-105.487,-5.21 -221.857,27.653 -338.906,121.721c-4.184,-3.897 -8.387,-7.898 -12.571,-12.081c-244.923,-244.923 -369.05,-679.095 -233.037,-815.108c36.542,-36.506 97.738,-55.099 175.005,-55.099Zm702.605,360.765c148.325,196.812 103.841,384.724 0.349,509.791c-3.411,-4.178 -6.829,-8.315 -10.266,-12.779l-9.009,-11.523c-3.396,-4.684 -6.526,-9.557 -9.637,-14.456l-10.754,-16.62c-3.79,-6.293 -7.099,-12.669 -11.104,-20.392c-0.107,-0.25 -1.639,-3.102 -1.746,-3.352c-1.609,-2.896 -3.284,-5.799 -4.679,-8.66c-3.504,-7.294 -6.565,-14.845 -9.497,-22.067l-4.889,-11.802c-2.932,-7.974 -5.461,-16.052 -7.821,-23.954l-3.352,-11.173c-2.288,-8.474 -4.082,-17.121 -5.727,-25.56l-2.025,-10.405c-1.466,-9.082 -2.49,-18.272 -3.491,-29.749l-0.629,-7.193c-0.536,-9.511 -0.637,-19.207 -0.279,-29.54l0.209,-8.241c0.501,-10.083 1.399,-20.315 2.794,-31.006l1.047,-7.612c1.645,-10.584 3.707,-21.282 6.425,-32.473l1.746,-6.704c2.896,-11.085 6.257,-22.321 10.405,-33.87l2.305,-6.006c4.362,-11.656 9.227,-23.365 14.805,-35.057l-5.448,-2.654c0.688,-1.412 1.599,-2.845 2.305,-4.259l5.796,1.676c6.079,-12.229 12.641,-24.539 20.043,-36.803l-4.819,-2.933c0.656,-1.068 1.499,-2.144 2.165,-3.213l5.098,2.235c7.902,-12.836 16.393,-25.693 27.585,-40.853c0.695,-0.923 1.401,-1.862 2.095,-2.793Zm317.327,470.405c79.314,2.348 165.013,31.547 252.312,98.396c-85.392,65.43 -169.115,94.581 -246.934,98.048l-1.956,0.07c-9.689,0.286 -19.402,0.081 -28.841,-0.419l-9.498,-0.838c-9.189,-0.823 -18.29,-1.781 -27.515,-3.282l-10.126,-1.956c-8.688,-1.645 -17.288,-3.436 -26.048,-5.796l-10.685,-3.282c-8.152,-2.467 -16.264,-4.961 -24.023,-7.822c-2.753,-1.037 -5.351,-2.104 -7.961,-3.212c-0.143,-0.072 -3.558,-1.465 -3.701,-1.536c-7.509,-3.075 -15.019,-6.098 -22.277,-9.638l-15.294,-8.1c-5.828,-3.075 -11.635,-6.067 -17.249,-9.428c-2.431,-1.466 -4.763,-3.036 -7.123,-4.609l-9.986,-6.565c-4.684,-2.967 -9.358,-5.964 -13.828,-9.218c-0.107,-0.071 -0.276,-0.138 -0.419,-0.209c-1.93,-1.359 -3.761,-2.898 -5.656,-4.4l-5.727,-4.399c-5.971,-4.577 -11.642,-9.115 -16.97,-13.548c62.835,-53.209 142.065,-91.584 230.594,-97.629c2.225,-0.114 4.467,-0.136 6.704,-0.209c7.345,-0.365 14.742,-0.512 22.207,-0.419Zm-631.862,0.488c9.761,-0.178 19.503,-0.083 29.121,0.489l6.285,0.489c84.808,8.028 160.693,45.553 221.306,96.93c-69.66,59.087 -159.578,99.901 -259.994,98.537c-79.3,-2.499 -164.981,-31.376 -252.242,-98.397c3.146,-2.431 6.45,-4.862 9.846,-7.472c12.801,-9.368 25.553,-17.855 39.247,-26.258l3.143,-2.025c12.192,-7.33 24.35,-13.818 37.222,-20.182l4.679,-2.375c11.763,-5.613 23.481,-10.455 37.64,-15.782l3.702,-1.397c11.263,-4.076 22.522,-7.39 35.895,-10.894l4.888,-1.257c10.727,-2.61 21.503,-4.71 32.194,-6.355l8.031,-1.117c10.154,-1.359 20.322,-2.259 30.727,-2.724l8.31,-0.21Zm-317.537,145.256c108.918,87.463 217.177,121.97 316.629,122.21c2.497,0.043 5.057,0.351 7.542,0.35c61.561,-0 119.482,-13.642 172.282,-35.756c-59.896,139.001 -58.341,316.108 85.198,494.778c-3.933,4.183 -7.968,8.387 -12.151,12.57c-244.959,244.923 -679.167,368.943 -815.108,233.038c-62.786,-62.787 -72.494,-198.625 -26.048,-363.349c47.375,-168.014 144.24,-336.844 259.086,-451.69c4.219,-4.183 8.386,-8.253 12.57,-12.151Zm1260.16,2.235c3.42,3.211 6.795,6.475 10.196,9.847c114.881,114.881 211.78,283.745 259.155,451.759c46.446,164.724 36.738,300.562 -26.048,363.349c-136.084,135.941 -570.218,11.851 -815.178,-233.108c-3.113,-3.114 -6.063,-6.189 -9.008,-9.288c6.884,-8.52 13.738,-16.409 21.02,-26.118c10.583,-14.445 20.15,-28.852 28.981,-43.297c0.072,-0.108 2.897,-4.468 2.933,-4.54c8.403,-14.051 15.845,-28.055 23.604,-43.716l2.165,-4.26c6.543,-13.658 12.208,-27.237 17.249,-40.574l2.794,-7.682c4.684,-13.157 8.667,-26.311 12.779,-41.9l1.537,-6.006c3.11,-12.8 5.543,-25.447 7.402,-37.711c0.608,-3.468 1.039,-6.948 1.397,-9.916c1.645,-12.264 2.78,-24.471 3.352,-36.663l0.279,-10.336c0.215,-11.835 0.123,-23.543 -0.628,-35.057l-0.838,-11.103c-0.93,-11.12 -2.157,-22.161 -3.981,-33.102l-2.304,-12.081c-1.967,-10.333 -4.127,-20.641 -6.844,-30.867l-3.841,-12.85c-2.861,-9.618 -5.854,-19.088 -9.358,-28.492c-1.144,-2.968 -2.416,-5.867 -3.631,-8.799l-2.584,-6.425c-0.84,-2.027 -1.806,-4.052 -2.654,-6.076c53.348,22.283 112.156,35.416 174.447,35.057c0.393,0.002 0.794,0 1.187,0c3.468,0 6.974,0.002 10.335,-0.07l10.755,-0.279c12.121,-0.536 24.368,-1.709 36.453,-3.282c3.29,-0.393 6.634,-0.826 9.638,-1.327c12.585,-1.931 25.324,-4.465 38.339,-7.612l8.31,-2.095c13.122,-3.468 26.367,-7.465 39.596,-12.221c0.179,-0.071 3.313,-1.221 3.492,-1.257l-0.768,-1.955c1.135,-0.432 2.285,-0.886 3.422,-1.327l0.977,1.885c13.587,-5.077 27.232,-10.813 40.784,-17.249l5.936,-3.072c14.016,-6.83 28.089,-14.431 42.319,-22.976l4.33,-2.724c14.445,-8.867 28.828,-18.44 42.809,-28.702c0.214,-0.143 2.858,-2.195 3.072,-2.374c5.558,-4.125 11.077,-9.048 16.621,-13.408Zm-628.022,9.148c103.678,125.076 148.347,313.224 -0.139,510.211c-148.408,-197.006 -103.542,-385.166 0.139,-510.211Z" style="fill:#f0f0f0;fill-rule:nonzero;"/></g></svg>