<?xml version="1.0" encoding="UTF-8" standalone="no"?><!DOCTYPE svg PUBLIC "-//W3C//DTD SVG 1.1//EN" "http://www.w3.org/Graphics/SVG/1.1/DTD/svg11.dtd"><svg width="100%" height="100%" viewBox="0 0 267 267" version="1.1" xmlns="http://www.w3.org/2000/svg" xmlns:xlink="http://www.w3.org/1999/xlink" xml:space="preserve" xmlns:serif="http://www.serif.com/" style="fill-rule:evenodd;clip-rule:evenodd;stroke-linejoin:round;stroke-miterlimit:2;"><path d="M16.667,29.167c-0.02,-0.001 -0.04,-0.001 -0.059,-0.001c-2.286,0 -4.167,1.881 -4.167,4.167c-0,2.286 1.881,4.167 4.167,4.167c0.019,0 0.039,0 0.059,0l233.333,0c0.02,0 0.039,0 0.059,0c2.286,0 4.167,-1.881 4.167,-4.167c0,-2.286 -1.881,-4.167 -4.167,-4.167c-0.02,0 -0.039,0 -0.059,0.001l-233.333,-0Zm179.166,25c-2.285,-0 -4.166,1.881 -4.166,4.166l-0,70.834c-0,2.285 1.881,4.166 4.166,4.166l33.334,0c2.285,0 4.166,-1.881 4.166,-4.166l0,-70.834c0,-2.285 -1.881,-4.166 -4.166,-4.166l-33.334,-0Zm4.167,8.333l25,0l0,62.5l-25,0l0,-62.5Zm-79.167,37.5c-2.285,0 -4.166,1.881 -4.166,4.167l-0,70.833c-0,2.286 1.881,4.166 4.166,4.167l12.5,-0l0,62.5l-66.666,-0l-0,-25l12.5,-0c2.285,-0.001 4.166,-1.881 4.166,-4.167l0,-70.833c0,-2.286 -1.881,-4.167 -4.166,-4.167l-33.334,0c-2.285,0 -4.166,1.881 -4.166,4.167l-0,70.833c-0,2.286 1.881,4.166 4.166,4.167l12.5,-0l0,25l-41.666,-0c-0.02,-0.001 -0.04,-0.001 -0.059,-0.001c-2.286,0 -4.167,1.881 -4.167,4.167c-0,2.286 1.881,4.167 4.167,4.167c0.019,0 0.039,0 0.059,0l45.133,0c0.45,0.074 0.909,0.074 1.359,0l73.641,0c0.45,0.074 0.909,0.074 1.359,0l111.841,0c0.02,0 0.039,0 0.059,0c2.286,0 4.167,-1.881 4.167,-4.167c0,-2.286 -1.881,-4.167 -4.167,-4.167c-0.02,0 -0.039,0 -0.059,0.001l-108.333,-0l-0,-62.5l12.5,-0c2.285,-0.001 4.166,-1.881 4.166,-4.167l0,-70.833c0,-2.286 -1.881,-4.167 -4.166,-4.167l-33.334,0Zm4.167,8.333l25,0l-0,62.5l-11.8,0c-0.45,-0.074 -0.909,-0.074 -1.359,0l-11.841,0l0,-62.5Zm83.333,33.334c-2.304,-0 -4.166,1.862 -4.166,4.166c-0,2.304 1.862,4.167 4.166,4.167l8.334,0c2.304,0 4.166,-1.863 4.166,-4.167c0,-2.304 -1.862,-4.166 -4.166,-4.166l-8.334,-0Zm-158.333,4.166l25,0l0,62.5l-11.8,0c-0.45,-0.074 -0.909,-0.074 -1.359,0l-11.841,0l0,-62.5Zm158.333,16.667c-2.304,0 -4.166,1.863 -4.166,4.167c-0,2.304 1.862,4.166 4.166,4.166l8.334,0c2.304,0 4.166,-1.862 4.166,-4.166c0,-2.304 -1.862,-4.167 -4.166,-4.167l-8.334,0Zm0,20.833c-2.304,0 -4.166,1.863 -4.166,4.167c-0,2.304 1.862,4.167 4.166,4.167l8.334,-0c2.304,-0 4.166,-1.863 4.166,-4.167c0,-2.304 -1.862,-4.167 -4.166,-4.167l-8.334,0Zm0,20.834c-2.304,-0 -4.166,1.862 -4.166,4.166c-0,2.305 1.862,4.167 4.166,4.167l8.334,0c2.304,0 4.166,-1.862 4.166,-4.167c0,-2.304 -1.862,-4.166 -4.166,-4.166l-8.334,-0Zm0,20.833c-2.304,0 -4.166,1.863 -4.166,4.167c-0,2.304 1.862,4.166 4.166,4.166l8.334,0c2.304,0 4.166,-1.862 4.166,-4.166c0,-2.304 -1.862,-4.167 -4.166,-4.167l-8.334,0Z" style="fill:#f0f0f0;fill-rule:nonzero;"/><path d="M195.833,54.167c-2.285,-0 -4.166,1.881 -4.166,4.166l-0,70.834c-0,2.285 1.881,4.166 4.166,4.166l33.334,0c2.285,0 4.166,-1.881 4.166,-4.166l0,-70.834c0,-2.285 -1.881,-4.166 -4.166,-4.166l-33.334,-0Zm4.167,8.333l25,0l0,62.5l-25,0l0,-62.5Zm8.333,79.167c-2.304,-0 -4.166,1.862 -4.166,4.166c-0,2.304 1.862,4.167 4.166,4.167l8.334,0c2.304,0 4.166,-1.863 4.166,-4.167c0,-2.304 -1.862,-4.166 -4.166,-4.166l-8.334,-0Zm0,20.833c-2.304,0 -4.166,1.863 -4.166,4.167c-0,2.304 1.862,4.166 4.166,4.166l8.334,0c2.304,0 4.166,-1.862 4.166,-4.166c0,-2.304 -1.862,-4.167 -4.166,-4.167l-8.334,0Zm0,20.833c-2.304,0 -4.166,1.863 -4.166,4.167c-0,2.304 1.862,4.167 4.166,4.167l8.334,-0c2.304,-0 4.166,-1.863 4.166,-4.167c0,-2.304 -1.862,-4.167 -4.166,-4.167l-8.334,0Zm0,20.834c-2.304,-0 -4.166,1.862 -4.166,4.166c-0,2.305 1.862,4.167 4.166,4.167l8.334,0c2.304,0 4.166,-1.862 4.166,-4.167c0,-2.304 -1.862,-4.166 -4.166,-4.166l-8.334,-0Zm0,20.833c-2.304,0 -4.166,1.863 -4.166,4.167c-0,2.304 1.862,4.166 4.166,4.166l8.334,0c2.304,0 4.166,-1.862 4.166,-4.166c0,-2.304 -1.862,-4.167 -4.166,-4.167l-8.334,0Z" style="fill:#fc9c19;fill-rule:nonzero;"/></svg>